<svg width="21" height="21" viewBox="0 0 21 21" fill="none" xmlns="http://www.w3.org/2000/svg">
<path fill-rule="evenodd" clip-rule="evenodd" d="M18.1366 10.8046C18.2554 10.8047 18.3731 10.7814 18.4829 10.736C18.5927 10.6906 18.6925 10.624 18.7765 10.54C18.8606 10.4561 18.9273 10.3564 18.9728 10.2466C19.0184 10.1369 19.0419 10.0193 19.0419 9.90045C19.042 9.78164 19.0187 9.66397 18.9733 9.55418C18.9279 9.44438 18.8613 9.34461 18.7773 9.26054C18.6934 9.17648 18.5937 9.10978 18.4839 9.06424C18.3742 9.01871 18.2566 8.99524 18.1378 8.99517L10.4217 8.99523L10.4229 1.28026C10.4229 1.04017 10.3275 0.809903 10.1577 0.64013C9.98794 0.470357 9.75767 0.37498 9.51758 0.374982C9.27748 0.374984 9.04721 0.470365 8.87744 0.64014C8.70766 0.809916 8.61228 1.04018 8.61228 1.28028L8.61333 8.99524L0.898361 8.9942C0.779477 8.9942 0.661757 9.01761 0.551922 9.06311C0.442088 9.1086 0.34229 9.17529 0.258225 9.25935C0.174161 9.34342 0.107477 9.44322 0.0619811 9.55305C0.0164858 9.66289 -0.00693122 9.78061 -0.00693222 9.89949C-0.00693428 10.1396 0.0884403 10.3699 0.258213 10.5396C0.342276 10.6237 0.442076 10.6904 0.55191 10.7359C0.661744 10.7814 0.779464 10.8048 0.898348 10.8048L8.61331 10.8036L8.61325 18.5197C8.6134 18.7596 8.70886 18.9897 8.87863 19.1593C9.0484 19.3288 9.27858 19.424 9.51853 19.4238C9.75848 19.4237 9.98854 19.3282 10.1581 19.1585C10.3277 18.9887 10.4229 18.7585 10.4227 18.5185L10.4217 10.8036L18.1366 10.8046Z" fill="white"/>
</svg>
