<svg width="36" height="36" viewBox="0 0 36 36" fill="none" xmlns="http://www.w3.org/2000/svg">
<path d="M19.875 12.1372V6.61312C19.875 6.22162 20.0054 5.89662 20.2661 5.63812C20.5269 5.37937 20.8499 5.25 21.2351 5.25H29.3959C29.7814 5.25 30.1034 5.37937 30.3619 5.63812C30.6206 5.89662 30.75 6.22162 30.75 6.61312V12.1372C30.75 12.5285 30.6196 12.8534 30.3589 13.1119C30.0981 13.3706 29.7751 13.5 29.3899 13.5H21.2291C20.8436 13.5 20.5216 13.3706 20.2631 13.1119C20.0044 12.8534 19.875 12.5285 19.875 12.1372ZM5.25 17.4V6.59962C5.25 6.21712 5.38037 5.89662 5.64112 5.63812C5.90187 5.37937 6.22488 5.25 6.61013 5.25H14.7709C15.1564 5.25 15.4784 5.37937 15.7369 5.63812C15.9956 5.89687 16.125 6.2175 16.125 6.6V17.4004C16.125 17.7829 15.9946 18.1034 15.7339 18.3619C15.4731 18.6206 15.1501 18.75 14.7649 18.75H6.60413C6.21863 18.75 5.89663 18.6206 5.63813 18.3619C5.37938 18.1031 5.25 17.7825 5.25 17.4ZM19.875 29.4V18.5996C19.875 18.2171 20.0054 17.8966 20.2661 17.6381C20.5269 17.3794 20.8499 17.25 21.2351 17.25H29.3959C29.7814 17.25 30.1034 17.3794 30.3619 17.6381C30.6206 17.8969 30.75 18.2175 30.75 18.6V29.4004C30.75 29.7829 30.6196 30.1034 30.3589 30.3619C30.0981 30.6206 29.7751 30.75 29.3899 30.75H21.2291C20.8436 30.75 20.5216 30.6206 20.2631 30.3619C20.0044 30.1031 19.875 29.7825 19.875 29.4ZM5.25 29.3869V23.8628C5.25 23.4715 5.38037 23.1466 5.64112 22.8881C5.90187 22.6294 6.22488 22.5 6.61013 22.5H14.7709C15.1564 22.5 15.4784 22.6294 15.7369 22.8881C15.9956 23.1466 16.125 23.4715 16.125 23.8628V29.3869C16.125 29.7784 15.9946 30.1034 15.7339 30.3619C15.4731 30.6206 15.1501 30.75 14.7649 30.75H6.60413C6.21863 30.75 5.89663 30.6206 5.63813 30.3619C5.37938 30.1034 5.25 29.7784 5.25 29.3869ZM7.5 16.5H13.875V7.5H7.5V16.5ZM22.125 28.5H28.5V19.5H22.125V28.5ZM22.125 11.25H28.5V7.5H22.125V11.25ZM7.5 28.5H13.875V24.75H7.5V28.5Z" fill="black"/>
</svg>
