<svg width="37" height="36" viewBox="0 0 37 36" fill="none" xmlns="http://www.w3.org/2000/svg">
<path d="M11.9728 17.5353C11.7499 17.5353 11.5633 17.4598 11.4131 17.3088C11.2627 17.1577 11.1875 16.9702 11.1875 16.7463C11.1875 16.5223 11.2627 16.336 11.4131 16.1875C11.5633 16.039 11.7499 15.9647 11.9728 15.9647H19.7772C20.0001 15.9647 20.1867 16.0402 20.3369 16.1913C20.4873 16.3423 20.5625 16.5298 20.5625 16.7538C20.5625 16.9777 20.4873 17.164 20.3369 17.3125C20.1867 17.461 20.0001 17.5353 19.7772 17.5353H11.9728ZM11.9728 12.5353C11.7499 12.5353 11.5633 12.4598 11.4131 12.3088C11.2627 12.1577 11.1875 11.9702 11.1875 11.7463C11.1875 11.5223 11.2627 11.336 11.4131 11.1875C11.5633 11.039 11.7499 10.9647 11.9728 10.9647H19.7772C20.0001 10.9647 20.1867 11.0402 20.3369 11.1913C20.4873 11.3423 20.5625 11.5298 20.5625 11.7538C20.5625 11.9777 20.4873 12.164 20.3369 12.3125C20.1867 12.461 20.0001 12.5353 19.7772 12.5353H11.9728ZM8.07062 20.9647H17.75C18.2802 20.9647 18.7705 21.0815 19.2209 21.315C19.6714 21.5483 20.0574 21.8718 20.3791 22.2853L23.6794 26.585V8.08031C23.6794 7.96802 23.6433 7.87583 23.5713 7.80375C23.4992 7.73167 23.407 7.69563 23.2947 7.69563H8.45531C8.34302 7.69563 8.25083 7.73167 8.17875 7.80375C8.10667 7.87583 8.07062 7.96802 8.07062 8.08031V20.9647ZM8.45531 28.3044H23.0072L19.1403 23.2459C18.9722 23.0239 18.7675 22.8499 18.5263 22.7241C18.285 22.5982 18.0262 22.5353 17.75 22.5353H8.07062V27.9197C8.07062 28.032 8.10667 28.1242 8.17875 28.1963C8.25083 28.2683 8.34302 28.3044 8.45531 28.3044ZM23.2947 29.875H8.45531C7.91802 29.875 7.45781 29.6834 7.07469 29.3003C6.69156 28.9172 6.5 28.457 6.5 27.9197V8.08031C6.5 7.54302 6.69156 7.08281 7.07469 6.69969C7.45781 6.31656 7.91802 6.125 8.45531 6.125H23.2947C23.832 6.125 24.2922 6.31656 24.6753 6.69969C25.0584 7.08281 25.25 7.54302 25.25 8.08031V27.9197C25.25 28.457 25.0584 28.9172 24.6753 29.3003C24.2922 29.6834 23.832 29.875 23.2947 29.875Z" fill="black"/>
</svg>
