<svg width="41" height="41" viewBox="0 0 41 41" fill="none" xmlns="http://www.w3.org/2000/svg">
<path d="M11.8303 32.375C11.2968 32.375 10.8375 32.1825 10.4525 31.7975C10.0675 31.4125 9.875 30.9532 9.875 30.4197V13.0803C9.875 12.5468 10.0675 12.0875 10.4525 11.7025C10.8375 11.3175 11.2968 11.125 11.8303 11.125H17.9553C17.9547 10.445 18.2003 9.85833 18.6922 9.365C19.1843 8.87167 19.7889 8.625 20.5059 8.625C21.2232 8.625 21.8278 8.87167 22.3197 9.365C22.8118 9.85833 23.0534 10.445 23.0447 11.125H29.1697C29.7032 11.125 30.1625 11.3175 30.5475 11.7025C30.9325 12.0875 31.125 12.5468 31.125 13.0803V30.4197C31.125 30.9532 30.9325 31.4125 30.5475 31.7975C30.1625 32.1825 29.7032 32.375 29.1697 32.375H11.8303ZM11.8303 30.8044H29.1697C29.2659 30.8044 29.3542 30.7644 29.4344 30.6844C29.5144 30.6042 29.5544 30.5159 29.5544 30.4197V13.0803C29.5544 12.9841 29.5144 12.8958 29.4344 12.8156C29.3542 12.7356 29.2659 12.6956 29.1697 12.6956H11.8303C11.7341 12.6956 11.6458 12.7356 11.5656 12.8156C11.4856 12.8958 11.4456 12.9841 11.4456 13.0803V30.4197C11.4456 30.5159 11.4856 30.6042 11.5656 30.6844C11.6458 30.7644 11.7341 30.8044 11.8303 30.8044ZM15.3478 27.5431H21.7966C22.0191 27.5431 22.2055 27.4675 22.3559 27.3163C22.5064 27.165 22.5816 26.9775 22.5816 26.7538C22.5816 26.53 22.5064 26.344 22.3559 26.1956C22.2055 26.0471 22.0191 25.9728 21.7966 25.9728H15.3478C15.1253 25.9728 14.9388 26.0484 14.7881 26.1997C14.6377 26.3509 14.5625 26.5384 14.5625 26.7622C14.5625 26.9859 14.6377 27.1721 14.7881 27.3206C14.9388 27.469 15.1253 27.5431 15.3478 27.5431ZM15.3478 22.5353H25.6522C25.8747 22.5353 26.0613 22.4596 26.2119 22.3081C26.3623 22.1569 26.4375 21.9695 26.4375 21.7459C26.4375 21.5222 26.3623 21.336 26.2119 21.1875C26.0613 21.039 25.8747 20.9647 25.6522 20.9647H15.3478C15.1253 20.9647 14.9388 21.0404 14.7881 21.1919C14.6377 21.3431 14.5625 21.5305 14.5625 21.7541C14.5625 21.9778 14.6377 22.164 14.7881 22.3125C14.9388 22.461 15.1253 22.5353 15.3478 22.5353ZM15.3478 17.5272H25.6522C25.8747 17.5272 26.0613 17.4516 26.2119 17.3003C26.3623 17.1491 26.4375 16.9616 26.4375 16.7378C26.4375 16.5141 26.3623 16.3279 26.2119 16.1794C26.0613 16.031 25.8747 15.9569 25.6522 15.9569H15.3478C15.1253 15.9569 14.9388 16.0325 14.7881 16.1838C14.6377 16.335 14.5625 16.5225 14.5625 16.7463C14.5625 16.97 14.6377 17.156 14.7881 17.3044C14.9388 17.4529 15.1253 17.5272 15.3478 17.5272ZM20.4984 12.0769C20.7766 12.0769 21.0159 11.9784 21.2166 11.7816C21.4172 11.5847 21.5175 11.3453 21.5175 11.0634C21.5175 10.7814 21.4172 10.5419 21.2166 10.345C21.0159 10.1481 20.7766 10.0497 20.4984 10.0497C20.2201 10.0497 19.9825 10.1481 19.7856 10.345C19.5888 10.5419 19.4903 10.7814 19.4903 11.0634C19.4903 11.3453 19.5888 11.5847 19.7856 11.7816C19.9825 11.9784 20.2201 12.0769 20.4984 12.0769Z" fill="#6A3AE0"/>
</svg>
