<svg width="37" height="36" viewBox="0 0 37 36" fill="none" xmlns="http://www.w3.org/2000/svg">
<path d="M9.83031 29.875C9.29677 29.875 8.8375 29.6825 8.4525 29.2975C8.0675 28.9125 7.875 28.4532 7.875 27.9197V10.5803C7.875 10.0468 8.0675 9.5875 8.4525 9.2025C8.8375 8.8175 9.29677 8.625 9.83031 8.625H15.9553C15.9547 7.945 16.2003 7.35833 16.6922 6.865C17.1843 6.37167 17.7889 6.125 18.5059 6.125C19.2232 6.125 19.8278 6.37167 20.3197 6.865C20.8118 7.35833 21.0534 7.945 21.0447 8.625H27.1697C27.7032 8.625 28.1625 8.8175 28.5475 9.2025C28.9325 9.5875 29.125 10.0468 29.125 10.5803V27.9197C29.125 28.4532 28.9325 28.9125 28.5475 29.2975C28.1625 29.6825 27.7032 29.875 27.1697 29.875H9.83031ZM9.83031 28.3044H27.1697C27.2659 28.3044 27.3542 28.2644 27.4344 28.1844C27.5144 28.1042 27.5544 28.0159 27.5544 27.9197V10.5803C27.5544 10.4841 27.5144 10.3958 27.4344 10.3156C27.3542 10.2356 27.2659 10.1956 27.1697 10.1956H9.83031C9.73406 10.1956 9.64583 10.2356 9.56563 10.3156C9.48563 10.3958 9.44562 10.4841 9.44562 10.5803V27.9197C9.44562 28.0159 9.48563 28.1042 9.56563 28.1844C9.64583 28.2644 9.73406 28.3044 9.83031 28.3044ZM13.3478 25.0431H19.7966C20.0191 25.0431 20.2055 24.9675 20.3559 24.8163C20.5064 24.665 20.5816 24.4775 20.5816 24.2538C20.5816 24.03 20.5064 23.844 20.3559 23.6956C20.2055 23.5471 20.0191 23.4728 19.7966 23.4728H13.3478C13.1253 23.4728 12.9388 23.5484 12.7881 23.6997C12.6377 23.8509 12.5625 24.0384 12.5625 24.2622C12.5625 24.4859 12.6377 24.6721 12.7881 24.8206C12.9388 24.969 13.1253 25.0431 13.3478 25.0431ZM13.3478 20.0353H23.6522C23.8747 20.0353 24.0613 19.9596 24.2119 19.8081C24.3623 19.6569 24.4375 19.4695 24.4375 19.2459C24.4375 19.0222 24.3623 18.836 24.2119 18.6875C24.0613 18.539 23.8747 18.4647 23.6522 18.4647H13.3478C13.1253 18.4647 12.9388 18.5404 12.7881 18.6919C12.6377 18.8431 12.5625 19.0305 12.5625 19.2541C12.5625 19.4778 12.6377 19.664 12.7881 19.8125C12.9388 19.961 13.1253 20.0353 13.3478 20.0353ZM13.3478 15.0272H23.6522C23.8747 15.0272 24.0613 14.9516 24.2119 14.8003C24.3623 14.6491 24.4375 14.4616 24.4375 14.2378C24.4375 14.0141 24.3623 13.8279 24.2119 13.6794C24.0613 13.531 23.8747 13.4569 23.6522 13.4569H13.3478C13.1253 13.4569 12.9388 13.5325 12.7881 13.6838C12.6377 13.835 12.5625 14.0225 12.5625 14.2463C12.5625 14.47 12.6377 14.656 12.7881 14.8044C12.9388 14.9529 13.1253 15.0272 13.3478 15.0272ZM18.4984 9.57688C18.7766 9.57688 19.0159 9.47844 19.2166 9.28156C19.4172 9.08469 19.5175 8.84531 19.5175 8.56344C19.5175 8.28136 19.4172 8.04187 19.2166 7.845C19.0159 7.64812 18.7766 7.54969 18.4984 7.54969C18.2201 7.54969 17.9825 7.64812 17.7856 7.845C17.5888 8.04187 17.4903 8.28136 17.4903 8.56344C17.4903 8.84531 17.5888 9.08469 17.7856 9.28156C17.9825 9.47844 18.2201 9.57688 18.4984 9.57688Z" fill="black"/>
</svg>
