<svg width="41" height="40" viewBox="0 0 41 40" fill="none" xmlns="http://www.w3.org/2000/svg">
<path d="M11.8303 31.875C11.2968 31.875 10.8375 31.6825 10.4525 31.2975C10.0675 30.9125 9.875 30.4532 9.875 29.9197V12.5803C9.875 12.0468 10.0675 11.5875 10.4525 11.2025C10.8375 10.8175 11.2968 10.625 11.8303 10.625H17.9553C17.9547 9.945 18.2003 9.35833 18.6922 8.865C19.1843 8.37167 19.7889 8.125 20.5059 8.125C21.2232 8.125 21.8278 8.37167 22.3197 8.865C22.8118 9.35833 23.0534 9.945 23.0447 10.625H29.1697C29.7032 10.625 30.1625 10.8175 30.5475 11.2025C30.9325 11.5875 31.125 12.0468 31.125 12.5803V29.9197C31.125 30.4532 30.9325 30.9125 30.5475 31.2975C30.1625 31.6825 29.7032 31.875 29.1697 31.875H11.8303ZM11.8303 30.3044H29.1697C29.2659 30.3044 29.3542 30.2644 29.4344 30.1844C29.5144 30.1042 29.5544 30.0159 29.5544 29.9197V12.5803C29.5544 12.4841 29.5144 12.3958 29.4344 12.3156C29.3542 12.2356 29.2659 12.1956 29.1697 12.1956H11.8303C11.7341 12.1956 11.6458 12.2356 11.5656 12.3156C11.4856 12.3958 11.4456 12.4841 11.4456 12.5803V29.9197C11.4456 30.0159 11.4856 30.1042 11.5656 30.1844C11.6458 30.2644 11.7341 30.3044 11.8303 30.3044ZM15.3478 27.0431H21.7966C22.0191 27.0431 22.2055 26.9675 22.3559 26.8163C22.5064 26.665 22.5816 26.4775 22.5816 26.2538C22.5816 26.03 22.5064 25.844 22.3559 25.6956C22.2055 25.5471 22.0191 25.4728 21.7966 25.4728H15.3478C15.1253 25.4728 14.9388 25.5484 14.7881 25.6997C14.6377 25.8509 14.5625 26.0384 14.5625 26.2622C14.5625 26.4859 14.6377 26.6721 14.7881 26.8206C14.9388 26.969 15.1253 27.0431 15.3478 27.0431ZM15.3478 22.0353H25.6522C25.8747 22.0353 26.0613 21.9596 26.2119 21.8081C26.3623 21.6569 26.4375 21.4695 26.4375 21.2459C26.4375 21.0222 26.3623 20.836 26.2119 20.6875C26.0613 20.539 25.8747 20.4647 25.6522 20.4647H15.3478C15.1253 20.4647 14.9388 20.5404 14.7881 20.6919C14.6377 20.8431 14.5625 21.0305 14.5625 21.2541C14.5625 21.4778 14.6377 21.664 14.7881 21.8125C14.9388 21.961 15.1253 22.0353 15.3478 22.0353ZM15.3478 17.0272H25.6522C25.8747 17.0272 26.0613 16.9516 26.2119 16.8003C26.3623 16.6491 26.4375 16.4616 26.4375 16.2378C26.4375 16.0141 26.3623 15.8279 26.2119 15.6794C26.0613 15.531 25.8747 15.4569 25.6522 15.4569H15.3478C15.1253 15.4569 14.9388 15.5325 14.7881 15.6838C14.6377 15.835 14.5625 16.0225 14.5625 16.2463C14.5625 16.47 14.6377 16.656 14.7881 16.8044C14.9388 16.9529 15.1253 17.0272 15.3478 17.0272ZM20.4984 11.5769C20.7766 11.5769 21.0159 11.4784 21.2166 11.2816C21.4172 11.0847 21.5175 10.8453 21.5175 10.5634C21.5175 10.2814 21.4172 10.0419 21.2166 9.845C21.0159 9.64812 20.7766 9.54969 20.4984 9.54969C20.2201 9.54969 19.9825 9.64812 19.7856 9.845C19.5888 10.0419 19.4903 10.2814 19.4903 10.5634C19.4903 10.8453 19.5888 11.0847 19.7856 11.2816C19.9825 11.4784 20.2201 11.5769 20.4984 11.5769Z" fill="#6A3AE0"/>
</svg>
