<svg width="41" height="40" viewBox="0 0 41 40" fill="none" xmlns="http://www.w3.org/2000/svg">
<path d="M21.3333 20.0002C19.7291 20.0002 18.3559 19.4291 17.2137 18.2868C16.0712 17.1443 15.4999 15.771 15.4999 14.1668C15.4999 12.5627 16.0712 11.1895 17.2137 10.0472C18.3559 8.90475 19.7291 8.3335 21.3333 8.3335C22.9374 8.3335 24.3106 8.90475 25.4528 10.0472C26.5953 11.1895 27.1666 12.5627 27.1666 14.1668C27.1666 15.771 26.5953 17.1443 25.4528 18.2868C24.3106 19.4291 22.9374 20.0002 21.3333 20.0002ZM8.83325 30.1606V28.9872C8.83325 28.1711 9.05492 27.4153 9.49825 26.7197C9.94159 26.0242 10.5341 25.4895 11.2758 25.1156C12.923 24.3081 14.5848 23.7024 16.2612 23.2985C17.9376 22.8946 19.6283 22.6927 21.3333 22.6927C23.0383 22.6927 24.7289 22.8946 26.4053 23.2985C28.0817 23.7024 29.7435 24.3081 31.3908 25.1156C32.1324 25.4895 32.7249 26.0242 33.1683 26.7197C33.6116 27.4153 33.8333 28.1711 33.8333 28.9872V30.1606C33.8333 30.8634 33.587 31.4611 33.0945 31.9539C32.602 32.4464 32.0042 32.6927 31.3012 32.6927H11.3653C10.6623 32.6927 10.0645 32.4464 9.572 31.9539C9.0795 31.4611 8.83325 30.8634 8.83325 30.1606ZM11.3333 30.1927H31.3333V28.9872C31.3333 28.6497 31.2355 28.3372 31.0399 28.0497C30.8444 27.7625 30.5789 27.5281 30.2437 27.3464C28.8076 26.6392 27.3434 26.1034 25.8512 25.7389C24.3587 25.3747 22.8527 25.1927 21.3333 25.1927C19.8138 25.1927 18.3078 25.3747 16.8153 25.7389C15.3231 26.1034 13.8589 26.6392 12.4228 27.3464C12.0876 27.5281 11.8221 27.7625 11.6266 28.0497C11.431 28.3372 11.3333 28.6497 11.3333 28.9872V30.1927ZM21.3333 17.5002C22.2499 17.5002 23.0346 17.1738 23.6874 16.521C24.3402 15.8682 24.6666 15.0835 24.6666 14.1668C24.6666 13.2502 24.3402 12.4654 23.6874 11.8127C23.0346 11.1599 22.2499 10.8335 21.3333 10.8335C20.4166 10.8335 19.6319 11.1599 18.9791 11.8127C18.3263 12.4654 17.9999 13.2502 17.9999 14.1668C17.9999 15.0835 18.3263 15.8682 18.9791 16.521C19.6319 17.1738 20.4166 17.5002 21.3333 17.5002Z" fill="#50AE00"/>
</svg>
