<svg width="520" height="652" viewBox="0 0 520 652" fill="none" xmlns="http://www.w3.org/2000/svg">
<path d="M58.9066 22.6971C67.1735 21.2107 70.8876 18.0372 70.8876 13.4174C70.8876 6.86938 63.7389 0 46.3265 0C28.9141 0 7.94739 6.90956 7.94739 13.4174C7.94739 17.3944 15.6552 20.2868 25.5994 21.974C11.7414 24.3441 0 29.2049 0 33.905C0 38.2838 10.2637 41.377 22.8837 42.9839C12.3404 45.5549 3.95372 49.8533 3.95372 53.9508C3.95372 57.5663 10.4235 60.3381 19.0897 62.0655C10.3835 64.6767 3.95372 68.4127 3.95372 72.0281C3.95372 78.5761 24.9604 82.2719 42.3329 82.2719C59.7053 82.2719 66.8939 78.5761 66.8939 72.0281C66.8939 68.3725 64.5776 64.6767 59.5855 62.0655C64.5377 60.3381 66.8939 57.6064 66.8939 53.9508C66.8939 49.8533 64.0584 45.6352 57.7085 43.0241C66.5744 41.4975 70.8876 38.3641 70.8876 33.905C70.8876 29.446 67.0137 25.2681 58.9066 22.6971Z" fill="#FFB7AE"/>
<path d="M311.586 146.909C303.16 142.088 293.535 139.718 285.148 134.857C276.762 129.956 269.373 121.279 270.332 111.598C271.29 101.716 280.316 94.6855 284.03 85.4861C288.184 75.162 284.989 62.8292 278.04 54.1521C271.091 45.475 260.867 39.9714 250.403 36.3158C221.09 26.072 187.503 29.3259 160.466 44.5109C156.153 43.9083 151.88 42.5826 147.766 41.0159C140.458 38.244 133.149 34.8696 125.322 34.4679C117.494 34.0662 108.828 37.6013 105.913 44.8724C104.115 49.3716 104.754 54.5538 103.197 59.1736C100.401 67.5695 91.2957 72.0286 82.7492 74.1175C74.2028 76.2064 64.9774 76.9697 57.669 81.8707C50.3207 86.7716 46.0874 97.9394 51.9181 104.568C53.4357 106.335 55.5124 107.54 57.07 109.268C62.9007 115.816 59.3464 126.662 53.0364 132.728C46.7264 138.794 38.2598 142.289 31.9498 148.355C25.6398 154.421 22.0455 165.267 27.8763 171.815C32.3492 176.877 40.4563 177.198 45.049 182.14C50.4804 188.005 48.6034 197.646 44.3302 204.395C40.0569 211.144 33.8268 216.607 30.5121 223.918C26.5583 232.595 27.5168 243.321 32.9083 251.155C38.2997 258.988 47.9245 263.688 57.3895 263.046C69.3305 262.242 81.3515 253.846 92.2941 258.627C100.281 262.122 103.876 271.241 108.508 278.673C117.015 292.331 131.592 302.294 147.527 303.941C163.461 305.588 180.275 298.397 189.18 285.02C193.414 278.673 196.289 270.799 202.999 267.264C212.663 262.162 223.925 268.871 234.309 272.165C247.448 276.343 262.305 274.816 274.325 267.987C281.314 264.01 287.864 256.98 286.945 248.945C285.907 239.746 275.763 234.082 273.327 225.123C270.891 216.165 277.161 206.885 284.909 201.824C292.656 196.762 301.882 194.553 310.149 190.415C318.416 186.277 326.283 179.087 326.922 169.807C327.601 160.085 320.053 151.609 311.626 146.788L311.586 146.909Z" fill="#0E0900"/>
<path d="M420.254 361.506C420.254 361.506 384.032 195.114 385.23 187.843C385.909 183.746 374.487 184.268 364.263 185.473C354.359 186.678 344.454 183.264 337.386 176.193L316.379 155.063H267.496C263.143 155.063 259.629 151.528 259.629 147.149C259.629 142.77 263.143 139.235 267.496 139.235H339.822C348.328 139.235 356.835 139.838 365.261 141.043L401.724 146.265C413.185 147.912 422.93 155.545 427.323 166.311L514.385 379.664C514.385 379.664 545.775 453.741 446.772 458.602L320.652 477.964L305.995 345.237L420.214 361.426L420.254 361.506Z" fill="#FFB7AE"/>
<path d="M137.623 319.004L63.98 250.993L39.8184 226.689V651.748C44.6507 650.543 183.511 496.283 183.511 496.283L324.767 478.085L346.452 351.021C346.452 351.021 184.709 308.037 137.623 318.964V319.004Z" fill="#3293F9"/>
<g style="mix-blend-mode:multiply">
<path d="M128.638 335.434C110.107 346.522 86.5844 354.837 65.7774 344.794C46.9272 335.716 39.1396 313.34 43.2531 293.535C45.7291 281.644 51.7596 270.838 59.6671 261.759C61.3444 259.831 58.5488 256.979 56.8316 258.907C42.1349 275.779 33.4686 299.159 40.8169 321.294C44.2116 331.457 50.7212 340.496 59.8268 346.16C69.3317 352.025 80.9134 354.034 91.9359 353.03C105.794 351.744 118.733 346 130.595 338.929C132.791 337.604 130.794 334.149 128.598 335.475L128.638 335.434Z" fill="#3293F9"/>
</g>
<g style="mix-blend-mode:multiply">
<path d="M323.767 355.761C318.655 388.581 311.107 421 301.123 452.695C298.328 461.654 295.292 470.532 292.098 479.329C291.219 481.78 295.093 482.824 295.931 480.414C307.234 449.201 316.179 417.143 322.689 384.524C324.526 375.324 326.164 366.085 327.601 356.845C328.001 354.315 324.167 353.23 323.767 355.761Z" fill="#3293F9"/>
</g>
<path d="M165.976 239.907L162.581 245.089L158.268 252.922L139.618 286.626L134.266 296.629L133.747 297.553L127.996 307.877C127.397 308.962 126.758 310.006 125.999 311.011L125.8 311.332C125.36 312.015 124.841 312.658 124.322 313.3C117.053 322.379 105.951 327.722 94.2895 327.401C90.6553 327.24 87.1408 326.638 83.9858 325.473C65.3354 318.804 56.5094 295.705 68.2109 276.985L68.4904 276.503L69.0096 275.86L69.8083 274.535L75.3995 266.179L101.518 222.592C103.036 220.383 105.552 218.977 108.267 219.098L115.855 233.318L120.688 242.397L127.437 241.995L138.3 241.393L164.818 239.866H165.976V239.907Z" fill="#FFB7AE"/>
<g style="mix-blend-mode:multiply" opacity="0.45">
<path d="M158.269 252.922L139.618 286.626L134.267 296.629L133.748 297.553L130.872 302.213L126 311.011L125.8 311.332L125.201 312.336L124.842 313.059L124.522 313.541C124.522 313.541 124.403 313.381 124.323 313.3C105.632 290.322 102.437 258.345 115.856 233.318C117.014 231.028 118.372 228.819 119.85 226.69L124.203 234.604L127.438 241.995L131.312 250.833L157.59 251.355C157.87 251.878 158.109 252.4 158.269 252.922Z" fill="#FFB7AE"/>
</g>
<path d="M256.424 227.648C256.065 228.974 255.745 230.3 255.386 231.625C252.151 243.034 246.6 256.251 237.215 268.342C219.043 291.481 187.893 300.118 161.654 287.585C149.873 282.001 136.454 272.56 121.997 257.054C120.2 255.126 118.403 253.157 116.646 251.068C116.646 251.068 98.9538 231.103 93.9618 200.372C93.9618 200.372 63.8495 197.961 68.8815 166.587C68.8815 166.587 73.9135 135.333 96.3979 149.554C96.3979 149.554 85.8946 85.8014 122.716 71.2994C122.716 71.2994 175.153 36.1892 224.115 78.8918C232.342 86.0826 238.972 95.0409 244.084 104.763C251.392 118.622 260.617 140.435 258.541 158.834C258.541 158.834 255.346 173.657 257.982 191.855C259.659 203.866 259.22 215.998 256.464 227.688L256.424 227.648Z" fill="#FFB7AE"/>
<path d="M155.553 169.525C155.553 169.525 155.553 169.525 155.513 169.525C155.273 169.405 154.994 169.405 154.754 169.405C158.188 159.964 166.535 152.492 176.24 150.604C177.757 150.323 179.395 150.162 180.833 150.684C182.31 151.247 183.548 152.653 183.428 154.26C183.309 156.027 181.711 157.273 180.154 158.076C176.959 159.683 173.404 160.406 169.93 161.25C166.455 162.053 162.901 162.977 159.906 164.986C158.149 166.151 156.631 167.758 155.553 169.605V169.525Z" fill="#0E0900"/>
<path d="M215.856 150.806C216.934 149.681 218.492 149.118 220.01 148.717C229.994 146.106 241.136 149.761 248.085 157.555C246.767 156.631 245.329 155.867 243.772 155.425C243.692 155.425 243.612 155.425 243.492 155.425C242.574 155.104 241.615 154.823 240.657 154.702C237.103 154.22 233.548 154.903 230.034 155.666C226.559 156.43 223.045 157.313 219.451 157.233C217.733 157.193 215.776 156.751 214.938 155.184C214.179 153.778 214.738 151.93 215.816 150.806H215.856Z" fill="#0E0900"/>
<g style="mix-blend-mode:multiply" opacity="0.45">
<path d="M168.334 229.181C177.12 238.501 190.419 242.518 202.76 240.027C206.274 239.304 207.233 244.968 203.718 245.691C189.341 248.624 174.205 243.603 164.021 232.837C161.505 230.185 165.858 226.57 168.334 229.221V229.181Z" fill="#FFB7AE"/>
</g>
<path d="M207.952 220.383C211.067 220.985 214.262 220.905 217.337 219.901C218.775 219.419 220.332 218.736 221.57 217.812C221.77 217.651 222.289 217.289 222.369 217.008C222.289 217.249 222.289 217.008 222.289 216.888C222.209 216.044 221.57 215.08 221.251 214.317C218.375 207.488 214.901 200.94 210.947 194.713C210.108 193.427 210.108 191.74 211.346 190.656C212.425 189.732 214.422 189.772 215.26 191.057C217.776 194.954 220.133 199.011 222.249 203.149C223.248 205.117 224.206 207.126 225.125 209.135C226.083 211.224 227.241 213.433 227.721 215.642C228.839 220.584 223.966 223.476 220.133 224.922C216.059 226.449 211.666 226.891 207.433 226.087C205.955 225.806 204.757 224.601 204.917 222.954C205.076 221.508 206.474 220.102 207.992 220.383H207.952Z" fill="#FFB7AE"/>
<g style="mix-blend-mode:multiply" opacity="0.45">
<path d="M207.952 220.383C211.067 220.985 214.262 220.905 217.337 219.901C218.775 219.419 220.332 218.736 221.57 217.812C221.77 217.651 222.289 217.289 222.369 217.008C222.289 217.249 222.289 217.008 222.289 216.888C222.209 216.044 221.57 215.08 221.251 214.317C218.375 207.488 214.901 200.94 210.947 194.713C210.108 193.427 210.108 191.74 211.346 190.656C212.425 189.732 214.422 189.772 215.26 191.057C217.776 194.954 220.133 199.011 222.249 203.149C223.248 205.117 224.206 207.126 225.125 209.135C226.083 211.224 227.241 213.433 227.721 215.642C228.839 220.584 223.966 223.476 220.133 224.922C216.059 226.449 211.666 226.891 207.433 226.087C205.955 225.806 204.757 224.601 204.917 222.954C205.076 221.508 206.474 220.102 207.992 220.383H207.952Z" fill="#FFB7AE"/>
</g>
<path d="M271.132 190.295C270.653 187.402 269.215 184.751 267.817 182.14C263.464 173.905 259.67 164.705 261.068 155.466C262.226 147.793 266.779 141.084 269.095 133.653C272.09 123.891 270.972 113.125 267.178 103.644C263.384 94.1636 257.114 85.8882 249.886 78.6573C229.159 57.9688 199.805 45.7565 170.651 47.7249C141.537 49.6934 113.342 66.4852 99.2844 92.2354C87.4233 113.928 86.6245 141.446 97.2078 163.581C98.7653 178.123 105.035 192.183 115.059 202.788C117.855 205.721 121.01 208.493 124.804 209.899C128.598 211.305 133.191 211.144 136.386 208.613C140.659 205.279 141.298 198.892 139.78 193.669C138.263 188.447 135.108 183.948 132.791 179.007C125.563 163.42 128.398 143.495 140.18 131.001C151.961 118.508 172.049 114.691 187.265 122.485C193.894 125.899 200.644 131.403 207.832 129.555C214.023 127.988 217.777 121.44 223.647 118.829C231.075 115.495 240.221 119.633 244.774 126.341C249.366 133.09 250.205 141.687 249.806 149.842C249.406 157.997 247.849 166.071 248.128 174.226C248.408 182.381 250.924 190.938 257.074 196.24C260.229 198.932 265.102 200.579 268.416 198.088C270.773 196.321 271.531 193.027 271.052 190.134L271.132 190.295Z" fill="#0E0900"/>
</svg>
