<svg width="36" height="36" viewBox="0 0 36 36" fill="none" xmlns="http://www.w3.org/2000/svg">
<path d="M18.3245 17.8717C16.9068 17.8717 15.6932 17.367 14.6837 16.3575C13.674 15.3478 13.1692 14.1341 13.1692 12.7164C13.1692 11.2987 13.674 10.0851 14.6837 9.0756C15.6932 8.06589 16.9068 7.56104 18.3245 7.56104C19.7422 7.56104 20.9558 8.06589 21.9653 9.0756C22.975 10.0851 23.4799 11.2987 23.4799 12.7164C23.4799 14.1341 22.975 15.3478 21.9653 16.3575C20.9558 17.367 19.7422 17.8717 18.3245 17.8717ZM7.27734 26.8512V25.8143C7.27734 25.093 7.47325 24.425 7.86505 23.8103C8.25686 23.1956 8.7805 22.723 9.43596 22.3926C10.8917 21.679 12.3604 21.1437 13.8419 20.7867C15.3235 20.4298 16.8177 20.2513 18.3245 20.2513C19.8314 20.2513 21.3255 20.4298 22.8071 20.7867C24.2886 21.1437 25.7573 21.679 27.2131 22.3926C27.8685 22.723 28.3922 23.1956 28.784 23.8103C29.1758 24.425 29.3717 25.093 29.3717 25.8143V26.8512C29.3717 27.4723 29.1541 28.0006 28.7188 28.4361C28.2835 28.8714 27.7552 29.089 27.1339 29.089H9.51513C8.89379 29.089 8.36549 28.8714 7.93023 28.4361C7.49497 28.0006 7.27734 27.4723 7.27734 26.8512ZM9.48678 26.8796H27.1623V25.8143C27.1623 25.516 27.0758 25.2398 26.903 24.9857C26.7302 24.7319 26.4956 24.5247 26.1993 24.3642C24.9301 23.7391 23.6361 23.2656 22.3173 22.9435C20.9983 22.6216 19.6674 22.4607 18.3245 22.4607C16.9817 22.4607 15.6507 22.6216 14.3317 22.9435C13.0129 23.2656 11.7189 23.7391 10.4497 24.3642C10.1534 24.5247 9.91885 24.7319 9.74602 24.9857C9.57319 25.2398 9.48678 25.516 9.48678 25.8143V26.8796ZM18.3245 15.6623C19.1346 15.6623 19.8282 15.3738 20.4051 14.7969C20.982 14.22 21.2704 13.5265 21.2704 12.7164C21.2704 11.9063 20.982 11.2127 20.4051 10.6358C19.8282 10.0589 19.1346 9.77047 18.3245 9.77047C17.5144 9.77047 16.8209 10.0589 16.244 10.6358C15.6671 11.2127 15.3786 11.9063 15.3786 12.7164C15.3786 13.5265 15.6671 14.22 16.244 14.7969C16.8209 15.3738 17.5144 15.6623 18.3245 15.6623Z" fill="#3293F9"/>
</svg>
