<svg width="41" height="41" viewBox="0 0 41 41" fill="none" xmlns="http://www.w3.org/2000/svg">
<path d="M21.3333 20.5002C19.7291 20.5002 18.3559 19.9291 17.2137 18.7868C16.0712 17.6443 15.4999 16.271 15.4999 14.6668C15.4999 13.0627 16.0712 11.6895 17.2137 10.5472C18.3559 9.40475 19.7291 8.8335 21.3333 8.8335C22.9374 8.8335 24.3106 9.40475 25.4528 10.5472C26.5953 11.6895 27.1666 13.0627 27.1666 14.6668C27.1666 16.271 26.5953 17.6443 25.4528 18.7868C24.3106 19.9291 22.9374 20.5002 21.3333 20.5002ZM8.83325 30.6606V29.4872C8.83325 28.6711 9.05492 27.9153 9.49825 27.2197C9.94159 26.5242 10.5341 25.9895 11.2758 25.6156C12.923 24.8081 14.5848 24.2024 16.2612 23.7985C17.9376 23.3946 19.6283 23.1927 21.3333 23.1927C23.0383 23.1927 24.7289 23.3946 26.4053 23.7985C28.0817 24.2024 29.7435 24.8081 31.3908 25.6156C32.1324 25.9895 32.7249 26.5242 33.1683 27.2197C33.6116 27.9153 33.8333 28.6711 33.8333 29.4872V30.6606C33.8333 31.3634 33.587 31.9611 33.0945 32.4539C32.602 32.9464 32.0042 33.1927 31.3012 33.1927H11.3653C10.6623 33.1927 10.0645 32.9464 9.572 32.4539C9.0795 31.9611 8.83325 31.3634 8.83325 30.6606ZM11.3333 30.6927H31.3333V29.4872C31.3333 29.1497 31.2355 28.8372 31.0399 28.5497C30.8444 28.2625 30.5789 28.0281 30.2437 27.8464C28.8076 27.1392 27.3434 26.6034 25.8512 26.2389C24.3587 25.8747 22.8527 25.6927 21.3333 25.6927C19.8138 25.6927 18.3078 25.8747 16.8153 26.2389C15.3231 26.6034 13.8589 27.1392 12.4228 27.8464C12.0876 28.0281 11.8221 28.2625 11.6266 28.5497C11.431 28.8372 11.3333 29.1497 11.3333 29.4872V30.6927ZM21.3333 18.0002C22.2499 18.0002 23.0346 17.6738 23.6874 17.021C24.3402 16.3682 24.6666 15.5835 24.6666 14.6668C24.6666 13.7502 24.3402 12.9654 23.6874 12.3127C23.0346 11.6599 22.2499 11.3335 21.3333 11.3335C20.4166 11.3335 19.6319 11.6599 18.9791 12.3127C18.3263 12.9654 17.9999 13.7502 17.9999 14.6668C17.9999 15.5835 18.3263 16.3682 18.9791 17.021C19.6319 17.6738 20.4166 18.0002 21.3333 18.0002Z" fill="#50AE00"/>
</svg>
