<svg width="237" height="279" viewBox="0 0 237 279" fill="none" xmlns="http://www.w3.org/2000/svg">
<path d="M213.271 111.69C220.786 96.3539 236.928 76.1906 222.248 60.0577C215.326 52.4517 205.585 49.5683 195.951 46.9824C179.388 42.5084 165.96 34.939 151.253 26.4299C135.291 17.1895 109.712 3.77481 94.1599 20.0254C93.0864 21.1499 93.4678 22.489 94.371 23.2709C84.9973 49.075 75.6825 74.8095 64.2978 99.8346C53.2774 124.005 40.0511 146.762 27.6861 170.231C21.0488 182.825 8.42986 206.196 19.2058 220.165C26.0337 229.002 41.6469 232.843 51.3697 237.215C64.8755 243.276 78.3708 249.306 91.8284 255.466C106.415 262.149 127.414 278.474 139.375 261.021C146.123 251.206 150.535 239.104 155.784 228.439C162.49 214.822 169.196 201.205 175.922 187.598C188.389 162.312 200.866 137.056 213.272 111.74L213.271 111.69ZM215.792 93.6369C210.647 103.984 205.493 114.351 200.368 124.708C190.766 144.14 181.195 163.611 171.614 183.052C162.032 202.494 152.441 221.955 142.86 241.397C140.728 245.74 138.769 250.193 136.413 254.428C132.835 260.82 133.556 260.163 125.565 260.928C117.625 261.693 119.81 261.648 114.352 259.835C103.315 256.151 92.4723 250.302 81.8056 245.595C72.3389 241.42 62.8904 237.156 53.4322 232.912C41.9406 227.779 23.1516 223.331 20.1861 209.59C18.1495 200.155 24.5939 187.492 28.4563 179.322C32.9926 169.711 38.5574 160.623 43.7762 151.368C66.4523 110.997 86.1768 67.794 98.1605 22.9236C115.364 7.10557 144.122 28.7414 159.817 37.7542C167.353 42.0728 175.004 46.1528 183.292 48.8713C194.297 52.4662 207.179 53.4356 216.155 61.4731C227.38 71.5099 221.244 82.6041 215.781 93.6071L215.792 93.6369Z" fill="#3293F9"/>
<path d="M169.874 51.497C163.165 48.1689 156.129 45.0999 149.151 42.378C144.987 40.7508 142.345 46.1975 146.2 48.4609C152.658 52.2561 159.423 55.8818 166.19 59.0906C171.197 61.47 174.853 53.9857 169.864 51.5169L169.874 51.497Z" fill="#3293F9"/>
<path d="M166.966 176.721C166.716 175.839 166.465 174.956 166.205 174.093C168.562 169.441 170.939 164.799 173.337 160.167C184.323 139.074 195.999 118.217 206.404 96.818C207.754 94.035 203.481 92.0111 202.007 94.6852C200.611 97.2003 199.277 99.745 197.891 102.29C197.839 100.324 197.786 98.3591 197.734 96.3937C197.644 93.1578 193.696 92.6915 191.944 94.592C190.853 93.0561 189.733 91.5303 188.462 90.0545C186.23 87.4495 181.201 89.1599 182.711 92.8389C183.604 95.0403 184.356 97.2223 184.998 99.4244C181.637 93.0302 177.779 86.9352 172.964 81.3092C181.985 85.3659 191.072 89.1842 200.172 92.7145C202.711 93.7006 204.548 90.1222 202.004 88.9376C178.495 78.0985 155.272 66.9808 132.122 55.5551C131.472 54.3556 130.294 53.9318 129.232 54.153C121.261 50.2127 113.298 46.2029 105.345 42.1733C105.284 41.2106 103.856 40.837 103.207 41.5534C102.647 41.7732 102.348 42.3895 102.422 43.0147C102.307 43.2532 102.191 43.4918 102.066 43.7502C100.558 43.903 99.0743 45.1476 99.2799 46.7453C99.3753 47.43 99.4707 48.1147 99.5864 48.8093C93.6669 61.0643 88.3796 73.6751 83.0204 86.2265C81.0019 85.5666 78.5677 87.1115 79.3305 89.7898L80.192 92.8352C77.9474 98.0327 75.6824 103.22 73.3156 108.358C64.1477 128.295 54.1945 147.778 44.3333 167.329C43.4559 167.272 42.5987 167.691 42.5012 168.773C42.4477 169.558 42.4433 170.292 42.4787 170.997C42.0255 171.931 41.5316 172.846 41.0784 173.78C40.1903 175.559 42.5847 176.843 43.8179 175.649C44.4232 176.63 45.2676 177.482 46.3014 178.253C44.3344 177.643 42.3662 176.983 40.3799 176.412C39.5388 176.176 39.1339 177.478 39.9171 177.833C72.3811 192.918 104.269 208.361 136.047 224.807C137.697 225.657 138.973 224.581 139.226 223.231C139.255 223.171 139.324 223.131 139.374 223.081C140.523 221.282 141.612 219.452 142.721 217.633C144.337 217.41 145.776 215.947 145.169 213.934C145.137 213.844 145.125 213.765 145.083 213.696C151.524 202.75 157.393 191.428 163.181 180.067C165.062 180.905 167.697 179.31 166.957 176.741L166.966 176.721ZM153.602 187.01C153.002 188.143 152.432 189.267 151.832 190.4C149.04 182.366 146.238 174.353 143.446 166.319C146.012 172.745 148.738 179.101 151.763 185.357C152.185 186.25 152.861 186.774 153.602 187.01ZM110.475 71.7221C116.838 87.4794 122.051 103.637 127.255 119.814C127.137 119.487 127.039 119.169 126.912 118.862C121.522 103.38 115.1 87.6924 110.454 71.7122L110.475 71.7221ZM156.544 181.463C150.176 159.393 143.817 137.302 137.449 115.231C145.027 135.016 152.614 154.78 160.252 174.545C159.012 176.841 157.793 179.147 156.574 181.453L156.544 181.463ZM127.258 58.3769C132.681 77.2636 138.094 96.1205 143.517 115.007C135.819 94.7962 128.071 74.5853 120.313 54.3943C122.608 55.7285 124.924 57.0726 127.238 58.3671L127.258 58.3769ZM146.263 104.577C152.653 120.175 159.053 135.804 165.443 151.402C166.793 154.684 171.743 153.034 170.663 149.661C166.078 135.11 162.005 120.439 158.373 105.687C162.598 115.742 166.664 125.867 170.531 136.092C171.823 139.493 177.183 137.722 175.901 134.301C172.116 124.116 168.722 113.85 165.648 103.495C169.954 112.606 174.07 121.798 178.026 131.059C178.843 132.953 180.604 133.366 181.982 132.806C177.673 141.275 173.373 149.724 168.972 158.123C167.385 161.135 165.799 164.147 164.182 167.169C158.203 146.318 152.223 125.468 146.244 104.617L146.263 104.577ZM157.789 74.4393C157.789 74.4393 157.664 74.2311 157.602 74.1519C160.757 75.6824 163.902 77.1832 167.065 78.6442C166.086 79.4706 165.491 80.852 165.801 82.1317C167.201 87.7467 168.612 93.3914 170.013 99.0064C166.163 90.9756 162.204 83.0145 158.116 75.1134C158 74.8854 157.885 74.6574 157.789 74.4393ZM188.313 120.481C186.795 123.403 185.286 126.305 183.788 129.238C183.787 129.188 183.777 129.158 183.776 129.109L175.343 94.9128C180.059 102.505 183.631 110.744 187.084 119.074C187.328 119.659 187.772 120.144 188.292 120.471L188.313 120.481ZM155.342 73.0558C153.716 73.2982 152.143 75.0891 152.587 76.9741C152.92 78.4126 153.333 79.841 153.667 81.2795C153.117 80.0798 152.608 78.8998 152.049 77.72C150.845 75.1223 146.059 75.5019 146.713 78.7661C148.564 87.9635 150.674 97.0907 152.885 106.218C146.932 91.6903 140.999 77.1727 135.045 62.6453C141.72 66.2514 148.482 69.7282 155.312 73.0658L155.342 73.0558ZM113.53 50.4411C113.32 50.9777 113.264 51.6132 113.47 52.3274C119.466 72.9895 125.401 93.6716 131.367 114.344C123.728 90.7971 115.959 67.3104 104.562 45.0839C104.572 45.064 104.581 45.0441 104.591 45.0242C107.551 46.8531 110.551 48.652 113.551 50.451L113.53 50.4411ZM104.71 71.9951C102.933 68.5551 101.087 65.1549 99.0624 61.8644C99.0206 61.7951 98.9489 61.7357 98.9071 61.6663C99.5735 59.8778 100.21 58.0992 100.836 56.2909C101.876 61.5594 103.208 66.7973 104.71 71.9951ZM72.8946 133.177C72.0257 130.717 67.7797 131.383 68.2811 134.082C70.262 145.135 72.2729 156.179 74.3042 167.232C70.7162 158.247 67.1282 149.263 63.5402 140.279C63.4555 140.09 63.3517 139.942 63.2274 139.783C66.3087 133.69 69.3086 127.557 72.2475 121.395C73.8748 129.6 75.6426 137.776 77.4907 145.941C75.9683 141.666 74.4159 137.402 72.9042 133.157L72.8946 133.177ZM59.5396 153.243C59.0307 152.063 57.8854 151.729 56.9543 151.989C58.0761 149.832 59.1979 147.675 60.3089 145.489C61.6085 151.57 62.9079 157.652 64.2075 163.734L59.5493 153.224L59.5396 153.243ZM47.3642 169.634C50.1284 164.713 52.8413 159.743 55.5026 154.723C55.5829 159.378 56.0135 163.934 56.7753 168.429C56.0382 166.942 55.3311 165.444 54.6337 163.927C53.7551 161.954 50.4091 162.32 50.7123 164.702C51.1376 168.076 51.5426 171.44 51.9679 174.814C50.4402 173.091 48.892 171.357 47.3642 169.634ZM56.6659 180.629C56.4806 179.041 56.2846 177.424 56.0993 175.836C57.4203 178.245 58.8205 180.594 60.3012 182.933C59.0326 182.489 57.7941 182.036 56.5256 181.592C56.6509 181.334 56.7141 180.996 56.6659 180.629ZM64.6477 182.266C62.716 176.762 61.4005 171.335 60.5959 165.788C63.1897 171.638 65.7834 177.488 68.3976 183.348C69.2868 185.351 72.9553 184.994 72.4293 182.554C71.2186 176.859 70.0488 171.184 68.8381 165.489C72.0244 173.591 75.1902 181.683 78.3669 189.805C73.672 187.871 68.929 186.037 64.1881 184.302C64.681 183.805 64.9274 183.089 64.6681 182.276L64.6477 182.266ZM76.6177 117.622C76.3166 116.739 75.6009 116.244 74.8016 116.078C76.0059 113.543 77.2198 110.989 78.4037 108.445C78.7219 107.789 79.0498 107.113 79.3476 106.447C84.9294 126.147 89.6091 146.048 93.4156 166.091C87.8199 149.944 82.2038 133.788 76.6177 117.622ZM118.943 206.983C111.567 181.133 104.161 155.292 96.7639 129.432C107.978 157.169 117.603 185.485 126.918 213.872C124.215 212.29 121.473 210.788 118.72 209.257C119.07 208.64 119.194 207.866 118.943 206.983ZM86.4006 91.1812C87.4013 89.0146 88.3719 86.8579 89.3523 84.6814C93.0528 97.4775 96.7427 110.244 100.443 123.04C96.042 112.31 91.3911 101.681 86.4006 91.1812ZM91.8669 78.9273C93.1526 75.9658 94.4072 72.9647 95.6318 69.9736L115.514 135.826C108.573 117.529 101.631 99.2323 94.6803 80.9551C94.1361 79.537 92.995 78.9343 91.8669 78.9273ZM82.0673 191.404C82.7445 191.044 83.2128 190.338 83.0103 189.356C81.294 179.831 79.5979 170.315 77.902 160.8C81.7471 171.432 85.572 182.053 89.3871 192.695C90.4156 195.551 94.624 194.081 93.8269 191.214C91.0767 181.384 88.5772 171.503 86.1677 161.593C90.405 174.06 94.6423 186.527 98.8699 199.014C93.333 196.328 87.719 193.801 82.0471 191.394L82.0673 191.404ZM102.553 200.751C103.684 200.391 104.549 199.436 104.358 198.017C103.215 189.433 101.873 180.9 100.4 172.376C104.166 183.534 108.052 194.652 112.148 205.7C108.969 204.011 105.78 202.341 102.533 200.742L102.553 200.751ZM131.949 216.926C132.841 216.278 133.381 215.165 133.01 213.806C127.23 193.322 121.339 172.858 115.428 152.385C123.508 173.468 131.587 194.552 139.626 215.665C138.945 217.226 138.243 218.776 137.571 220.316C135.723 219.15 133.816 218.053 131.958 216.906L131.949 216.926ZM109.973 97.4835C113.988 107.559 117.623 117.794 121.495 127.8C130.019 149.885 138.563 171.98 147.096 194.045C147.501 195.077 148.259 195.64 149.099 195.827C147.098 199.743 145.18 203.699 143.311 207.655C132.205 170.934 121.109 134.194 110.003 97.4735L109.973 97.4835Z" fill="#3293F9"/>
<path d="M96.7358 220.67C96.7743 215.924 92.1449 211.42 87.6751 211.511C83.7967 207.272 76.8112 207.002 72.7978 211.906C67.3819 218.561 71.4916 228.388 79.3449 231.068C86.7717 233.59 96.6768 229.137 96.7154 220.66L96.7358 220.67ZM80.4249 225.576C76.66 223.799 74.8645 219.465 76.9612 215.817C78.3005 213.47 81.1718 212.58 83.7806 213.059C83.6027 213.219 83.4045 213.368 83.217 213.547C81.9164 214.881 83.5619 216.931 85.2033 216.451C88.726 215.409 92.763 218.129 91.4762 221.974C89.9902 226.385 84.3225 227.442 80.4152 225.596L80.4249 225.576Z" fill="#3293F9"/>
</svg>
