<svg width="265" height="248" viewBox="0 0 265 248" fill="none" xmlns="http://www.w3.org/2000/svg">
<path d="M260.361 135.941C260.768 135.411 261.198 134.881 261.605 134.35C262.917 132.671 262.035 130.815 260.587 130.02C261.402 129.976 262.125 129.578 262.397 128.606C268.574 106.601 249.727 83.2254 231.673 72.5541C225.134 68.6877 194.545 55.4314 182.509 60.9328C172.147 29.2504 142.802 5.03567 109.159 0.0424804C106.58 -0.333113 105.336 1.85408 105.766 3.75415C104.159 4.88093 102.598 6.14035 101.082 7.42179C83.3896 -1.37153 71.6247 28.1899 64.1585 38.6182C48.3891 60.6677 28.3662 78.6521 14.2935 102.027C10.7641 107.882 7.46076 113.825 4.15755 119.791C2.68693 122.442 -0.638862 126.375 0.107757 129.799C1.39737 135.764 12.6419 136.25 17.2121 137.289C17.9813 137.466 18.7506 137.642 19.4972 137.797C19.7687 138.106 20.0628 138.416 20.3117 138.725C21.194 139.808 22.7326 139.653 23.4792 138.681C49.2262 144.359 75.6973 149.595 95.7654 167.513C96.5347 168.198 97.3717 168.242 98.0731 167.933C134.363 179.046 161.649 206.928 164.024 245.173C164.138 246.984 166.242 248.001 167.848 247.404C179.568 243.074 187.237 233.596 195.654 224.935C207.509 212.739 219.478 200.654 231.469 188.568C242.6 177.345 275.225 154.235 260.383 135.897L260.361 135.941ZM210.994 202.686C211.763 199.505 212.984 196.544 214.772 193.827C215.202 195.174 215.496 196.589 215.632 198.025C214.093 199.593 212.532 201.14 210.994 202.686ZM153.051 198.157C153.413 197.384 153.73 196.611 154.092 195.837C156.038 199.902 157.803 203.902 159.296 208.033C157.441 204.609 155.359 201.294 153.074 198.135L153.051 198.157ZM164.748 211.281C163.278 206.509 161.423 201.891 159.341 197.296C162.554 201.538 165.11 206.067 167.169 210.861C166.332 210.552 165.405 210.662 164.748 211.303V211.281ZM152.373 189.541C152.237 189.695 152.124 189.872 152.033 190.071C151.852 190.468 151.694 190.866 151.513 191.242C151.083 189.916 150.563 188.635 149.974 187.397C150.314 187.685 150.676 187.972 151.015 188.281C151.49 188.701 151.92 189.121 152.373 189.541ZM144.341 186.867C144.499 186.514 144.658 186.182 144.816 185.829C145.834 187.596 146.626 189.275 147.237 191.043C146.173 189.85 145.065 188.701 143.934 187.574C144.115 187.353 144.25 187.132 144.318 186.867H144.341ZM206.559 203.548C206.695 203.813 206.83 204.056 206.944 204.321C207.26 204.94 207.758 205.293 208.279 205.404C206.355 207.348 204.41 209.292 202.487 211.237C203.957 208.652 205.292 206 206.559 203.548ZM220.496 193.12C222.034 188.104 224.523 181.83 226.13 185.034C226.424 185.63 226.967 185.939 227.532 185.984L220.518 193.12H220.496ZM226.31 179.112C226.31 179.112 226.197 179.046 226.152 179.002C228.279 176.395 230.405 173.81 232.532 171.181C231.062 174.473 229.501 177.72 227.781 180.88C227.487 180.482 227.08 180.018 226.31 179.112ZM235.926 168.22C235.677 168.043 235.406 167.977 235.134 167.955C236.854 165.812 238.573 163.669 240.27 161.526C239.388 164.155 238.528 166.806 237.645 169.435C237.306 169.148 236.808 168.839 235.926 168.22ZM243.913 160.178C243.618 159.493 242.849 159.117 242.125 159.162C243.709 157.173 245.27 155.185 246.854 153.196C245.971 155.848 245.134 158.521 244.297 161.194C244.184 160.863 244.071 160.531 243.935 160.2L243.913 160.178ZM246.424 166.917C247.623 163.669 248.799 160.421 249.931 157.173C250.428 158.698 250.904 160.222 251.401 161.724C249.795 163.536 248.075 165.282 246.424 166.917ZM257.827 141.509C256.673 141.509 255.451 142.194 255.202 143.519C254.569 146.855 253.935 150.17 253.302 153.506C252.872 152.224 252.442 150.921 251.99 149.639C251.763 148.999 251.198 148.579 250.564 148.424C252.736 145.64 254.931 142.856 257.08 140.095C257.374 140.559 257.578 141.023 257.804 141.509H257.827ZM25.4476 99.1992C26.081 100.79 26.7371 102.381 27.3706 103.972C27.6647 105.253 29.882 105.54 29.9272 103.993C30.063 100.017 30.4703 96.1945 31.1038 92.3502C31.4884 93.6537 31.8957 94.9572 32.2803 96.2607C32.3482 97.984 34.8821 97.7852 35.1988 96.2828C35.9907 92.6594 36.7825 89.0361 37.5291 85.4127C38.1626 87.1802 38.7736 88.9478 39.3619 90.7153C34.4523 97.6085 29.6558 104.568 25.063 111.638C24.8593 107.484 25.0177 103.331 25.4249 99.1771L25.4476 99.1992ZM22.0312 116.432C21.5108 117.25 21.0131 118.067 20.4927 118.907C20.1533 116.675 20.0403 114.488 20.1308 112.279C20.7643 113.671 21.3977 115.062 22.0312 116.454V116.432ZM81.5344 29.3609C81.5344 29.3609 81.6475 29.4714 81.7154 29.5377C80.4937 31.2831 79.272 33.0505 78.0955 34.818C78.5932 32.3656 79.0682 29.8911 79.5434 27.4387C80.1995 28.0794 80.8782 28.7201 81.5344 29.3609ZM89.9509 18.7559C88.9327 19.971 87.9372 21.2083 86.9644 22.4676C87.5526 20.7885 88.435 19.3966 89.9509 18.7559ZM40.2894 83.115C39.7464 81.6568 39.226 80.1765 38.683 78.6963C38.4568 78.0776 37.9817 77.7683 37.4613 77.702C38.9093 75.9124 40.3799 74.1229 41.8732 72.3554C41.3302 75.9345 40.7872 79.5358 40.2894 83.115ZM44.2261 69.6156C45.6515 67.9586 47.0769 66.3016 48.5475 64.6666C48.3213 67.3842 48.0949 70.1017 47.8913 72.8414C47.1221 71.9134 46.2623 71.0076 45.199 70.0575C44.9048 69.7924 44.5881 69.6598 44.2488 69.6377L44.2261 69.6156ZM45.1538 76.6635C45.8325 77.724 46.5339 78.7626 47.2126 79.8231C46.104 81.3696 44.9954 82.9161 43.8868 84.4627C44.3167 81.8777 44.7465 79.2706 45.1312 76.6856L45.1538 76.6635ZM65.0862 54.6804C64.3622 55.763 63.6156 56.8455 62.8916 57.906C59.2263 63.1422 55.4933 68.3564 51.7376 73.5705C51.9412 70.8971 52.1448 68.2238 52.3485 65.5504C53.2987 66.5889 55.1539 65.7051 55.4254 64.4458C55.8779 62.2364 56.3303 60.0049 56.7828 57.7955C57.1675 58.5909 57.5747 59.3642 57.9367 60.1375C58.6607 61.6619 60.697 61.3085 61.0816 59.7619C61.7603 57.1106 62.3034 54.4593 62.8011 51.8081C62.9595 52.2278 63.1404 52.6477 63.2988 53.0895C63.4345 54.15 64.2265 54.6362 65.0862 54.6804ZM67.1224 51.6093C66.964 49.1127 67.0093 46.9254 67.2581 44.7161C67.6201 45.0696 67.9822 45.4009 68.3216 45.7544C69.2266 46.6381 70.4257 46.2184 71.1497 45.4231C69.7922 47.522 68.4572 49.5767 67.1224 51.6093ZM71.5795 44.7602C71.6248 44.6497 71.6927 44.5393 71.7153 44.4067C72.3488 41.8659 72.9822 39.3251 73.6157 36.7843C73.6836 36.9169 73.7741 37.0494 73.842 37.182C74.1588 38.1099 74.9279 38.4414 75.7198 38.3752C74.317 40.4962 72.937 42.6393 71.5795 44.7382V44.7602ZM97.0098 10.0731C97.3492 10.0952 97.6659 10.073 98.0279 10.1393C96.4668 11.5975 94.9736 13.1441 93.503 14.7348C93.8197 13.8511 94.1138 12.9673 94.4305 12.0835C95.9238 12.2603 96.8288 11.1998 97.0098 10.0731ZM88.254 12.6801C88.2087 13.2325 88.2087 13.8068 88.254 14.4255C87.3943 14.558 86.5118 14.7127 85.6521 14.8453C86.4666 14.0278 87.349 13.3208 88.254 12.6801ZM83.4349 17.3197C83.4349 19.5733 83.0956 21.7827 82.4847 23.9479C81.987 23.4397 81.3986 22.9978 80.109 21.9815C81.1497 20.3466 82.2584 18.7779 83.4349 17.3197ZM35.1762 80.5521C34.6332 83.2696 34.1128 85.9871 33.6151 88.7047C33.2304 87.7767 32.778 86.8267 32.2123 85.8104C32.054 85.5232 31.8277 85.3023 31.6014 85.1697C32.7779 83.6231 33.9771 82.0986 35.1762 80.5742V80.5521ZM25.6964 93.1234C26.6466 91.7978 27.6196 90.4943 28.5924 89.1687C28.0721 91.599 27.71 94.0293 27.5063 96.4596C27.0086 95.3991 26.4656 94.3385 25.8095 93.2338C25.7869 93.1897 25.7416 93.1676 25.6964 93.1234ZM15.9451 109.384C15.8094 109.119 15.6284 108.92 15.4248 108.744C15.8773 107.993 16.3297 107.241 16.7822 106.512C16.5333 107.683 16.3297 108.854 16.2166 110.003C16.1261 109.804 16.0356 109.583 15.9451 109.384ZM18.7506 103.419C20.1533 101.232 21.5787 99.0887 23.0267 96.9677C22.5742 100.922 22.3706 104.811 22.3706 108.744C21.8502 107.352 21.3072 105.938 20.8095 104.546C20.4475 103.552 19.5877 103.264 18.7732 103.441L18.7506 103.419ZM6.08074 128.672C6.39748 127.391 6.69154 126.131 7.00829 124.85L7.32507 126.043C7.32507 128.076 10.3115 127.766 10.7188 126.065C10.7867 125.844 10.832 125.601 10.8998 125.38C11.2844 126.993 11.6238 128.628 11.8727 130.307C12.0763 131.721 13.4338 132.097 14.4293 131.677C14.6555 132.031 14.9044 132.362 15.1533 132.693C11.6012 132.008 7.86809 130.904 6.08074 128.694V128.672ZM38.2306 134.24C36.6921 133.201 35.1083 132.207 33.6377 131.058C35.7418 131.368 37.8233 131.788 39.8822 132.296C39.7012 132.406 39.5201 132.539 39.407 132.715C39.045 133.246 38.6152 133.754 38.2306 134.262V134.24ZM40.8777 137.819C41.1039 137.532 41.3302 137.223 41.579 136.935C42.303 137.421 43.0044 137.952 43.7284 138.46C42.7782 138.239 41.8279 138.04 40.8777 137.841V137.819ZM51.5565 140.36C50.4705 140.073 49.3845 139.83 48.2759 139.565C48.5021 139.366 48.7284 139.123 48.8868 138.835C48.9547 138.703 49.0226 138.57 49.0905 138.46C49.905 139.123 50.742 139.785 51.5792 140.382C51.5792 140.382 51.5791 140.382 51.5565 140.382V140.36ZM55.1539 141.376C55.6517 140.426 55.4706 138.813 58.7965 142.437C57.5974 142.061 56.3757 141.708 55.1539 141.376ZM64.0454 144.138C64.4301 143.696 64.6336 143.144 64.5431 142.547C68.1857 144.491 71.8057 146.502 75.3578 148.623C71.67 146.944 67.8917 145.464 64.0454 144.116V144.138ZM104.815 165.039C96.6704 151.539 78.2765 142.834 64.2265 135.941C50.6064 129.247 35.8775 125.27 20.5605 127.037C18.1849 127.303 18.6374 130.815 20.9904 130.617C24.09 130.374 27.1218 130.396 30.0856 130.661C29.7689 130.97 29.5427 131.346 29.4295 131.765C29.2712 132.428 29.0901 133.003 28.9317 133.599C27.1896 132.693 25.357 131.964 23.547 131.036C22.3026 130.396 20.9452 131.456 20.7189 132.627C20.6737 132.826 20.6511 133.025 20.6058 133.246C18.9995 131.39 17.3705 129.556 15.5379 128.01C15.5379 128.01 15.5152 127.987 15.4926 127.965C15.3795 124.828 15.3795 121.691 15.4926 118.553C16.3071 120.608 17.0537 122.685 17.7551 124.828C18.0266 125.69 18.6601 126.021 19.3388 126.043C20.3796 126.816 21.8728 126.883 22.9814 125.469C38.6377 105.783 52.1222 84.065 66.4663 63.4515C78.2312 46.5498 88.7743 27.3283 102.349 11.465C102.553 11.5534 102.757 11.6417 102.983 11.7301C104.363 12.3929 105.539 10.3602 104.34 9.47649C104.295 9.4323 104.227 9.41024 104.182 9.36605C105.223 8.19508 106.286 7.02409 107.372 5.89731C107.643 6.02987 107.915 6.14026 108.254 6.22864C140.608 13.3207 165.902 33.6471 179.658 62.9655C178.776 63.9376 178.142 65.1527 177.825 66.633C176.626 65.7935 174.952 65.683 174.002 67.2296C153.074 101.121 128.345 132.959 104.793 165.149C104.793 165.127 104.793 165.105 104.77 165.083L104.815 165.039ZM178.708 70.7645C178.866 70.5436 178.979 70.3006 179.092 70.0796C179.681 69.9692 180.246 69.5936 180.405 68.975C182.69 60.027 209.07 69.2401 213.414 70.7867C222.08 73.8798 230.473 78.1218 237.465 84.065C251.922 96.3933 255.18 110.379 257.804 127.965C257.917 128.694 258.415 129.247 259.049 129.622C258.279 129.622 257.533 129.954 256.899 130.727C231.243 161.968 203.482 192.236 178.889 224.338C173.504 191.75 141.784 166.74 108.277 166.165C133.323 135.411 155.291 102.69 178.731 70.7645H178.708ZM142.486 181.786C142.237 182.183 142.033 182.537 141.875 182.824C140.11 180.858 138.187 179.532 135.336 178.184C134.703 177.875 133.956 178.184 133.571 178.737C131.151 176.991 128.639 175.356 126.037 173.898C131.829 175.865 137.327 178.472 142.486 181.786ZM169.386 241.063C168.911 235.054 167.667 229.066 165.789 223.234C166.581 222.924 167.192 222.217 167.124 221.113V220.936C169.251 226.857 170.902 232.623 174.387 238.368C172.78 239.406 171.106 240.312 169.364 241.041L169.386 241.063ZM229.749 183.686C231.424 180.195 235.609 171.622 236.967 173.478C237.623 174.406 239.274 174.252 239.659 173.169C240.451 170.938 241.265 168.728 242.057 166.497C242.125 167.182 242.148 167.889 242.103 168.596C242.125 169.325 242.623 169.811 243.234 170.01C242.713 170.518 242.193 171.026 241.718 171.512L229.727 183.686H229.749Z" fill="#3293F9"/>
<path d="M162.351 61.0214C155.292 38.2869 129.205 26.0469 108.526 17.6071C106.603 16.8338 105.404 19.6618 107.282 20.5014C129.386 30.5319 146.717 41.9103 158.821 62.9214C160.02 64.9982 162.961 63.0098 162.351 61.0214Z" fill="#3293F9"/>
<path d="M153.005 76.6636C145.403 55.2105 123.254 39.7891 102.077 32.7633C100.425 32.211 99.3393 34.6192 101.014 35.2378C123.932 43.8323 136.783 59.1211 150.2 78.188C151.263 79.6904 153.571 78.3206 153.005 76.6857V76.6636Z" fill="#3293F9"/>
<path d="M141.695 91.157C137.668 69.6598 110.541 55.9396 92.6899 46.7707C91.0835 45.9532 89.4772 48.5603 91.061 49.4882C100.134 54.8791 109.274 60.1816 117.532 66.7655C126.967 74.2774 131.853 82.894 138.754 92.3059C139.682 93.5652 142.012 92.7698 141.718 91.157H141.695Z" fill="#3293F9"/>
<path d="M131.786 105.982C121.967 85.9871 99.1607 72.6646 77.9387 67.1853C76.355 66.7876 75.6083 69.4168 77.1694 69.9028C100.134 77.0391 113.46 90.2733 128.46 107.772C129.772 109.296 132.759 107.992 131.763 105.982H131.786Z" fill="#3293F9"/>
<path d="M115.947 127.943C109.069 109.892 87.1681 94.4267 68.0275 91.4661C66.5795 91.2452 66.0139 93.322 67.3488 93.8744C76.6476 97.7187 85.6748 101.232 93.5708 107.573C101.535 113.958 106.557 121.845 112.802 129.644C114.069 131.213 116.671 129.843 115.947 127.943Z" fill="#3293F9"/>
<path d="M111.759 146.104C98.6369 127.899 77.0754 115.858 55.5819 109.694C54.0208 109.252 52.98 111.483 54.5864 112.014C76.9397 119.415 93.0258 132.274 109.225 148.513C110.673 149.971 112.89 147.651 111.782 146.104H111.759Z" fill="#3293F9"/>
<path d="M180.383 189.474C184.546 182.051 175.27 174.959 170.157 170.562C158.98 160.951 145.518 153.528 131.174 149.661C129.251 149.153 127.939 151.782 129.93 152.556C145.676 158.698 173.98 170.452 177.125 189.032C177.419 190.778 179.591 190.91 180.405 189.474H180.383Z" fill="#3293F9"/>
<path d="M193.619 174.451C186.38 154.942 161.786 138.902 141.198 136.648C140.338 136.56 139.953 137.775 140.79 138.106C151.017 141.973 160.7 145.751 169.456 152.423C178.348 159.184 183.664 167.734 190.565 176.108C191.809 177.61 194.298 176.329 193.597 174.473L193.619 174.451Z" fill="#3293F9"/>
<path d="M204.001 159.029C206.58 151.76 195.11 143.563 190.268 139.211C179.453 129.468 166.851 122.287 153.163 117.161C151.037 116.366 149.679 119.526 151.783 120.343C161.376 124.121 170.471 128.827 178.707 134.969C182.032 137.444 201.467 156.754 200.698 157.151C199.386 157.836 199.567 159.515 201.037 159.869C201.377 159.957 201.716 160.023 202.055 160.112C202.802 160.288 203.752 159.714 204.001 159.029Z" fill="#3293F9"/>
<path d="M217.825 145.905C208.82 126.021 186.377 112.257 165.879 106.115C163.933 105.54 162.643 108.346 164.634 109.009C187.304 116.543 199.952 130.175 214.703 147.585C215.947 149.065 218.707 147.806 217.848 145.883L217.825 145.905Z" fill="#3293F9"/>
<path d="M233.616 124.695C224.906 102.27 196.738 88.9474 173.751 86.8927C171.919 86.738 171.511 89.4114 173.367 89.6544C185.652 91.3998 197.258 95.5977 207.44 102.601C217.055 109.207 222.87 117.935 230.313 126.485C231.671 128.053 234.431 126.75 233.616 124.695Z" fill="#3293F9"/>
<path d="M239.771 111.749C231.581 92.9247 213.82 79.2266 194.227 72.9741C192.417 72.3997 191.218 75.0067 193.051 75.6916C212.847 83.2035 225.63 96.1063 236.173 113.693C237.373 115.681 240.676 113.825 239.771 111.749Z" fill="#3293F9"/>
</svg>
