<svg width="41" height="43" viewBox="0 0 41 43" fill="none" xmlns="http://www.w3.org/2000/svg">
<g clip-path="url(#clip0_470_968)">
<path d="M37.3353 41.6567H37.2698C33.0377 41.8457 27.7371 39.7663 20.7505 35.2836C20.3069 34.9981 19.8555 34.7049 19.3926 34.4001C19.3926 34.4001 22.3052 29.1149 22.664 28.2314C22.7412 28.2777 22.8106 28.3279 22.8839 28.3742C23.2851 28.6404 23.6709 28.8989 24.0528 29.1458C24.2303 29.2538 24.4039 29.3656 24.5736 29.4737C30.4607 33.2389 33.9134 34.3808 35.8115 34.6547C37.6748 34.9248 38.3229 34.4425 38.8437 34.0529L40.0628 35.6963L40.0705 35.7079C41.8336 38.0766 40.2789 41.5062 37.3315 41.6528L37.3353 41.6567Z" fill="black"/>
<path d="M16.3348 25.3839C16.3348 25.3839 15.3896 27.7488 14.1783 29.8166C13.7346 30.5727 13.2524 31.2864 12.7701 31.8342C10.8567 31.7532 9.51028 32.3435 8.81587 32.7524C8.42623 32.98 8.10989 33.2308 7.85142 33.4738C7.29589 34.0023 7.50807 34.8935 8.14847 35.1828C8.24491 35.2253 8.34908 35.2561 8.46867 35.2677C8.46867 35.2677 8.48024 35.2677 8.4841 35.2677C8.24877 35.2793 5.00434 35.3603 4.66099 32.0888C4.52211 30.7849 4.84617 28.9563 5.99194 26.387C7.01812 25.8662 8.17547 25.4534 9.44084 25.1988C11.4971 24.7705 13.831 24.7628 16.3386 25.3839H16.3348Z" fill="black"/>
<path d="M29.5886 6.30413C29.6156 6.95225 29.55 7.61965 29.3803 8.2832C29.1565 9.14349 28.9173 10.0617 28.6511 11.0223C27.7908 14.1317 26.7145 17.704 25.4414 21.2841C24.5348 23.8341 23.6128 26.1488 22.6715 28.2282C22.3166 29.1116 19.4001 34.3968 19.4001 34.3968C18.451 35.8898 17.4827 37.1706 16.4951 38.2354C13.7676 41.1712 10.8897 42.4751 7.83044 42.1819C2.15558 41.638 0.62788 38.1852 0.234382 36.7231C-0.645203 33.4632 0.975084 29.7906 4.35068 27.3717C4.8522 27.0168 5.39615 26.685 5.98254 26.388C1.94726 35.4384 8.1545 35.2841 8.47856 35.2687C8.49013 35.2687 8.49399 35.2687 8.49399 35.2687C9.35429 35.3536 10.8588 34.5087 12.7646 31.8314C14.5701 29.7983 16.3292 25.3849 16.3292 25.3849C17.151 23.5641 18.0074 21.4345 18.8947 18.9578C21.1438 12.6271 22.7757 6.18068 23.5935 2.67777C23.8134 1.74418 23.9755 1.01891 24.0758 0.559825C24.1491 0.208763 24.1915 0.00815551 24.1953 -0.00341797C27.3048 0.629266 29.4574 3.29502 29.5886 6.30027V6.30413Z" fill="url(#paint0_linear_470_968)"/>
</g>
<defs>
<linearGradient id="paint0_linear_470_968" x1="14.7963" y1="-0.00341797" x2="14.7963" y2="42.2223" gradientUnits="userSpaceOnUse">
<stop stop-color="#2563EB"/>
<stop offset="1" stop-color="#37A8FF"/>
</linearGradient>
<clipPath id="clip0_470_968">
<rect width="40.8197" height="42.2239" fill="white"/>
</clipPath>
</defs>
</svg>
