<svg width="30" height="30" viewBox="0 0 30 30" fill="none" xmlns="http://www.w3.org/2000/svg">
<path d="M20.1066 17.9416V12.0584C20.1066 11.8401 20.0035 11.6902 19.7975 11.6087C19.5917 11.5273 19.4121 11.5631 19.2588 11.7162L16.6603 14.315C16.4653 14.5108 16.3678 14.7394 16.3678 15.0006C16.3678 15.2619 16.4653 15.49 16.6603 15.685L19.2588 18.2837C19.4121 18.4369 19.5917 18.4727 19.7975 18.3912C20.0035 18.3098 20.1066 18.1599 20.1066 17.9416ZM6.33031 25.625C5.79469 25.625 5.3349 25.433 4.95094 25.0491C4.56698 24.6651 4.375 24.2053 4.375 23.6697V6.33031C4.375 5.79469 4.56698 5.3349 4.95094 4.95094C5.3349 4.56698 5.79469 4.375 6.33031 4.375H23.6697C24.2053 4.375 24.6651 4.56698 25.0491 4.95094C25.433 5.3349 25.625 5.79469 25.625 6.33031V23.6697C25.625 24.2053 25.433 24.6651 25.0491 25.0491C24.6651 25.433 24.2053 25.625 23.6697 25.625H6.33031ZM10.1056 24.0544V5.94563H6.33031C6.23406 5.94563 6.14583 5.98562 6.06563 6.06562C5.98563 6.14583 5.94562 6.23406 5.94562 6.33031V23.6697C5.94562 23.7659 5.98563 23.8542 6.06563 23.9344C6.14583 24.0144 6.23406 24.0544 6.33031 24.0544H10.1056ZM11.6763 24.0544H23.6697C23.7659 24.0544 23.8542 24.0144 23.9344 23.9344C24.0144 23.8542 24.0544 23.7659 24.0544 23.6697V6.33031C24.0544 6.23406 24.0144 6.14583 23.9344 6.06562C23.8542 5.98562 23.7659 5.94563 23.6697 5.94563H11.6763V24.0544Z" fill="black"/>
</svg>
