<svg width="30" height="30" viewBox="0 0 30 30" fill="none" xmlns="http://www.w3.org/2000/svg">
<path d="M25.8654 23.875C25.7629 24.0352 25.5926 24.1261 25.3547 24.1478C25.1166 24.1695 24.903 24.0857 24.7138 23.8966L22.2116 21.3941H10C9.39192 21.3941 8.87129 21.1775 8.43817 20.7444C8.00504 20.3115 7.78848 19.7908 7.78848 19.1825V18.4134H21.3944C22.0157 18.4134 22.5475 18.1922 22.99 17.7497C23.4325 17.3072 23.6538 16.7752 23.6538 16.1537V7.5H24.4232C25.0313 7.5 25.5519 7.71656 25.985 8.14969C26.4182 8.58281 26.6347 9.10344 26.6347 9.71156V23.0866C26.6347 23.3172 26.5578 23.5062 26.4038 23.6537C26.25 23.8012 26.0706 23.875 25.8654 23.875ZM5.24036 15.8078L7.00973 14.0384H18.8944C19.0065 14.0384 19.0986 14.0024 19.1707 13.9303C19.2428 13.8582 19.2788 13.766 19.2788 13.6537V5.38469C19.2788 5.2724 19.2428 5.18021 19.1707 5.10813C19.0986 5.03604 19.0065 5 18.8944 5H5.62504C5.51296 5 5.42077 5.03604 5.34848 5.10813C5.2764 5.18021 5.24036 5.2724 5.24036 5.38469V15.8078ZM4.49129 18.7547C4.20067 18.7547 3.94036 18.649 3.71036 18.4375C3.48036 18.2258 3.36536 17.9468 3.36536 17.6003V5.38469C3.36536 4.76323 3.58661 4.23125 4.02911 3.78875C4.47161 3.34625 5.00359 3.125 5.62504 3.125H18.8944C19.5157 3.125 20.0475 3.34625 20.49 3.78875C20.9325 4.23125 21.1538 4.76323 21.1538 5.38469V13.6537C21.1538 14.2752 20.9325 14.8072 20.49 15.2497C20.0475 15.6922 19.5157 15.9134 18.8944 15.9134H7.78848L5.28629 18.4159C5.16921 18.5328 5.04379 18.6185 4.91004 18.6731C4.77609 18.7275 4.6365 18.7547 4.49129 18.7547Z" fill="black"/>
</svg>
