<svg width="36" height="36" viewBox="0 0 36 36" fill="none" xmlns="http://www.w3.org/2000/svg">
<path d="M14.2383 23.2554C11.6881 23.2554 9.52846 22.3711 7.75946 20.6026C5.99046 18.8341 5.10596 16.686 5.10596 14.1583C5.10596 11.6308 5.99021 9.48277 7.75871 7.71427C9.52721 5.94577 11.6771 5.06152 14.2083 5.06152C16.7396 5.06152 18.8892 5.94577 20.6572 7.71427C22.4255 9.48277 23.3096 11.6309 23.3096 14.1586C23.3096 15.2161 23.1297 16.2391 22.77 17.2276C22.4105 18.2161 21.9038 19.0998 21.2501 19.8785L30.2152 28.8035C30.396 28.977 30.4888 29.2006 30.4938 29.4744C30.4986 29.7484 30.4057 29.979 30.2152 30.1663C30.025 30.3533 29.7952 30.4468 29.526 30.4468C29.257 30.4468 29.031 30.3517 28.848 30.1614L19.9076 21.221C19.1601 21.8675 18.2926 22.3683 17.3051 22.7233C16.3173 23.078 15.2951 23.2554 14.2383 23.2554ZM14.223 21.371C16.2332 21.371 17.9361 20.6715 19.3316 19.2725C20.7271 17.8733 21.4248 16.1685 21.4248 14.1583C21.4248 12.148 20.7271 10.4434 19.3316 9.0444C17.9361 7.6454 16.2332 6.9459 14.223 6.9459C12.2042 6.9459 10.4941 7.6454 9.09258 9.0444C7.69108 10.4434 6.99033 12.148 6.99033 14.1583C6.99033 16.1685 7.69108 17.8733 9.09258 19.2725C10.4941 20.6715 12.2042 21.371 14.223 21.371Z" fill="black"/>
</svg>
