<svg width="36" height="36" viewBox="0 0 36 36" fill="none" xmlns="http://www.w3.org/2000/svg">
<path d="M7.69542 26.6662C7.20403 26.3929 6.81889 26.024 6.54 25.5596C6.26111 25.0951 6.12167 24.5742 6.12167 23.9967V16.7658L2.795 14.9262C2.52139 14.7701 2.32056 14.5803 2.1925 14.3567C2.06417 14.1333 2 13.885 2 13.6117C2 13.3383 2.06417 13.0901 2.1925 12.8671C2.32056 12.6437 2.52139 12.454 2.795 12.2979L15.52 5.36458C15.7458 5.23903 15.9785 5.1468 16.2179 5.08792C16.4574 5.0293 16.7031 5 16.955 5C17.2069 5 17.4526 5.0293 17.6921 5.08792C17.9315 5.1468 18.1644 5.23889 18.3908 5.36417L32.7625 13.1858C33.0189 13.3247 33.2156 13.5125 33.3525 13.7492C33.4892 13.9861 33.5575 14.2417 33.5575 14.5158V24.3492C33.5575 24.7033 33.4376 25.0003 33.1979 25.24C32.9582 25.4794 32.6612 25.5992 32.3071 25.5992C31.9526 25.5992 31.6558 25.4794 31.4167 25.24C31.1772 25.0003 31.0575 24.7033 31.0575 24.3492V14.9967L27.7883 16.7658V23.9967C27.7883 24.5742 27.6489 25.0951 27.37 25.5596C27.0911 26.024 26.706 26.3929 26.2146 26.6662L18.3942 30.8942C18.1656 31.0222 17.9315 31.1157 17.6921 31.1746C17.4526 31.2332 17.2069 31.2625 16.955 31.2625C16.7031 31.2625 16.4574 31.2332 16.2179 31.1746C15.9785 31.1157 15.7444 31.0222 15.5158 30.8942L7.69542 26.6662ZM16.7625 19.6825C16.8375 19.7253 16.9043 19.7467 16.9629 19.7467C17.0218 19.7467 17.0886 19.7253 17.1633 19.6825L28.3558 13.6121L17.1633 7.5575C17.0886 7.51472 17.0218 7.49333 16.9629 7.49333C16.9043 7.49333 16.8375 7.51472 16.7625 7.5575L5.55417 13.6121L16.7625 19.6825ZM16.7467 28.7304C16.8214 28.7732 16.8908 28.7946 16.955 28.7946C17.0192 28.7946 17.0886 28.7732 17.1633 28.7304L25.0479 24.4708C25.1335 24.4175 25.1949 24.3561 25.2321 24.2867C25.2696 24.2172 25.2883 24.129 25.2883 24.0221V18.0992L18.4196 21.8717C18.191 21.9997 17.9539 22.0932 17.7083 22.1521C17.4625 22.211 17.2114 22.2404 16.955 22.2404C16.6986 22.2404 16.4475 22.211 16.2017 22.1521C15.9561 22.0932 15.719 21.9997 15.4904 21.8717L8.62167 18.0992V24.0221C8.62167 24.1076 8.64042 24.1906 8.67792 24.2708C8.71514 24.3508 8.77653 24.4175 8.86208 24.4708L16.7467 28.7304Z" fill="black"/>
</svg>
