<svg width="270" height="147" viewBox="0 0 270 147" fill="none" xmlns="http://www.w3.org/2000/svg">
<path d="M224.315 17.8063C208.523 11.3771 189.315 10.6701 174.631 19.8169C172.233 16.9226 169.518 14.2934 166.577 12.0178C131.983 -14.5389 86.6659 7.88625 57.9324 31.3719C23.9274 59.1659 -5.7111 99.4428 0.94059 144.801C1.43834 148.115 7.18497 147.364 6.95872 144.006C4.5605 108.324 23.4748 76.5757 48.5431 51.9633C73.2041 27.7264 110.897 -0.443093 148.07 12.6585C155.604 15.3098 162.187 19.7948 167.165 25.8264C158.025 35.2604 151.69 50.726 159.789 62.0822C168.975 74.9629 183.319 66.987 185.242 54.018C186.6 44.8933 184.45 35.6802 179.993 27.616C188.161 22.6891 198.319 21.4739 207.776 22.9763C242.8 28.5218 263.162 63.7614 258.365 96.3276C257.528 102.05 266.103 104.767 267.528 98.802C275.311 66.4126 255.583 30.5544 224.338 17.8063H224.315ZM174.948 55.7634C168.681 57.4646 165.785 56.0948 166.26 51.6319C165.74 49.0911 165.943 46.5724 166.848 44.0758C167.912 40.3862 169.88 36.9837 172.391 34.0674C175.513 40.6734 178.839 51.1458 174.97 55.7634H174.948Z" fill="#3293F9"/>
</svg>
