<svg width="126" height="90" viewBox="0 0 126 90" fill="none" xmlns="http://www.w3.org/2000/svg">
<path d="M119.154 71.2466C107.548 85.4308 84.9457 80.9015 72.027 70.0093C66.8459 65.6347 64.4929 60.1997 64.1535 54.2344C73.3392 49.3295 84.7873 41.3758 81.4614 30.4394C78.5202 20.7624 67.3436 20.7182 62.253 28.2963C58.3842 34.0407 55.8728 41.7735 55.3524 49.44C42.0038 55.8472 27.0262 58.1671 15.103 46.5899C1.82222 33.6872 6.52814 15.5703 17.8179 3.44084C19.3338 1.80591 17.4106 -0.911621 15.3292 0.303535C-7.20513 13.5377 -3.67565 46.4353 17.9536 58.4764C30.4652 65.4359 43.3839 63.58 55.7144 58.3217C56.2122 61.4148 57.1172 64.3754 58.4973 67.0046C68.8368 86.6238 113.43 101.338 125.535 76.063C127.322 72.3071 122.254 67.4465 119.132 71.2466H119.154ZM69.0178 41.0886C67.864 42.0828 66.6422 42.9666 65.3753 43.784C66.1219 40.713 67.0947 37.4652 68.6785 34.8361C70.6242 29.865 70.7373 31.9418 69.0178 41.0886Z" fill="#3293F9"/>
</svg>
