<svg width="226" height="84" viewBox="0 0 226 84" fill="none" xmlns="http://www.w3.org/2000/svg">
<path d="M224.918 47.8328C205.642 -13.0797 124.849 -11.3343 84.6898 27.9042C80.0291 24.8774 74.8933 22.7564 69.6669 21.961C53.0377 19.4423 36.8836 25.6065 24.2364 35.9684C11.8606 46.0874 -1.96314 62.1495 0.23146 78.9408C0.616081 81.7909 4.77906 81.9676 4.91481 78.9408C6.15917 51.5666 43.3543 24.5902 70.4814 31.1078C73.3774 31.8148 76.1602 32.9195 78.7395 34.3777C77.2462 36.1894 75.7983 38.0453 74.486 39.9674C67.7439 49.8212 62.1555 64.2264 68.5357 75.6046C73.9883 85.3038 86.0473 86.0771 94.2148 79.0513C109.668 65.7508 104.622 46.5293 92.2012 34.0463C127.383 -0.154843 197.384 -2.14328 215.235 50.4619C217.248 56.4052 226.819 53.9307 224.896 47.8549L224.918 47.8328ZM92.9705 62.26C92.3822 64.9996 89.5994 72.7545 85.8663 73.2627C80.8888 73.9476 76.1829 69.5509 75.8661 65.2206C75.3231 57.9296 78.9657 50.7492 83.0382 44.828C84.1016 43.2815 85.2328 41.7791 86.4319 40.3209C91.8619 46.1316 94.7805 53.9307 92.9705 62.26Z" fill="#3293F9"/>
</svg>
