<svg width="259" height="131" viewBox="0 0 259 131" fill="none" xmlns="http://www.w3.org/2000/svg">
<path d="M252.957 1.93717C251.6 -1.3548 246.351 -0.183713 247.369 3.43966C258.274 42.3247 238.5 80.7456 204.54 101.668C188.092 111.787 168.295 119.056 148.861 121.023C127.684 123.144 110.806 115.101 98.0229 99.7241C98.9958 99.2823 99.9685 98.8404 100.896 98.3765C116.304 90.9309 130.829 78.249 131.711 60.3973C132.412 46.4561 124.358 31.7196 109.177 29.6428C94.4708 27.6323 80.1266 38.6791 75.4433 51.8249C70.1491 66.6498 75.3754 82.4911 83.6561 95.6811C74.2442 98.8847 64.4251 100.829 55.7145 101.448C33.9042 103.016 17.8406 94.1123 7.20697 75.8187C4.87662 71.7976 -0.621147 74.714 0.0575965 78.7572C2.8857 96.2333 21.7999 107.479 38.4292 110.373C55.1941 113.29 73.0903 109.666 89.1539 103.48C89.9684 104.541 90.8056 105.579 91.6427 106.573C104.177 121.509 120.829 130.678 140.874 130.832C162.368 130.987 184.744 123.453 203.341 113.312C242.686 91.8809 271.284 45.7933 253.003 1.95928L252.957 1.93717ZM97.3667 40.2478C107.706 35.5639 117.978 40.2036 121.372 50.6098C124.652 60.6624 120.693 71.0465 113.453 78.3816C107.887 84.0155 100.512 88.6111 92.4572 92.2123C82.2081 76.0397 75.3303 50.2121 97.3442 40.2699L97.3667 40.2478Z" fill="#3293F9"/>
</svg>
