<svg width="233" height="162" viewBox="0 0 233 162" fill="none" xmlns="http://www.w3.org/2000/svg">
<path d="M217.97 2.04081C214.531 -2.57678 207.11 1.378 210.006 6.59212C227.223 37.5676 226.635 74.4862 199.35 100.027C189.87 108.886 177.449 115.934 164.326 118.806C165.82 113.813 166.272 108.378 165.367 102.479C163.24 88.4274 151.792 77.4689 136.792 78.198C122.923 78.8829 113.421 90.3495 115.457 103.716C118.24 121.921 131.588 128.66 147.267 129.08C146.249 130.185 145.208 131.245 144.1 132.261C130.751 144.479 111.339 150.864 93.4203 152.477C58.8949 155.57 16.9938 140.988 4.52753 106.743C3.53204 104.026 -0.585676 105.086 0.0704427 107.936C8.80361 144.833 52.6278 162.574 88.0356 161.469C111.498 160.74 146.34 149.87 160.005 128.196C174.553 125.92 189.236 119.69 198.15 113.172C232.45 88.0959 243.966 36.971 217.947 2.04081H217.97ZM152.584 120.198C142.607 120.353 131.475 117.525 126.634 108.091C121.747 98.5905 126.249 87.3448 138.172 87.2564C149.123 87.168 155.955 96.2044 156.521 106.191C156.792 111.162 155.616 115.868 153.489 120.154C153.195 120.154 152.901 120.198 152.607 120.198H152.584Z" fill="#3293F9"/>
</svg>
