<svg width="345" height="307" viewBox="0 0 345 307" fill="none" xmlns="http://www.w3.org/2000/svg">
<path d="M341.979 175.824C314.942 165.462 288.742 153.465 263.38 139.657C278.584 127.66 292.77 114.669 305.915 100.529C308.155 98.1203 306.48 94.7621 303.335 94.4749C283.154 92.619 262.95 90.8515 242.769 89.0399C243.9 60.4947 243.9 31.9275 242.746 3.36028C242.633 0.443904 239.013 -1.14688 236.819 0.974116C213.741 23.09 191.954 46.3547 171.433 70.7462C162.926 52.4305 155.053 33.8938 147.858 15.0478C146.862 12.4629 143.242 11.6675 141.659 14.2525C133.174 28.2157 126.478 42.7534 121.523 58.1749C95.9114 46.9954 70.911 34.6008 46.5668 20.969C43.8518 19.4445 41.3404 21.9411 41.7477 24.5923C43.3088 34.7113 45.1867 44.7419 47.3586 54.7061C47.2681 55.0375 47.3586 55.4131 47.5849 55.7887C49.327 63.7867 51.2727 71.7404 53.4221 79.65C52.2456 79.4291 51.3406 81.1523 52.223 82.1466C53.1053 83.1629 54.033 84.1571 54.9153 85.1734C58.2185 96.8831 61.9516 108.482 66.1146 119.971C55.1642 120.28 44.2364 120.612 33.286 120.921C30.5258 121.01 28.5574 124.611 30.8878 126.599C38.7612 133.338 46.6346 140.076 54.5307 146.793C36.9512 149.996 19.598 154.018 2.31268 158.569C-0.492793 159.298 -0.741666 162.899 1.54344 164.357C23.7836 178.652 47.4039 190.782 71.7708 201.232C62.3815 212.433 52.9922 223.613 43.6255 234.837C41.8156 237.002 42.9242 240.272 45.9785 240.382C51.9741 240.603 57.947 240.846 63.9426 241.067C64.4177 241.288 64.8928 241.531 65.3001 241.752C66.2956 242.282 67.3137 241.906 67.9019 241.222C82.4497 241.774 96.9974 242.326 111.568 242.923C108.536 257.173 105.436 271.402 102.292 285.608C101.726 288.193 104.826 291.463 107.45 289.496C120.731 279.598 133.65 269.303 146.681 259.118C146.953 259.007 147.179 258.83 147.338 258.587C148.537 257.637 149.758 256.687 150.958 255.759C152.541 254.522 150.46 251.893 148.786 253.02C147.722 253.749 146.659 254.456 145.573 255.185C135.392 245.132 124.011 236.604 111.839 228.915C100.052 221.47 88.5131 212.235 75.436 207.043C76.5672 205.673 77.7211 204.325 78.8523 202.955C102.088 217.979 124.713 233.931 146.681 250.766C147.835 251.65 149.306 250.788 149.51 249.772C152.021 252.246 154.396 254.853 156.568 257.659C157.134 258.388 157.971 258.543 158.695 258.366C154.148 262.63 154.487 269.48 158.265 274.274C155.053 277.433 155.256 282.272 158.22 285.718C159.261 286.934 160.505 287.795 161.885 288.414C161.84 288.48 161.795 288.502 161.75 288.569C158.65 293.893 160.618 300.278 165.709 303.791C172.836 308.74 183.017 306.663 190.46 303.659C197.089 300.985 203.447 296.147 204.194 288.701C204.624 284.327 203.13 279.201 199.375 276.793C200.687 273.92 200.845 270.518 199.194 266.541C198.628 265.171 197.203 264.862 196.184 265.326C197.519 260.752 196.569 255.56 192.904 252.556C198.175 247.651 202.633 241.177 206.366 234.262C208.945 235.809 211.501 237.355 214.081 238.924C211.185 240.382 211.773 245.662 215.845 245.773C234.556 246.281 253.267 246.701 271.978 247.187C274.783 247.253 276.321 244.182 275.077 241.929C268.968 230.86 262.837 219.791 256.706 208.722C265.394 206.424 274.014 203.972 282.611 201.431C282.747 201.608 282.883 201.762 283.018 201.917C284.172 203.331 286.503 201.873 286.254 200.348C304.987 194.736 323.539 188.594 342.047 182.165C345.282 181.038 345.146 177.039 342.047 175.868L341.979 175.824ZM308.539 169.527C308.381 169.947 308.358 170.411 308.494 170.897C305.869 169.24 303.2 167.649 300.53 166.059C303.177 167.252 305.869 168.379 308.539 169.527ZM292.317 162.236C291.209 162.722 290.507 164.07 291.231 165.307C291.729 166.169 292.272 166.987 292.792 167.804C288.607 165.418 284.331 163.186 279.987 161.088C276.729 157.818 273.448 154.548 270.145 151.322C277.453 155.122 284.874 158.724 292.34 162.214L292.317 162.236ZM274.082 159.342C273.742 159.563 273.493 159.872 273.335 160.226C263.199 151.676 253.086 143.147 242.905 134.663C242.611 134.42 242.294 134.31 241.977 134.244C240.62 132.631 239.285 130.996 237.905 129.383C231.072 121.363 223.832 113.696 215.891 106.737C228.742 117.231 241.298 128.102 253.448 139.369C253.154 140.828 253.878 142.551 255.167 143.258C257.068 144.318 258.991 145.357 260.914 146.395C265.371 150.637 269.738 154.968 274.082 159.32V159.342ZM224.918 159.74C235.597 169.594 245.642 180.044 255.054 191.025C244.421 184.109 234.76 175.228 225.008 167.473C225.076 164.888 225.054 162.303 224.918 159.74ZM237.294 187.269C233.086 184.153 228.742 181.215 224.194 178.431C224.42 176.487 224.601 174.543 224.737 172.598C228.9 177.481 233.086 182.386 237.294 187.247V187.269ZM250.597 202.58C250.71 202.69 250.846 202.756 250.982 202.823C250.755 202.889 250.552 202.933 250.326 202.999C248.47 203.485 247.498 205.253 247.746 206.976C242.045 200.061 236.321 193.168 230.597 186.274C237.724 191.135 244.375 196.57 250.597 202.58ZM240.325 203.397C234.239 199.221 228.176 195.068 222.09 190.892C222.655 188.241 223.176 185.59 223.583 182.916C229.126 189.765 234.715 196.592 240.303 203.397H240.325ZM220.189 203.331C228.357 211.749 236.638 220.056 244.941 228.341C236.705 222.265 228.674 215.946 220.936 209.252C219.149 207.705 216.818 210.025 218.357 211.771C223.131 217.272 228.04 222.597 233.131 227.766C227.022 223.745 220.846 219.857 214.601 216.035C214.578 216.035 214.533 216.035 214.511 216.013C216.185 211.55 217.588 207.33 218.719 203.684C219.556 201.033 220.303 198.36 221.004 195.642C225.393 200.414 229.895 205.076 234.601 209.539C230.574 206.733 226.615 203.861 222.791 200.79C221.004 199.376 218.56 201.608 220.212 203.309L220.189 203.331ZM184.487 91.7132C181.659 88.5538 178.809 85.3943 175.981 82.2349C185.573 86.5432 196.252 98.4076 202.836 104.262C211.931 112.349 220.665 120.789 229.036 129.604C229.352 129.935 229.669 130.289 229.986 130.642C228.651 129.781 227.271 128.963 225.823 128.19C224.036 127.24 222.452 129.869 224.217 130.863C237.701 138.486 246.14 150.814 254.918 163.01C256.412 165.064 257.882 167.119 259.353 169.174C245.326 153.907 230.755 139.148 215.868 124.589C213.357 119.794 210.302 115.199 206.615 110.868C200.28 103.423 192.497 98.032 183.967 94.3865C184.827 93.9004 185.279 92.5748 184.487 91.6911V91.7132ZM170.867 87.2944C169.487 85.6816 168.107 84.0688 166.727 82.478C171.478 86.0572 176.207 89.6143 180.958 93.1714C177.677 91.9562 174.284 90.9841 170.845 90.255C171.456 89.4375 171.614 88.1782 170.867 87.3165V87.2944ZM192.7 88.4875C196.931 91.6911 201.117 94.9388 205.28 98.2308C201.004 95.0272 196.705 91.89 192.7 88.4875ZM268.063 124.677C267.294 123.418 266.48 122.203 265.688 120.943C265.914 120.457 265.914 119.861 265.439 119.352C262.045 115.53 259.308 111.531 257.045 107.201C262.611 111.487 267.566 116.303 272.045 121.849C272.294 122.136 272.566 122.335 272.837 122.468C271.231 123.882 269.625 125.296 267.996 126.666C268.358 126.113 268.448 125.384 268.041 124.699L268.063 124.677ZM283.81 112.017C283.81 112.017 284.014 112.128 284.104 112.194C282.973 113.277 281.819 114.359 280.665 115.42C281.095 114.801 281.163 113.984 280.575 113.1C279.285 111.178 277.996 109.234 276.729 107.311C279.217 108.571 281.525 110.095 283.81 112.017ZM276.729 115.994C277.702 116.723 278.991 116.657 279.896 116.105C278.561 117.342 277.226 118.579 275.869 119.794C275.801 119.397 275.665 118.999 275.349 118.623C273.018 115.84 270.914 112.967 268.946 110.007C271.548 111.995 274.127 113.984 276.729 115.972V115.994ZM295.598 100.816C294.58 101.876 293.539 102.915 292.498 103.953C291.209 102.053 289.534 101.037 286.887 100.44C286.367 100.33 285.892 100.396 285.485 100.595C284.851 100.33 284.24 100.065 283.561 99.8216C281.774 99.1587 279.851 101.169 280.439 102.87L280.801 103.953C277.792 102.23 274.579 100.86 271.073 99.8878C269.059 99.3355 267.045 101.655 268.267 103.467C268.29 103.511 268.335 103.555 268.358 103.6C266.434 102.141 264.511 100.683 262.588 99.225C260.507 97.6343 257.543 99.5564 258.833 102.053C259.172 102.716 259.557 103.334 259.896 103.997C257.747 102.407 255.529 100.882 253.222 99.4902C252.339 98.9599 251.095 99.3355 250.484 100.109C249.443 98.8494 248.425 97.568 247.339 96.3308C263.425 97.8111 279.512 99.3355 295.598 100.816ZM242.068 95.8447C245.461 99.7553 248.742 103.776 251.864 107.908C247.769 103.776 243.606 99.689 239.443 95.6017C240.325 95.6901 241.185 95.7563 242.068 95.8447ZM260.19 127.152C261.661 128.433 263.538 127.306 263.697 125.87C264.081 126.268 264.489 126.666 264.873 127.085C265.552 127.77 266.412 127.792 267.136 127.439C263.244 130.731 259.285 133.956 255.258 137.072C248.832 131.062 242.294 125.141 235.687 119.308C241.253 123.948 246.841 128.588 252.407 133.205C254.489 134.951 257.385 132.233 255.439 130.245C241.344 115.685 227.475 100.948 213.628 86.1456C229.149 99.8216 244.647 113.52 260.167 127.174L260.19 127.152ZM233.402 79.0977C227.18 71.2323 220.936 63.389 214.714 55.5236C220.642 59.633 226.57 63.7204 232.497 67.8298C234.194 69.0008 236.592 66.6589 235.393 65.0018C232.882 61.511 230.257 58.1528 227.565 54.8387C229.828 56.3411 232.135 57.8214 234.488 59.2575C235.19 59.6772 235.891 59.6551 236.479 59.3679C236.389 67.4984 236.185 75.6289 235.891 83.7373C235.122 82.9198 234.353 82.1245 233.561 81.3291C233.923 80.6884 233.968 79.8268 233.402 79.0977ZM236.547 54.5073C234.76 51.4363 232.837 48.4757 230.823 45.5814C231.479 46.0012 232.135 46.4431 232.814 46.8408C234.85 48.078 237.248 45.6256 236.072 43.6593C233.742 39.7708 231.411 35.8823 229.058 31.9938C231.004 33.0322 232.972 34.0706 234.918 35.0869C235.393 35.352 235.959 35.3741 236.524 35.2857C236.592 41.6929 236.592 48.1001 236.547 54.4852V54.5073ZM236.049 11.2477C236.23 16.7049 236.321 22.162 236.411 27.6192C234.692 23.8191 232.837 20.1073 230.846 16.4176C232.588 14.6943 234.285 12.9489 236.027 11.2477H236.049ZM227.248 20.041C228.583 22.5597 229.873 25.1005 231.072 27.6855C228.651 26.404 226.208 25.1226 223.787 23.8412C223.696 23.797 223.606 23.797 223.515 23.7528C224.737 22.5155 226.004 21.2783 227.248 20.041ZM220.393 26.8901C220.393 26.8901 220.438 27.0227 220.484 27.0889C222.52 30.4472 224.556 33.7833 226.592 37.1416C224.398 35.5508 222.226 33.9159 220.099 32.1705C217.814 30.2925 214.759 33.1868 216.796 35.3962C221.162 40.1243 225.031 45.0733 228.561 50.3095C223.244 46.7966 218.176 42.9964 213.266 38.8207C211.185 37.0532 208.266 39.8371 210.212 41.8034C214.963 46.6198 219.42 51.5909 223.696 56.7608C217.746 52.6735 211.773 48.5862 205.823 44.4988C203.764 43.0848 202.044 46.0012 203.357 47.6361C207.044 52.2316 210.732 56.8272 214.42 61.4227C210.099 57.7109 205.687 54.0654 201.162 50.5525C199.42 49.2048 196.931 51.4584 198.651 53.0049C211.411 64.4937 224.126 76.2033 235.778 88.7747C235.733 89.791 235.71 90.8073 235.665 91.8236C222.972 79.4953 210.008 67.4101 196.841 55.5457C195.008 53.9108 192.361 56.4515 194.103 58.219C206.388 70.6357 218.493 83.2071 230.529 95.8447C216.841 83.9362 203.176 71.9835 189.465 60.097C199.488 48.7629 209.827 37.6718 220.416 26.8459L220.393 26.8901ZM187.112 62.8145C201.479 78.1034 215.823 93.3923 230.054 108.792C214.081 95.3587 197.972 82.0582 181.433 69.3764C183.311 67.1891 185.189 64.9797 187.089 62.7925L187.112 62.8145ZM179.895 71.1881C188.922 79.4732 198.13 87.5595 207.474 95.5575C198.47 88.3328 189.284 81.2628 179.872 74.4137C178.334 73.287 176.524 75.408 177.361 76.8662C178.062 78.0592 178.809 79.186 179.601 80.2907C177.836 79.2744 176.003 78.4349 174.148 77.8604C176.048 75.6069 177.994 73.4195 179.895 71.1881ZM166.885 76.7778C167.157 77.3522 167.406 77.9488 167.7 78.5232C167.971 79.1197 168.514 79.5395 169.125 79.8046C169.193 79.9151 169.261 80.0256 169.351 80.1361C170.551 81.4617 171.772 82.7431 172.971 84.0688C171.071 82.8094 169.171 81.5721 167.27 80.3128C166.433 79.7605 165.686 80.5779 165.799 81.3512C163.152 78.3023 160.46 75.2533 157.768 72.2486C159.713 73.8835 161.636 75.5626 163.514 77.2638C164.759 78.3685 166.229 77.8383 166.908 76.7999L166.885 76.7778ZM122.269 91.5585C114.984 85.0188 107.857 78.3022 100.798 71.5195C109.396 78.6337 118.084 85.6153 126.998 92.376C125.55 92.7957 124.102 93.2597 122.677 93.7458C123.039 93.083 123.039 92.2655 122.247 91.5585H122.269ZM119.984 94.7179C118.265 95.3807 116.636 96.0877 115.075 96.861C106.364 87.5595 97.3368 78.5895 88.1059 69.7961C98.5133 77.9929 108.943 86.2118 119.351 94.3865C119.554 94.5412 119.758 94.6295 119.984 94.7179ZM119.396 75.0103C125.663 79.9372 131.907 84.8862 138.175 89.791C135.799 90.1887 133.446 90.6748 131.116 91.2492C131.161 90.8295 131.093 90.3654 130.754 89.8794C127.179 84.7315 123.401 79.7826 119.396 75.0103ZM147.247 74.6347C153.605 79.6942 160.053 84.6432 166.637 89.4596C164.442 89.1282 162.225 88.8851 160.007 88.7084C155.754 84.0245 151.501 79.3186 147.224 74.6347H147.247ZM152.745 88.4875C149.985 88.5096 147.224 88.6863 144.464 88.9515C140.052 83.5164 135.618 78.1255 131.183 72.7347C138.22 78.1918 145.392 83.428 152.745 88.4875ZM161.342 64.7146C162.451 67.2112 163.605 69.6636 164.759 72.1381C161.772 68.9124 158.74 65.7309 155.663 62.5936C156.749 63.3669 157.858 64.1181 158.944 64.8693C159.894 65.5321 160.754 65.289 161.365 64.6925L161.342 64.7146ZM154.306 48.5862C155.55 51.5026 156.817 54.3968 158.084 57.2911C155.279 53.8886 152.473 50.5083 149.668 47.1059C150.437 47.5919 151.184 48.1001 151.953 48.5862C152.835 49.1606 153.695 49.0502 154.306 48.5862ZM144.034 23.5981C146.297 29.3204 148.627 35.0206 150.98 40.6987C149.148 38.5556 147.315 36.4125 145.46 34.2694C146.636 33.2973 146.976 31.3089 145.233 30.3588C143.22 29.2542 142.79 29.0332 141.093 29.0774C142.043 27.2436 143.016 25.4319 144.034 23.6202V23.5981ZM138.763 33.7392L140.935 36.2137C140.641 36.0148 140.347 35.8381 140.052 35.6392C139.238 35.109 138.469 35.1974 137.88 35.5951C138.175 34.9764 138.469 34.3578 138.763 33.7392ZM136.885 37.716C136.908 38.18 137.043 38.6219 137.383 39.0196C141.048 43.4162 144.69 47.8349 148.356 52.2537C143.899 49.1606 139.464 46.0675 135.007 42.9522C134.894 42.8639 134.758 42.8418 134.645 42.7976C135.369 41.0964 136.116 39.3951 136.908 37.6939L136.885 37.716ZM132.948 46.8849C134.849 48.5862 136.704 50.3095 138.559 52.0328C136.455 50.8839 134.351 53.8887 136.025 55.5899C142.202 61.9308 148.265 68.3822 154.215 74.944C145.89 68.581 137.745 62.0191 129.849 55.148C130.821 52.3642 131.862 49.6025 132.948 46.8849ZM127.043 63.6541C127.45 62.3285 127.88 61.025 128.31 59.6994C134.441 66.46 140.618 73.1765 146.817 79.893C139.917 75.0103 133.174 69.9287 126.591 64.6262C126.794 64.339 126.953 64.0297 127.066 63.6541H127.043ZM119.984 64.7809C123.876 69.6857 127.767 74.6126 131.659 79.5175C122.088 72.094 112.518 64.6704 103.016 57.1585C108.627 59.7656 114.305 62.3064 119.984 64.803V64.7809ZM94.2824 52.9607C93.6489 53.6677 93.4906 54.684 94.4408 55.5236C102.789 62.9913 110.437 70.923 117.428 79.4953C102.201 67.6973 87.4045 55.3689 73.1509 42.4662C80.142 46.0675 87.2009 49.5583 94.3051 52.9607H94.2824ZM49.2817 29.8065C54.1687 32.524 59.0783 35.131 64.0105 37.7602C63.739 38.3788 63.7616 39.13 64.3725 39.7707C72.3817 48.5641 80.5944 57.1585 88.9882 65.5983C76.6804 55.9876 64.3725 46.3547 52.1098 36.6776C51.5895 36.2578 51.0012 36.1695 50.4582 36.2578C50.051 34.1147 49.6437 31.9716 49.2817 29.8286V29.8065ZM52.1777 45.0512C51.9288 43.8139 51.6573 42.5766 51.4085 41.3394C61.1371 50.2653 70.8432 59.2353 80.3908 68.3601C70.9789 60.6052 61.567 52.8281 52.1777 45.0732V45.0512ZM53.8746 53.2038C60.2774 59.611 66.7028 65.9961 73.1056 72.4033C67.0874 67.5647 61.0466 62.7483 54.9832 57.9539C54.6212 56.3632 54.2366 54.7945 53.8746 53.2038ZM56.6348 65.1123C63.6711 72.3369 70.7074 79.5616 77.8116 86.7421C71.3183 81.8594 64.8476 76.9325 58.3995 71.9835C57.8113 69.6857 57.2004 67.41 56.6348 65.1123ZM60.9788 81.55C64.3725 85.3502 67.9472 88.9736 71.635 92.4865C68.4676 90.2329 65.3227 87.9793 62.1552 85.7037C61.748 84.3339 61.386 82.9419 60.9788 81.55ZM92.4046 110.67C93.7394 111.62 95.4363 109.477 94.1693 108.416C83.1737 99.1367 72.2912 89.7468 62.7661 79.0756C73.6486 87.4933 84.4859 95.9773 95.2779 104.483C97.1332 105.942 99.6898 103.622 97.9477 101.876C88.0832 91.9341 78.1736 82.0361 68.2413 72.1602C80.1193 81.9477 91.658 92.1108 103.061 102.384C104.848 103.997 107.427 101.501 105.731 99.7774C96.7938 90.7189 87.8118 81.7047 78.8523 72.6463C89.5086 81.4838 100.165 90.3213 110.821 99.1588C93.1512 109.808 86.1375 128.3 86.0244 148.141C85.9791 147.986 85.9339 147.831 85.8208 147.699C82.0877 142.551 78.0378 137.801 73.6713 133.316C76.4089 134.774 79.0786 136.298 81.7257 137.955C83.7845 139.237 85.6624 136.055 83.6262 134.774C78.7166 131.681 73.6713 128.963 68.4449 126.511C69.2368 126.489 70.0287 126.467 70.7979 126.445C72.0423 126.4 73.2866 125.627 73.8749 124.567C76.0242 127.24 78.4903 129.626 81.4316 131.968C82.9248 133.161 85.0968 131.128 83.6035 129.847C80.4134 127.129 77.789 124.125 75.5039 120.833C79.0333 122.932 82.5628 125.053 86.0923 127.152C87.495 127.991 89.124 126.003 87.8796 124.898C81.6352 119.352 76.1147 113.321 71.092 106.803C77.3139 110.957 83.513 115.155 89.6444 119.441C91.0471 120.413 92.7213 118.248 91.477 117.121C81.9746 108.482 72.721 99.6228 63.8295 90.4097C73.3545 97.1483 82.8569 103.931 92.3367 110.714L92.4046 110.67ZM58.6032 164.38C64.4856 167.561 70.1418 171.03 75.5944 174.808C80.8659 179.249 86.2959 183.513 91.9068 187.6C91.9068 187.6 92.1105 187.755 92.201 187.821C92.8571 188.285 93.5584 188.042 94.0109 187.534C95.4137 190.936 96.9748 194.294 98.7169 197.564C85.3909 186.429 71.9065 175.493 58.5579 164.402L58.6032 164.38ZM100.504 200.591C102.201 203.53 104.011 206.402 105.979 209.164C96.7712 202.226 87.7439 195.09 78.5808 188.086C85.1873 192.461 91.7711 196.835 98.3775 201.21C99.192 201.74 100.074 201.276 100.482 200.591H100.504ZM79.0786 173.659C74.9609 170.168 70.8884 166.633 66.9743 162.921C74.2369 166.699 81.6578 170.19 89.2597 173.35C90.2326 177.128 91.4317 180.817 92.8118 184.463C88.3774 180.618 83.8072 177.017 79.0786 173.659ZM86.6126 164.004C86.8615 164.203 87.1104 164.313 87.3819 164.38C87.495 165.131 87.6308 165.882 87.7665 166.633C87.7891 166.788 87.8344 166.942 87.857 167.075C80.8886 161.065 73.8975 155.034 66.9291 149.024C73.6486 153.775 80.2098 158.746 86.6126 163.982V164.004ZM66.0241 139.568C71.7708 143.125 77.4949 146.705 83.2415 150.24C84.3275 150.902 85.7076 150.129 86.047 149.091C86.047 152.361 86.2506 155.675 86.6353 158.989C79.961 152.316 73.083 145.865 66.0241 139.59V139.568ZM69.4178 108.88C71.8387 112.017 74.4405 115.022 77.1102 117.961C75.1871 116.745 73.2414 115.508 71.3183 114.293C70.6848 112.503 70.0513 110.714 69.4404 108.902L69.4178 108.88ZM65.368 96.4854C68.6259 99.8658 71.9518 103.18 75.3455 106.45C72.4495 104.528 69.5762 102.605 66.6802 100.661C66.2277 99.2692 65.7978 97.8773 65.368 96.4854ZM61.567 126.688C61.6349 127.019 61.7933 127.35 62.1552 127.638C67.2458 132.012 71.8613 136.674 76.1826 141.645C67.9698 136.74 59.757 131.835 51.5216 126.975C54.8701 126.886 58.2185 126.776 61.5896 126.688H61.567ZM47.3586 131.902C45.5713 130.355 43.7613 128.809 41.9739 127.262C44.5758 127.196 47.2003 127.107 49.8021 127.041C49.0781 127.549 48.7387 128.61 49.5532 129.317C55.2547 134.133 60.7978 139.126 66.2503 144.186C60.0964 139.9 53.8067 135.812 47.3586 131.924V131.902ZM17.1545 166.147C22.9917 169.351 28.8063 172.598 34.5756 175.912C28.7158 172.753 22.9239 169.505 17.1545 166.147ZM13.2405 162.082C16.0686 161.331 18.9193 160.624 21.7474 159.939C21.5211 160.579 21.7021 161.375 22.4261 161.883C35.639 171.251 49.1686 180.287 63.015 188.815C46.793 179.271 30.209 170.345 13.2405 162.082ZM29.7565 162.966C37.7883 165.418 45.7975 172.488 52.3361 177.879C44.7342 173.062 37.2001 168.091 29.7565 162.966ZM63.6937 234.571C63.1507 234.019 62.6077 233.423 62.0648 232.848C64.4177 233.18 66.7481 233.909 69.0784 234.792C67.2911 234.704 65.4811 234.638 63.6937 234.549V234.571ZM57.0647 229.004C57.0647 229.004 56.9515 229.048 56.8837 229.07C57.8565 227.899 58.8294 226.75 59.8023 225.579C63.1734 227.236 66.4992 228.937 69.7346 230.815C65.7752 229.313 61.7028 228.297 57.0873 229.004H57.0647ZM62.3136 222.575C63.7842 220.829 65.2322 219.084 66.7028 217.338C74.3048 225.27 84.4859 229.733 94.1693 234.925C83.151 232.495 72.8115 226.573 62.3136 222.575ZM114.939 275.82C109.192 269.082 114.283 270.871 119.441 272.749C117.948 273.766 116.432 274.782 114.939 275.82ZM112.812 268.552C113.106 267.138 113.4 265.724 113.672 264.332C115.391 266.254 116.952 268.286 116.658 269.082C116.771 268.817 114.826 268.64 112.812 268.552ZM121.274 271.512C121.274 271.512 121.274 271.357 121.229 271.269C119.645 267.557 117.269 264.663 114.667 261.747C119.373 263.161 123.966 264.906 128.627 266.497C126.161 268.154 123.74 269.833 121.274 271.512ZM123.039 261.813C120.301 260.863 117.541 259.935 114.735 259.118C115.007 257.792 115.278 256.488 115.55 255.163C117.835 257.659 120.391 259.78 123.039 261.835V261.813ZM116.5 250.501C116.771 249.153 117.043 247.783 117.337 246.436C120.618 249.529 124.147 252.357 127.631 255.229C123.989 253.506 120.301 251.915 116.5 250.501ZM131.229 264.729C131.229 264.729 131.229 264.707 131.206 264.685C127.518 261.327 123.378 258.477 119.781 255.052C124.962 257.195 129.962 259.67 134.984 262.189C133.74 263.028 132.473 263.868 131.229 264.729ZM137.813 260.288C132.699 255.627 127.021 251.606 121.817 247.076C128.649 250.391 135.392 253.881 142.134 257.372C140.686 258.344 139.261 259.316 137.813 260.288ZM111.274 233.268C111.047 233.003 110.799 232.738 110.55 232.472C119.984 238.283 128.966 244.58 137.292 251.716C130.935 248.579 124.554 245.486 118.106 242.503C118.242 241.884 118.355 241.288 118.468 240.669C118.898 238.637 117.563 236.781 115.369 236.692C111.274 236.538 107.201 236.361 103.106 236.184C103.106 236.184 103.106 236.184 103.083 236.184C92.1783 229.976 79.5763 225.314 70.3907 216.675C84.4407 220.564 95.9793 229.954 109.418 235.544C110.98 236.184 112.405 234.571 111.251 233.224L111.274 233.268ZM102.518 229.092C91.7711 223.458 81.8162 216.454 69.9156 213.472C70.911 212.279 71.9065 211.086 72.902 209.893C82.3366 216.918 93.4001 221.757 102.518 229.092ZM79.6216 194.493C70.2097 187.401 60.7525 180.353 51.2501 173.394C43.7387 167.892 35.7521 159.784 26.0235 158.922C38.1277 156.116 50.3451 153.775 62.6304 151.764C63.0829 151.698 63.4675 151.477 63.8069 151.212C69.3047 155.962 74.7799 160.712 80.2777 165.44C72.7663 162.038 65.3906 158.37 58.1733 154.327C56.4991 153.399 54.7796 155.564 56.1144 156.934C58.2638 159.099 60.481 161.198 62.6982 163.297C58.309 160.867 53.8293 158.591 49.1686 156.514C47.8338 155.918 46.1369 157.597 47.4491 158.679C57.9697 167.296 68.3318 176.067 78.7392 184.816C65.3227 176.089 51.9062 167.362 38.4671 158.701C37.268 157.928 36.2272 159.762 37.3585 160.557C56.5896 173.88 75.7075 187.799 93.8073 202.668C89.0561 199.973 84.3049 197.233 79.599 194.471L79.6216 194.493ZM131.342 234.616C120.618 226.176 109.894 217.714 99.0789 209.362C101.409 210.578 103.717 211.793 106.07 212.986C107.111 213.516 107.948 212.942 108.197 212.146C108.672 212.765 109.102 213.383 109.577 213.98C118.898 225.69 131.545 233.953 142.79 243.586C138.989 240.559 135.188 237.554 131.319 234.616H131.342ZM196.411 280.747C201.795 287.243 197.519 294.976 189.42 298.687C181.637 302.245 159.261 304.609 164.578 289.673C164.646 289.496 164.646 289.364 164.646 289.209C168.039 289.938 171.795 289.717 175.03 289.386C181.795 288.723 191.184 285.984 196.411 280.747ZM194.985 267.822C197.022 277.389 188.583 282.426 180.098 284.15C176.682 284.835 173.039 285.321 169.532 285.277C165.234 285.232 156.682 281.985 160.505 276.483C164.917 279.952 171.139 280.659 176.659 279.687C183.809 278.45 191.614 274.406 195.008 267.822H194.985ZM184.849 258.19C184.849 258.19 184.895 258.278 184.917 258.322C185.098 258.742 185.732 258.433 185.641 258.013C185.641 257.947 185.619 257.858 185.596 257.792C187.089 256.952 188.537 256.002 189.94 254.942C196.026 263.801 186.433 272.285 177.315 274.605C173.107 275.666 167.79 275.798 164.057 273.235C159.487 270.098 158.333 263.978 161.32 259.515C161.388 259.427 161.41 259.316 161.433 259.228C170.37 262.564 178.153 261.702 184.872 258.212L184.849 258.19ZM168.333 255.737C164.917 238.46 157.745 220.829 146.908 206.247C151.003 203.088 155.415 200.702 157.79 199.973C161.931 198.713 166.32 198.426 170.686 197.984C170.98 201.011 171.297 204.016 171.659 206.954C173.582 222.795 176.818 238.372 182.768 253.196C178.56 255.384 173.786 256.422 168.356 255.737H168.333ZM184.42 252.268C180.958 235.941 177.429 219.636 176.116 202.955C175.958 201.077 175.867 199.199 175.8 197.343C177.791 196.99 179.759 196.504 181.659 195.775C190.234 192.461 198.515 183.314 193.289 174.3C192.248 172.488 189.035 173.217 189.171 175.382C189.782 185.59 183.401 189.368 175.641 191.334C175.505 177.724 176.705 164.291 176.795 150.615C176.795 148.119 172.836 147.5 172.27 150.019C169.171 163.54 169.125 178.232 170.211 192.439C167.18 192.947 164.148 193.367 161.388 193.897C154.781 195.178 148.763 197.807 143.808 202.27C139.849 197.476 135.482 193.057 130.663 189.191C128.74 187.644 126.229 190.008 127.903 191.886C132.202 196.681 136.251 201.497 140.007 206.358C135.233 212.522 130.98 222.177 139.215 226.308C140.324 226.861 141.727 225.358 140.641 224.519C135.346 220.365 137.948 214.775 142.699 209.959C152.768 223.657 160.55 238.151 165.324 255.207C164.397 254.986 163.469 254.743 162.519 254.434C161.071 253.97 160.075 254.699 159.668 255.737C150.89 243.033 138.469 234.373 127.088 224.077C113.333 211.594 102.948 196.15 97.1332 178.674C91.6353 162.126 89.1014 142.352 95.1196 125.583C102.224 105.721 122.179 97.2808 142.134 94.7621C162.813 92.1551 183.085 95.204 198.243 110.139C211.094 122.799 218.108 140.165 219.33 157.796C220.71 177.592 215.619 197.167 208.447 215.527C203.56 228.01 196.411 244.933 184.42 252.313V252.268ZM211.411 228.937C212.565 231.942 213.9 234.549 215.597 236.958C212.814 235.433 210.031 233.909 207.248 232.384C209.465 228.098 211.411 223.701 213.108 219.459C217.022 224.828 221.23 229.887 225.755 234.682C221.683 232.229 217.61 229.799 213.56 227.347C212.542 226.728 210.958 227.767 211.411 228.96V228.937ZM220.529 238.592C218.764 236.604 217.316 234.527 216.094 232.229C219.692 234.395 223.289 236.582 226.886 238.769C224.782 238.703 222.655 238.637 220.551 238.592H220.529ZM234.466 238.99C229.443 234.085 224.737 228.982 220.37 223.547C228.312 228.54 236.049 233.82 243.674 239.277C240.597 239.189 237.543 239.101 234.466 239.012V238.99ZM250.439 239.454C246.593 235.853 242.837 232.185 239.126 228.451C244.059 232.252 249.104 235.941 254.194 239.542C252.95 239.498 251.683 239.476 250.439 239.432V239.454ZM265.756 239.896C264.466 239.852 263.176 239.83 261.864 239.785C254.104 231.964 246.298 224.165 238.493 216.366C243.402 219.702 248.38 222.928 253.516 225.999C255.258 227.037 257.385 224.497 255.756 223.171C247.317 216.366 239.307 209.164 231.638 201.585C237.271 205.452 242.905 209.318 248.516 213.185C249.398 213.803 250.235 213.45 250.688 212.787C255.71 221.823 260.71 230.838 265.756 239.874V239.896ZM252.995 202.226C253.357 201.674 253.425 200.901 252.882 200.26C248.108 194.538 243.289 188.837 238.448 183.159C246.004 189.345 253.832 195.267 262.407 199.597C262.475 199.641 262.566 199.641 262.656 199.663C259.443 200.525 256.231 201.387 252.995 202.226ZM264.896 199.067C265.416 198.536 265.62 197.763 265.032 197.034C259.443 189.942 253.584 183.159 247.475 176.575C254.647 182.077 261.796 187.578 268.946 193.101C271.073 194.736 274.059 192.041 272 190.119C261.163 180.044 250.303 169.991 239.353 160.027C239.42 159.585 239.33 159.099 238.9 158.746C235.235 155.719 231.57 152.67 227.927 149.621C225.8 147.853 222.769 150.703 224.827 152.648C228.085 155.697 231.389 158.701 234.647 161.75C231.457 159.32 228.244 156.868 225.054 154.437C224.873 154.305 224.669 154.216 224.488 154.15C223.877 148.295 222.746 142.529 220.959 136.917C234.601 153.2 249.466 168.644 266.276 181.745C270.168 186.297 273.991 190.892 277.769 195.51C273.493 196.725 269.195 197.896 264.919 199.067H264.896ZM282.068 194.294C280.982 192.748 279.874 191.223 278.788 189.677C279.67 189.169 280.236 187.998 279.602 187.048C278.177 184.883 276.706 182.739 275.236 180.596C279.24 184.662 283.426 188.572 287.86 192.218C288.018 192.35 288.177 192.416 288.335 192.483C286.254 193.101 284.172 193.72 282.091 194.317L282.068 194.294ZM289.783 192.041C290.145 191.599 290.258 190.958 289.715 190.406C280.371 180.884 271.819 170.787 263.425 160.557C273.493 170.676 283.561 180.817 293.607 190.936C292.34 191.312 291.05 191.687 289.783 192.063V192.041ZM296.955 189.92C297.046 189.39 296.955 188.837 296.458 188.329C289.037 180.928 281.616 173.526 274.217 166.125C283.177 173.659 292.181 181.171 301.209 188.616C299.783 189.058 298.381 189.478 296.955 189.92ZM305.191 187.401C305.191 187.401 305.1 187.202 305.01 187.092C304.15 186.164 303.29 185.258 302.43 184.33C303.675 184.883 304.942 185.413 306.231 185.899C307.498 186.363 308.2 184.485 307.114 183.844C302.43 181.06 297.951 178.21 293.72 175.139C292.204 173.571 290.711 172.002 289.195 170.433C293.403 172.819 297.566 175.316 301.616 177.967C304.557 180.552 307.793 182.828 311.458 184.816C311.775 184.993 312.069 185.081 312.34 185.103C309.965 185.855 307.612 186.628 305.236 187.379L305.191 187.401ZM313.788 184.662C314.716 183.844 314.919 182.187 313.585 181.215C310.711 179.116 307.793 177.083 304.829 175.117C303.539 173.99 302.317 172.797 301.163 171.516C306.571 174.83 311.91 178.276 317.159 181.856C319.331 183.336 321.775 180.088 319.942 178.321C319.693 178.078 319.49 177.835 319.241 177.592C321.345 178.718 323.472 179.779 325.666 180.729C321.707 182.055 317.77 183.358 313.788 184.64V184.662ZM328.381 179.845C328.698 179.116 328.585 178.188 327.657 177.525C327.454 177.371 327.227 177.238 327.001 177.083C328.472 177.658 329.92 178.254 331.39 178.829C330.395 179.182 329.377 179.492 328.381 179.845Z" fill="#3293F9"/>
</svg>
