<svg width="194" height="190" viewBox="0 0 194 190" fill="none" xmlns="http://www.w3.org/2000/svg">
<path d="M192.307 50.2064C192.85 48.6156 192.216 46.5388 190.293 46.2074C126.899 35.1163 65.1555 18.6786 3.68393 0.0977229C2.05495 -0.38834 -0.230144 1.00356 0.0187287 2.83734C3.48032 28.7533 4.3401 54.9565 3.72923 81.0713C3.68398 82.7946 5.08667 83.59 6.44416 83.5016C7.98265 86.1971 10.4035 88.7379 12.0778 90.9914C14.3176 94.0183 16.3538 97.8184 19.4761 100.05C16.8063 100.912 14.1366 101.773 11.4669 102.657C10.9691 102.812 10.6524 103.121 10.4714 103.474C9.92838 103.585 9.4533 103.983 9.4533 104.623C9.86054 132.528 17.5304 160.786 26.2861 187.166C27.0101 189.331 29.4988 189.839 31.1957 188.425C85.0879 143.796 139.003 99.1661 192.895 54.5588C194.615 53.1227 193.823 51.1122 192.284 50.2285L192.307 50.2064ZM6.17267 6.9247C60.3138 25.4614 116.491 38.8723 172.872 49.2121C118.324 59.5078 63.4586 68.0581 9.00077 78.7736C9.52114 54.7356 8.27676 30.8743 6.15003 6.9247H6.17267ZM23.0282 97.7521C23.5712 98.3928 24.3404 98.4812 25.0192 98.2603C24.2273 98.5033 23.458 98.7463 22.6662 98.9894C22.6662 98.7905 22.6662 98.5917 22.5983 98.3708C22.3042 97.5091 21.8969 96.6695 21.3992 95.8521C21.9422 96.4707 22.4852 97.1114 23.0055 97.73L23.0282 97.7521ZM26.2861 95.2997C25.5395 94.1729 24.7703 93.0241 24.0237 91.8973C23.7522 91.4996 23.3675 91.3228 23.0055 91.3228C22.6435 90.9031 22.3042 90.4833 21.9422 90.0414C25.2454 91.8973 28.4355 93.9962 31.5125 96.2277C29.3857 96.8905 27.2363 97.5533 25.1096 98.2161C26.2409 97.7963 27.1006 96.4707 26.3087 95.2776L26.2861 95.2997ZM34.431 95.3439C34.3858 95.1009 34.2953 94.8578 34.0691 94.6369C32.7342 93.4438 23.0734 82.9051 23.0734 82.9051C25.6979 81.7342 37.4628 90.9472 40.6303 93.4217C38.5488 94.0404 36.4899 94.7032 34.431 95.3439ZM118.776 66.9313L118.64 68.2349C116.129 67.1965 113.369 67.1964 112.622 69.45C110.677 68.7651 108.889 68.5 106.536 68.5442C105.699 68.5442 105.066 69.207 105.02 70.0245C103.029 71.6373 100.948 71.4605 98.8212 69.5384C97.6674 69.0965 96.8981 70.3559 97.0338 71.2838C97.1243 71.9024 97.1922 72.3443 97.2375 72.6978C95.5406 71.8803 93.8211 71.085 92.1469 70.2454C101.378 68.6988 110.609 67.0639 119.84 65.3848C119.183 65.6278 118.822 66.2685 118.754 66.9313H118.776ZM88.7984 70.7977C88.7984 70.7977 88.8211 70.9303 88.8437 70.9966C89.3867 72.2338 89.9522 73.4711 90.4952 74.7083C88.2554 73.5816 85.9703 72.5652 83.6174 71.6594C85.3368 71.3722 87.0563 71.085 88.7984 70.7977ZM80.6309 72.9187C81.0607 74.6641 81.2643 75.5479 81.4453 76.1886C79.5675 75.1944 77.6897 74.2002 75.8344 73.1618C75.676 73.0734 75.5403 73.0292 75.3819 73.0071C77.1466 72.7199 78.9114 72.4327 80.6535 72.1455C80.563 72.3885 80.5403 72.6757 80.6082 72.9187H80.6309ZM73.9113 75.0177C74.409 76.034 74.8842 77.0724 75.3819 78.1108C72.9384 76.7851 70.495 75.4595 68.0515 74.1339C70.2008 73.8025 72.3502 73.4711 74.4996 73.1397C73.8887 73.4932 73.572 74.3106 73.934 75.0397L73.9113 75.0177ZM63.074 74.8851C63.5718 76.5642 64.2053 78.0887 64.884 79.5469C62.4179 78.155 59.884 76.9177 57.2595 75.7467C59.2052 75.4595 61.1509 75.1723 63.074 74.8851ZM52.9607 77.934C53.3453 78.3759 53.73 78.8178 54.1146 79.2597C52.6666 78.4422 51.2187 77.6026 49.748 76.8072C50.6757 76.6747 51.6032 76.5421 52.5308 76.4096C52.4856 76.9619 52.5987 77.5142 52.9607 77.934ZM46.2638 78.4643C47.5987 80.3422 48.9335 82.2202 50.2684 84.0982C47.2593 82.2202 44.3634 80.1876 41.49 77.9561C43.0059 77.7573 44.5217 77.5363 46.0375 77.3375C45.947 77.691 46.015 78.0887 46.2865 78.4643H46.2638ZM37.6438 78.4643C37.689 78.5747 37.7116 78.6852 37.7795 78.8178C38.7524 80.3864 39.7705 81.8004 40.8112 83.1482C38.5035 81.7562 36.1731 80.3643 33.8654 78.9503C35.1324 78.7957 36.3768 78.6189 37.6438 78.4643ZM31.241 79.7457C31.7614 80.6295 34.1143 84.761 36.241 87.6553C32.2138 85.225 25.6978 81.8888 22.6209 80.3643C25.449 80.0329 28.2771 79.6794 31.1278 79.3259C31.1278 79.4585 31.1731 79.6132 31.2636 79.7457H31.241ZM42.7117 92.8031C42.7117 92.8031 42.6665 92.6705 42.6212 92.6264C40.5624 90.0635 38.2773 87.4122 36.6709 84.5401C36.0374 83.4354 35.4265 82.8167 35.0872 82.5295C35.3587 82.6842 35.7885 82.883 36.5125 83.1482C40.6755 84.6947 45.0647 88.1413 48.9109 90.9472C46.8521 91.5659 44.7932 92.1845 42.7343 92.8031H42.7117ZM52.4404 89.8867C52.4404 89.8867 52.4404 89.8647 52.4178 89.8426C50.472 88.4727 48.843 87.1692 47.3724 85.7994C49.3408 87.1029 51.3318 88.3623 53.368 89.5995C53.0739 89.6879 52.7571 89.7763 52.463 89.8646L52.4404 89.8867ZM57.4631 88.3844C56.1735 86.5285 54.8612 84.6726 53.549 82.8167C56.0377 84.2528 58.4812 85.7552 60.8794 87.368C59.7482 87.6995 58.617 88.053 57.4631 88.3844ZM64.6351 86.2413C64.6351 85.8436 64.4994 85.4238 64.2052 85.0924C63.3455 84.0982 62.5084 83.104 61.6486 82.1097C63.5717 83.1261 65.4496 84.2528 67.3048 85.4459C66.4225 85.711 65.5175 85.9761 64.6351 86.2413ZM72.1918 83.9877C70.4723 82.0656 69.047 79.9666 67.9157 77.7131C71.038 79.3038 74.1602 80.8725 77.2824 82.4632C75.5855 82.9714 73.8887 83.4796 72.1692 83.9877H72.1918ZM79.839 80.7841C79.3412 79.7678 78.8435 78.7515 78.3457 77.7573C80.0426 78.7073 81.7395 79.6352 83.4137 80.6074C82.2825 80.9609 81.1286 81.3144 79.9974 81.6458C80.02 81.3807 79.9974 81.0713 79.8616 80.7841H79.839ZM86.0382 78.9282C83.6626 74.4432 88.7305 76.8072 91.2871 78.1771C89.5903 78.7073 87.8935 79.2155 86.174 79.7457C86.1966 79.4806 86.174 79.1934 86.0156 78.9282H86.0382ZM94.5904 77.1828C94.5904 77.1828 94.5904 77.1386 94.5677 77.1166C91.1288 70.3338 94.5678 73.7583 98.1877 76.056C97.4185 76.2991 96.6492 76.5421 95.88 76.7851C95.4501 76.9177 95.0203 77.0503 94.5904 77.1828ZM101.242 75.0839C101.242 75.0839 101.197 74.9293 101.174 74.863C101.966 73.4711 103.029 73.228 104.387 74.0897C103.346 74.4211 102.305 74.7525 101.265 75.0839H101.242ZM135.541 62.5347C138.256 62.0265 140.971 61.5405 143.663 61.0323C141.016 61.916 138.392 62.7998 135.745 63.6835C135.745 63.5289 135.745 63.4184 135.745 63.2417C135.722 62.9766 135.632 62.7556 135.519 62.5347H135.541ZM10.0415 81.8225C13.0732 81.4911 16.0823 81.1376 19.1141 80.7841C19.1367 80.8946 19.1819 81.0271 19.2498 81.1376C20.6752 83.4133 22.191 85.5343 23.7748 87.589C20.9693 85.8657 18.1186 84.1866 15.1774 82.5516C13.8651 81.8225 12.0551 82.9935 12.1004 84.3191C11.4216 83.4575 10.7429 82.5958 9.99627 81.8225H10.0415ZM30.5848 181.399C22.734 156.566 18.1186 131.313 12.2135 106.015C12.2588 106.015 12.304 106.015 12.3493 106.015C40.9696 99.1882 69.0922 90.1519 97.1469 81.4027C125.134 72.6757 153.732 64.501 181.017 53.8739C181.062 53.8739 181.085 53.8297 181.13 53.8076C182.669 53.5204 184.207 53.2111 185.746 52.9239C134.025 95.7416 82.2825 138.581 30.5622 181.399H30.5848Z" fill="#3293F9"/>
</svg>
