<svg width="24" height="24" viewBox="0 0 24 24" fill="none" xmlns="http://www.w3.org/2000/svg">
<path d="M11.3718 12.6283H6.12825C5.95025 12.6283 5.80108 12.5677 5.68075 12.4465C5.56025 12.3255 5.5 12.1756 5.5 11.9968C5.5 11.8178 5.56025 11.6688 5.68075 11.55C5.80108 11.4312 5.95025 11.3718 6.12825 11.3718H11.3718V6.12825C11.3718 5.95025 11.4323 5.80108 11.5535 5.68075C11.6745 5.56025 11.8244 5.5 12.0033 5.5C12.1823 5.5 12.3312 5.56025 12.45 5.68075C12.5688 5.80108 12.6283 5.95025 12.6283 6.12825V11.3718H17.8718C18.0498 11.3718 18.1989 11.4323 18.3193 11.5535C18.4398 11.6745 18.5 11.8244 18.5 12.0033C18.5 12.1823 18.4398 12.3312 18.3193 12.45C18.1989 12.5688 18.0498 12.6283 17.8718 12.6283H12.6283V17.8718C12.6283 18.0498 12.5677 18.1989 12.4465 18.3193C12.3255 18.4398 12.1756 18.5 11.9968 18.5C11.8178 18.5 11.6688 18.4398 11.55 18.3193C11.4312 18.1989 11.3718 18.0498 11.3718 17.8718V12.6283Z" fill="black"/>
</svg>
