<svg width="30" height="30" viewBox="0 0 30 30" fill="none" xmlns="http://www.w3.org/2000/svg">
<path d="M25.8652 23.875C25.7627 24.0352 25.5925 24.1261 25.3546 24.1478C25.1165 24.1695 24.9028 24.0857 24.7137 23.8966L22.2115 21.3941H9.99992C9.3918 21.3941 8.87117 21.1775 8.43805 20.7444C8.00492 20.3115 7.78836 19.7908 7.78836 19.1825V18.4134H21.3943C22.0155 18.4134 22.5474 18.1922 22.9899 17.7497C23.4324 17.3072 23.6537 16.7752 23.6537 16.1537V7.5H24.423C25.0312 7.5 25.5518 7.71656 25.9849 8.14969C26.418 8.58281 26.6346 9.10344 26.6346 9.71156V23.0866C26.6346 23.3172 26.5576 23.5062 26.4037 23.6537C26.2499 23.8012 26.0704 23.875 25.8652 23.875ZM5.24023 15.8078L7.00961 14.0384H18.8943C19.0064 14.0384 19.0985 14.0024 19.1705 13.9303C19.2426 13.8582 19.2787 13.766 19.2787 13.6537V5.38469C19.2787 5.2724 19.2426 5.18021 19.1705 5.10813C19.0985 5.03604 19.0064 5 18.8943 5H5.62492C5.51284 5 5.42065 5.03604 5.34836 5.10813C5.27628 5.18021 5.24023 5.2724 5.24023 5.38469V15.8078ZM4.49117 18.7547C4.20055 18.7547 3.94023 18.649 3.71023 18.4375C3.48023 18.2258 3.36523 17.9468 3.36523 17.6003V5.38469C3.36523 4.76323 3.58648 4.23125 4.02898 3.78875C4.47148 3.34625 5.00346 3.125 5.62492 3.125H18.8943C19.5155 3.125 20.0474 3.34625 20.4899 3.78875C20.9324 4.23125 21.1537 4.76323 21.1537 5.38469V13.6537C21.1537 14.2752 20.9324 14.8072 20.4899 15.2497C20.0474 15.6922 19.5155 15.9134 18.8943 15.9134H7.78836L5.28617 18.4159C5.16909 18.5328 5.04367 18.6185 4.90992 18.6731C4.77596 18.7275 4.63638 18.7547 4.49117 18.7547Z" fill="black"/>
</svg>
