<svg width="24" height="24" viewBox="0 0 24 24" fill="none" xmlns="http://www.w3.org/2000/svg">
<path d="M9.8205 2.5065C9.6425 2.5065 9.49333 2.44592 9.373 2.32475C9.2525 2.20375 9.19225 2.05375 9.19225 1.87475C9.19225 1.69592 9.2525 1.54708 9.373 1.42825C9.49333 1.30942 9.6425 1.25 9.8205 1.25H14.1795C14.3575 1.25 14.5067 1.3105 14.627 1.4315C14.7475 1.55267 14.8077 1.70267 14.8077 1.8815C14.8077 2.0605 14.7475 2.20942 14.627 2.32825C14.5067 2.44708 14.3575 2.5065 14.1795 2.5065H9.8205ZM12.0033 13.6488C12.1823 13.6488 12.3312 13.5885 12.45 13.468C12.5688 13.3477 12.6283 13.1985 12.6283 13.0205V8.78325C12.6283 8.60525 12.5677 8.45608 12.4465 8.33575C12.3255 8.21542 12.1756 8.15525 11.9967 8.15525C11.8177 8.15525 11.6688 8.21542 11.55 8.33575C11.4312 8.45608 11.3717 8.60525 11.3717 8.78325V13.0205C11.3717 13.1985 11.4323 13.3477 11.5535 13.468C11.6745 13.5885 11.8244 13.6488 12.0033 13.6488ZM12 21.4897C10.8338 21.4897 9.73458 21.2656 8.70225 20.8173C7.66992 20.3689 6.76792 19.7599 5.99625 18.9902C5.22442 18.2208 4.61542 17.3188 4.16925 16.2843C3.72308 15.2499 3.5 14.1507 3.5 12.9865C3.5 11.8225 3.72308 10.7243 4.16925 9.692C4.61542 8.65967 5.22442 7.75767 5.99625 6.986C6.76792 6.21417 7.66992 5.60517 8.70225 5.159C9.73458 4.71283 10.8338 4.48975 12 4.48975C13.044 4.48975 14.0377 4.66925 14.981 5.02825C15.9245 5.38725 16.7778 5.89242 17.541 6.54375L18.2807 5.7975C18.4012 5.677 18.5471 5.61517 18.7182 5.612C18.8894 5.60867 19.0384 5.6705 19.1652 5.7975C19.2922 5.92433 19.3558 6.07175 19.3558 6.23975C19.3558 6.40775 19.2922 6.55517 19.1652 6.682L18.4193 7.42825C19.0389 8.13758 19.5406 8.95608 19.9242 9.88375C20.3081 10.8112 20.5 11.8466 20.5 12.9897C20.5 14.1518 20.2769 15.2499 19.8307 16.2843C19.3846 17.3188 18.7756 18.2208 18.0038 18.9902C17.2321 19.7599 16.3301 20.3689 15.2977 20.8173C14.2654 21.2656 13.1662 21.4897 12 21.4897ZM11.999 20.2333C14.0073 20.2333 15.7168 19.5282 17.1275 18.1182C18.5382 16.7081 19.2435 14.9989 19.2435 12.9908C19.2435 10.9824 18.5385 9.27292 17.1285 7.86225C15.7183 6.45158 14.0092 5.74625 12.001 5.74625C9.99267 5.74625 8.28317 6.45125 6.8725 7.86125C5.46183 9.27142 4.7565 10.9806 4.7565 12.9887C4.7565 14.9971 5.4615 16.7066 6.8715 18.1173C8.28167 19.5279 9.99083 20.2333 11.999 20.2333Z" fill="black"/>
</svg>
