<svg width="35" height="35" viewBox="0 0 35 35" fill="none" xmlns="http://www.w3.org/2000/svg">
<rect width="35" height="35" rx="8" fill="#F5F5F5"/>
<path d="M17.497 21.0603C17.3922 21.0603 17.2958 21.0417 17.2077 21.0045C17.1198 20.9673 17.0349 20.9079 16.9533 20.8263L13.7578 17.6308C13.6337 17.5043 13.5727 17.3561 13.5747 17.1863C13.5766 17.0164 13.6398 16.8663 13.7643 16.736C13.8971 16.6057 14.0482 16.5407 14.2175 16.541C14.3868 16.5415 14.537 16.6048 14.668 16.7308L16.8717 18.945V10.6283C16.8717 10.4499 16.9322 10.3007 17.053 10.1805C17.1738 10.0602 17.3238 10 17.503 10C17.6822 10 17.8312 10.0602 17.95 10.1805C18.0688 10.3007 18.1283 10.4499 18.1283 10.6283V18.945L20.3422 16.7308C20.4639 16.6069 20.6101 16.547 20.7807 16.551C20.9513 16.555 21.1038 16.6201 21.2385 16.7463C21.3607 16.8774 21.4217 17.0278 21.4215 17.1975C21.4212 17.3672 21.358 17.515 21.232 17.641L18.047 20.826C17.9652 20.9078 17.8793 20.9673 17.7893 21.0045C17.6991 21.0417 17.6017 21.0603 17.497 21.0603ZM11.5643 25C11.1344 25 10.7663 24.8468 10.4597 24.5402C10.1532 24.2337 10 23.8656 10 23.4358V21.0717C10 20.8934 10.0604 20.7442 10.1813 20.624C10.3021 20.5037 10.4521 20.4435 10.6313 20.4435C10.8104 20.4435 10.9594 20.5037 11.0783 20.624C11.1971 20.7442 11.2565 20.8934 11.2565 21.0717V23.4358C11.2565 23.5127 11.2885 23.5833 11.3525 23.6475C11.4167 23.7115 11.4873 23.7435 11.5643 23.7435H23.4358C23.5127 23.7435 23.5833 23.7115 23.6475 23.6475C23.7115 23.5833 23.7435 23.5127 23.7435 23.4358V21.0717C23.7435 20.8934 23.8039 20.7442 23.9248 20.624C24.0456 20.5037 24.1956 20.4435 24.3748 20.4435C24.5539 20.4435 24.7029 20.5037 24.8217 20.624C24.9406 20.7442 25 20.8934 25 21.0717V23.4358C25 23.8656 24.8468 24.2337 24.5402 24.5402C24.2337 24.8468 23.8656 25 23.4358 25H11.5643Z" fill="black"/>
</svg>
