<svg width="18" height="18" viewBox="0 0 18 18" fill="none" xmlns="http://www.w3.org/2000/svg">
<rect y="0.25" width="17.5" height="17.5" rx="4" fill="#F5F5F5"/>
<path d="M8.7485 10.7801C8.69608 10.7801 8.64788 10.7708 8.60387 10.7523C8.55988 10.7337 8.51746 10.704 8.47663 10.6631L6.87888 9.06538C6.81687 9.00213 6.78637 8.92804 6.78737 8.84313C6.78829 8.75821 6.81988 8.68317 6.88213 8.618C6.94854 8.55283 7.02408 8.52033 7.10875 8.5205C7.19342 8.52075 7.2685 8.55238 7.334 8.61538L8.43587 9.7225V5.56413C8.43587 5.47496 8.46608 5.40033 8.5265 5.34025C8.58692 5.28008 8.66192 5.25 8.7515 5.25C8.84108 5.25 8.91558 5.28008 8.975 5.34025C9.03442 5.40033 9.06413 5.47496 9.06413 5.56413V9.7225L10.1711 8.61538C10.232 8.55346 10.305 8.5235 10.3904 8.5255C10.4756 8.5275 10.5519 8.56004 10.6192 8.62313C10.6803 8.68871 10.7108 8.76392 10.7108 8.84875C10.7106 8.93358 10.679 9.0075 10.616 9.0705L9.0235 10.663C8.98258 10.7039 8.93963 10.7337 8.89463 10.7523C8.84954 10.7708 8.80083 10.7801 8.7485 10.7801ZM5.78213 12.75C5.56721 12.75 5.38313 12.6734 5.22987 12.5201C5.07662 12.3669 5 12.1828 5 11.9679V10.7859C5 10.6967 5.03021 10.6221 5.09063 10.562C5.15104 10.5018 5.22604 10.4717 5.31563 10.4717C5.40521 10.4717 5.47971 10.5018 5.53913 10.562C5.59854 10.6221 5.62825 10.6967 5.62825 10.7859V11.9679C5.62825 12.0064 5.64425 12.0417 5.67625 12.0738C5.70833 12.1058 5.74363 12.1217 5.78213 12.1217H11.7179C11.7564 12.1217 11.7917 12.1058 11.8238 12.0738C11.8558 12.0417 11.8717 12.0064 11.8717 11.9679V10.7859C11.8717 10.6967 11.902 10.6221 11.9624 10.562C12.0228 10.5018 12.0978 10.4717 12.1874 10.4717C12.277 10.4717 12.3515 10.5018 12.4109 10.562C12.4703 10.6221 12.5 10.6967 12.5 10.7859V11.9679C12.5 12.1828 12.4234 12.3669 12.2701 12.5201C12.1169 12.6734 11.9328 12.75 11.7179 12.75H5.78213Z" fill="black"/>
</svg>
