<svg width="41" height="41" viewBox="0 0 41 41" fill="none" xmlns="http://www.w3.org/2000/svg">
<path d="M16.5978 20.0353C16.3749 20.0353 16.1883 19.9598 16.0381 19.8088C15.8877 19.6577 15.8125 19.4702 15.8125 19.2463C15.8125 19.0223 15.8877 18.836 16.0381 18.6875C16.1883 18.539 16.3749 18.4647 16.5978 18.4647H24.4022C24.6251 18.4647 24.8117 18.5402 24.9619 18.6913C25.1123 18.8423 25.1875 19.0298 25.1875 19.2538C25.1875 19.4777 25.1123 19.664 24.9619 19.8125C24.8117 19.961 24.6251 20.0353 24.4022 20.0353H16.5978ZM16.5978 15.0353C16.3749 15.0353 16.1883 14.9598 16.0381 14.8088C15.8877 14.6577 15.8125 14.4702 15.8125 14.2463C15.8125 14.0223 15.8877 13.836 16.0381 13.6875C16.1883 13.539 16.3749 13.4647 16.5978 13.4647H24.4022C24.6251 13.4647 24.8117 13.5402 24.9619 13.6913C25.1123 13.8423 25.1875 14.0298 25.1875 14.2538C25.1875 14.4777 25.1123 14.664 24.9619 14.8125C24.8117 14.961 24.6251 15.0353 24.4022 15.0353H16.5978ZM12.6956 23.4647H22.375C22.9052 23.4647 23.3955 23.5815 23.8459 23.815C24.2964 24.0483 24.6824 24.3718 25.0041 24.7853L28.3044 29.085V10.5803C28.3044 10.468 28.2683 10.3758 28.1963 10.3037C28.1242 10.2317 28.032 10.1956 27.9197 10.1956H13.0803C12.968 10.1956 12.8758 10.2317 12.8038 10.3037C12.7317 10.3758 12.6956 10.468 12.6956 10.5803V23.4647ZM13.0803 30.8044H27.6322L23.7653 25.7459C23.5972 25.5239 23.3925 25.3499 23.1513 25.2241C22.91 25.0982 22.6512 25.0353 22.375 25.0353H12.6956V30.4197C12.6956 30.532 12.7317 30.6242 12.8038 30.6963C12.8758 30.7683 12.968 30.8044 13.0803 30.8044ZM27.9197 32.375H13.0803C12.543 32.375 12.0828 32.1834 11.6997 31.8003C11.3166 31.4172 11.125 30.957 11.125 30.4197V10.5803C11.125 10.043 11.3166 9.58281 11.6997 9.19969C12.0828 8.81656 12.543 8.625 13.0803 8.625H27.9197C28.457 8.625 28.9172 8.81656 29.3003 9.19969C29.6834 9.58281 29.875 10.043 29.875 10.5803V30.4197C29.875 30.957 29.6834 31.4172 29.3003 31.8003C28.9172 32.1834 28.457 32.375 27.9197 32.375Z" fill="#6D3CE4"/>
</svg>
