<svg width="31" height="30" viewBox="0 0 31 30" fill="none" xmlns="http://www.w3.org/2000/svg">
<path d="M11.4728 14.4103C11.2499 14.4103 11.0633 14.3348 10.9131 14.1838C10.7627 14.0327 10.6875 13.8452 10.6875 13.6213C10.6875 13.3973 10.7627 13.211 10.9131 13.0625C11.0633 12.914 11.2499 12.8397 11.4728 12.8397H19.2772C19.5001 12.8397 19.6867 12.9152 19.8369 13.0663C19.9873 13.2173 20.0625 13.4048 20.0625 13.6288C20.0625 13.8527 19.9873 14.039 19.8369 14.1875C19.6867 14.336 19.5001 14.4103 19.2772 14.4103H11.4728ZM11.4728 9.41031C11.2499 9.41031 11.0633 9.33479 10.9131 9.18375C10.7627 9.03271 10.6875 8.84521 10.6875 8.62125C10.6875 8.39729 10.7627 8.21104 10.9131 8.0625C11.0633 7.91396 11.2499 7.83969 11.4728 7.83969H19.2772C19.5001 7.83969 19.6867 7.91521 19.8369 8.06625C19.9873 8.21729 20.0625 8.40479 20.0625 8.62875C20.0625 8.85271 19.9873 9.03896 19.8369 9.1875C19.6867 9.33604 19.5001 9.41031 19.2772 9.41031H11.4728ZM7.57062 17.8397H17.25C17.7802 17.8397 18.2705 17.9565 18.7209 18.19C19.1714 18.4233 19.5574 18.7468 19.8791 19.1603L23.1794 23.46V4.95531C23.1794 4.84302 23.1433 4.75083 23.0713 4.67875C22.9992 4.60667 22.907 4.57063 22.7947 4.57063H7.95531C7.84302 4.57063 7.75083 4.60667 7.67875 4.67875C7.60667 4.75083 7.57062 4.84302 7.57062 4.95531V17.8397ZM7.95531 25.1794H22.5072L18.6403 20.1209C18.4722 19.8989 18.2675 19.7249 18.0263 19.5991C17.785 19.4732 17.5262 19.4103 17.25 19.4103H7.57062V24.7947C7.57062 24.907 7.60667 24.9992 7.67875 25.0713C7.75083 25.1433 7.84302 25.1794 7.95531 25.1794ZM22.7947 26.75H7.95531C7.41802 26.75 6.95781 26.5584 6.57469 26.1753C6.19156 25.7922 6 25.332 6 24.7947V4.95531C6 4.41802 6.19156 3.95781 6.57469 3.57469C6.95781 3.19156 7.41802 3 7.95531 3H22.7947C23.332 3 23.7922 3.19156 24.1753 3.57469C24.5584 3.95781 24.75 4.41802 24.75 4.95531V24.7947C24.75 25.332 24.5584 25.7922 24.1753 26.1753C23.7922 26.5584 23.332 26.75 22.7947 26.75Z" fill="black"/>
</svg>
