<svg width="24" height="24" viewBox="0 0 24 24" fill="none" xmlns="http://www.w3.org/2000/svg">
<path d="M8.95457 11.2469C8.78059 11.2469 8.63498 11.188 8.51774 11.0701C8.40034 10.9522 8.34164 10.8059 8.34164 10.6311C8.34164 10.4563 8.40034 10.3109 8.51774 10.195C8.63498 10.079 8.78059 10.0211 8.95457 10.0211H15.0458C15.2198 10.0211 15.3654 10.08 15.4826 10.1979C15.6 10.3158 15.6587 10.4621 15.6587 10.6369C15.6587 10.8117 15.6 10.9571 15.4826 11.073C15.3654 11.189 15.2198 11.2469 15.0458 11.2469H8.95457ZM8.95457 7.34448C8.78059 7.34448 8.63498 7.28554 8.51774 7.16765C8.40034 7.04976 8.34164 6.90342 8.34164 6.72863C8.34164 6.55383 8.40034 6.40846 8.51774 6.29253C8.63498 6.17659 8.78059 6.11863 8.95457 6.11863H15.0458C15.2198 6.11863 15.3654 6.17757 15.4826 6.29545C15.6 6.41334 15.6587 6.55968 15.6587 6.73448C15.6587 6.90928 15.6 7.05464 15.4826 7.17058C15.3654 7.28651 15.2198 7.34448 15.0458 7.34448H8.95457ZM5.90896 13.9235H13.4636C13.8774 13.9235 14.2601 14.0146 14.6116 14.1969C14.9632 14.379 15.2645 14.6315 15.5155 14.9542L18.0914 18.3101V3.86741C18.0914 3.77976 18.0633 3.70781 18.007 3.65155C17.9507 3.59529 17.8788 3.56716 17.7912 3.56716H6.2092C6.12156 3.56716 6.04961 3.59529 5.99335 3.65155C5.93709 3.70781 5.90896 3.77976 5.90896 3.86741V13.9235ZM6.2092 19.652H17.5668L14.5487 15.704C14.4175 15.5307 14.2577 15.3949 14.0694 15.2967C13.8812 15.1985 13.6792 15.1494 13.4636 15.1494H5.90896V19.3518C5.90896 19.4394 5.93709 19.5114 5.99335 19.5677C6.04961 19.6239 6.12156 19.652 6.2092 19.652ZM17.7912 20.8779H6.2092C5.78985 20.8779 5.43067 20.7284 5.13164 20.4294C4.83262 20.1303 4.68311 19.7711 4.68311 19.3518V3.86741C4.68311 3.44806 4.83262 3.08887 5.13164 2.78985C5.43067 2.49082 5.78985 2.34131 6.2092 2.34131H17.7912C18.2105 2.34131 18.5697 2.49082 18.8687 2.78985C19.1677 3.08887 19.3173 3.44806 19.3173 3.86741V19.3518C19.3173 19.7711 19.1677 20.1303 18.8687 20.4294C18.5697 20.7284 18.2105 20.8779 17.7912 20.8779Z" fill="black"/>
</svg>
