<svg width="24" height="24" viewBox="0 0 24 24" fill="none" xmlns="http://www.w3.org/2000/svg">
<path d="M8.95408 11.2469C8.7801 11.2469 8.63449 11.188 8.51725 11.0701C8.39985 10.9522 8.34115 10.8059 8.34115 10.6311C8.34115 10.4563 8.39985 10.3109 8.51725 10.195C8.63449 10.079 8.7801 10.0211 8.95408 10.0211H15.0453C15.2193 10.0211 15.3649 10.08 15.4821 10.1979C15.5995 10.3158 15.6582 10.4621 15.6582 10.6369C15.6582 10.8117 15.5995 10.9571 15.4821 11.073C15.3649 11.189 15.2193 11.2469 15.0453 11.2469H8.95408ZM8.95408 7.34448C8.7801 7.34448 8.63449 7.28554 8.51725 7.16765C8.39985 7.04976 8.34115 6.90342 8.34115 6.72863C8.34115 6.55383 8.39985 6.40846 8.51725 6.29253C8.63449 6.17659 8.7801 6.11863 8.95408 6.11863H15.0453C15.2193 6.11863 15.3649 6.17757 15.4821 6.29545C15.5995 6.41334 15.6582 6.55968 15.6582 6.73448C15.6582 6.90928 15.5995 7.05464 15.4821 7.17058C15.3649 7.28651 15.2193 7.34448 15.0453 7.34448H8.95408ZM5.90847 13.9235H13.4631C13.8769 13.9235 14.2596 14.0146 14.6112 14.1969C14.9627 14.379 15.264 14.6315 15.5151 14.9542L18.0909 18.3101V3.86741C18.0909 3.77976 18.0628 3.70781 18.0065 3.65155C17.9503 3.59529 17.8783 3.56716 17.7907 3.56716H6.20871C6.12107 3.56716 6.04912 3.59529 5.99286 3.65155C5.9366 3.70781 5.90847 3.77976 5.90847 3.86741V13.9235ZM6.20871 19.652H17.5663L14.5482 15.704C14.417 15.5307 14.2573 15.3949 14.069 15.2967C13.8807 15.1985 13.6787 15.1494 13.4631 15.1494H5.90847V19.3518C5.90847 19.4394 5.9366 19.5114 5.99286 19.5677C6.04912 19.6239 6.12107 19.652 6.20871 19.652ZM17.7907 20.8779H6.20871C5.78937 20.8779 5.43018 20.7284 5.13115 20.4294C4.83213 20.1303 4.68262 19.7711 4.68262 19.3518V3.86741C4.68262 3.44806 4.83213 3.08887 5.13115 2.78985C5.43018 2.49082 5.78937 2.34131 6.20871 2.34131H17.7907C18.21 2.34131 18.5692 2.49082 18.8682 2.78985C19.1673 3.08887 19.3168 3.44806 19.3168 3.86741V19.3518C19.3168 19.7711 19.1673 20.1303 18.8682 20.4294C18.5692 20.7284 18.21 20.8779 17.7907 20.8779Z" fill="black"/>
</svg>
