<svg width="24" height="23" viewBox="0 0 24 23" fill="none" xmlns="http://www.w3.org/2000/svg">
<path d="M4.88659 21.1283C4.44881 21.1283 4.07197 20.9703 3.75607 20.6544C3.44018 20.3386 3.28223 19.9617 3.28223 19.5239V5.29675C3.28223 4.85898 3.44018 4.48214 3.75607 4.16624C4.07197 3.85034 4.44881 3.6924 4.88659 3.6924H9.91223C9.91171 3.13445 10.1133 2.65308 10.5168 2.24829C10.9206 1.84351 11.4167 1.64111 12.005 1.64111C12.5936 1.64111 13.0897 1.84351 13.4933 2.24829C13.897 2.65308 14.0953 3.13445 14.0881 3.6924H19.1138C19.5515 3.6924 19.9284 3.85034 20.2443 4.16624C20.5602 4.48214 20.7181 4.85898 20.7181 5.29675V19.5239C20.7181 19.9617 20.5602 20.3386 20.2443 20.6544C19.9284 20.9703 19.5515 21.1283 19.1138 21.1283H4.88659ZM4.88659 19.8396H19.1138C19.1927 19.8396 19.2651 19.8068 19.3309 19.7411C19.3966 19.6753 19.4294 19.6029 19.4294 19.5239V5.29675C19.4294 5.21778 19.3966 5.14539 19.3309 5.07957C19.2651 5.01393 19.1927 4.98111 19.1138 4.98111H4.88659C4.80761 4.98111 4.73522 5.01393 4.66941 5.07957C4.60377 5.14539 4.57094 5.21778 4.57094 5.29675V19.5239C4.57094 19.6029 4.60377 19.6753 4.66941 19.7411C4.73522 19.8068 4.80761 19.8396 4.88659 19.8396ZM7.77274 17.1637H13.064C13.2466 17.1637 13.3996 17.1016 13.523 16.9775C13.6464 16.8534 13.7081 16.6996 13.7081 16.516C13.7081 16.3324 13.6464 16.1797 13.523 16.058C13.3996 15.9362 13.2466 15.8752 13.064 15.8752H7.77274C7.59018 15.8752 7.4371 15.9373 7.31351 16.0614C7.19009 16.1855 7.12838 16.3393 7.12838 16.5229C7.12838 16.7065 7.19009 16.8592 7.31351 16.9811C7.4371 17.1028 7.59018 17.1637 7.77274 17.1637ZM7.77274 13.0547H16.2276C16.4102 13.0547 16.5633 12.9926 16.6868 12.8683C16.8103 12.7442 16.872 12.5904 16.872 12.407C16.872 12.2234 16.8103 12.0707 16.6868 11.9488C16.5633 11.8269 16.4102 11.766 16.2276 11.766H7.77274C7.59018 11.766 7.4371 11.8281 7.31351 11.9524C7.19009 12.0765 7.12838 12.2303 7.12838 12.4137C7.12838 12.5973 7.19009 12.75 7.31351 12.8719C7.4371 12.9938 7.59018 13.0547 7.77274 13.0547ZM7.77274 8.94547H16.2276C16.4102 8.94547 16.5633 8.88342 16.6868 8.75932C16.8103 8.63522 16.872 8.48137 16.872 8.29778C16.872 8.11419 16.8103 7.96146 16.6868 7.83958C16.5633 7.71787 16.4102 7.65701 16.2276 7.65701H7.77274C7.59018 7.65701 7.4371 7.71906 7.31351 7.84317C7.19009 7.96727 7.12838 8.12111 7.12838 8.3047C7.12838 8.48829 7.19009 8.64094 7.31351 8.76265C7.4371 8.88453 7.59018 8.94547 7.77274 8.94547ZM11.9989 4.47342C12.2271 4.47342 12.4235 4.39265 12.5881 4.23111C12.7527 4.06958 12.835 3.87317 12.835 3.64188C12.835 3.41043 12.7527 3.21393 12.5881 3.05239C12.4235 2.89086 12.2271 2.81009 11.9989 2.81009C11.7705 2.81009 11.5756 2.89086 11.414 3.05239C11.2525 3.21393 11.1717 3.41043 11.1717 3.64188C11.1717 3.87317 11.2525 4.06958 11.414 4.23111C11.5756 4.39265 11.7705 4.47342 11.9989 4.47342Z" fill="black"/>
</svg>
