<svg width="40" height="40" viewBox="0 0 40 40" fill="none" xmlns="http://www.w3.org/2000/svg">
<path d="M20 21.4906L13.7158 27.7748C13.5041 27.9862 13.2584 28.0892 12.9787 28.0839C12.6987 28.0787 12.4529 27.9703 12.2412 27.7589C12.0298 27.5473 11.9241 27.2988 11.9241 27.0135C11.9241 26.7283 12.0298 26.4799 12.2412 26.2685L18.5095 20.0002L12.2254 13.7577C12.014 13.546 11.9109 13.2976 11.9162 13.0123C11.9215 12.7273 12.0298 12.4789 12.2412 12.2673C12.4529 12.0559 12.7013 11.9502 12.9866 11.9502C13.2719 11.9502 13.5202 12.0559 13.7316 12.2673L20 18.5514L26.2425 12.2673C26.4427 12.0559 26.6857 11.9502 26.9712 11.9502C27.2568 11.9502 27.5054 12.0559 27.717 12.2673C27.927 12.4845 28.032 12.7344 28.032 13.0169C28.032 13.2991 27.927 13.546 27.717 13.7577L21.4487 20.0002L27.7329 26.2844C27.9443 26.496 28.05 26.7417 28.05 27.0214C28.05 27.3014 27.9443 27.5473 27.7329 27.7589C27.5157 27.9689 27.2658 28.0739 26.9833 28.0739C26.7011 28.0739 26.4541 27.9689 26.2425 27.7589L20 21.4906Z" fill="white"/>
</svg>
