<svg width="34" height="22" viewBox="0 0 34 22" fill="none" xmlns="http://www.w3.org/2000/svg">
<path d="M5.56425 19C5.13442 19 4.76625 18.8468 4.45975 18.5403C4.15325 18.2338 4 17.8656 4 17.4358V3.56425C4 3.13442 4.15325 2.76625 4.45975 2.45975C4.76625 2.15325 5.13442 2 5.56425 2L28.4357 2.00146C28.8656 2.00146 29.2338 2.15472 29.5403 2.46122C29.8468 2.76772 30 3.13588 30 3.56572V17.4372C30 17.867 29.8468 18.2352 29.5403 18.5417C29.2338 18.8482 28.8656 19.0015 28.4357 19.0015L5.56425 19ZM5.56425 17.7435L28.4357 17.745C28.5127 17.745 28.5833 17.713 28.6475 17.649C28.7115 17.5848 28.7435 17.5142 28.7435 17.4372V3.56572C28.7435 3.48872 28.7115 3.41813 28.6475 3.35396C28.5833 3.28996 28.5127 3.25797 28.4357 3.25797L5.56425 3.2565C5.48725 3.2565 5.41667 3.2885 5.3525 3.3525C5.2885 3.41667 5.2565 3.48725 5.2565 3.56425V17.4358C5.2565 17.5127 5.2885 17.5833 5.3525 17.6475C5.41667 17.7115 5.48725 17.7435 5.56425 17.7435Z" fill="black"/>
<path d="M20.7325 10.5862C20.7325 10.7326 20.6729 10.8441 20.5537 10.921L15.6033 14.0942C15.4673 14.1801 15.3327 14.1866 15.1995 14.114C15.0665 14.0413 15 13.9249 15 13.7647V7.39922C15 7.23906 15.0665 7.12264 15.1995 7.04997C15.3327 6.97731 15.4673 6.98389 15.6033 7.06972L20.5537 10.243C20.6729 10.3253 20.7325 10.4397 20.7325 10.5862Z" fill="black"/>
</svg>
