<svg width="134" height="134" viewBox="0 0 134 134" fill="none" xmlns="http://www.w3.org/2000/svg">
<path d="M62.8125 77.8872V98.459C62.8125 99.6473 63.2136 100.643 64.0157 101.445C64.8169 102.246 65.8117 102.646 67 102.646C68.1883 102.646 69.1831 102.246 69.9843 101.445C70.7864 100.643 71.1875 99.6473 71.1875 98.459V77.8872L78.5742 85.2739C78.9902 85.689 79.4574 86.0002 79.9757 86.2077C80.4949 86.4153 81.0142 86.5051 81.5334 86.4771C82.0517 86.4483 82.5649 86.3301 83.073 86.1226C83.5811 85.9151 84.0431 85.6038 84.4591 85.1888C85.2677 84.3224 85.6865 83.3416 85.7153 82.2464C85.7433 81.1511 85.3245 80.1703 84.4591 79.3039L70.5329 65.3777C70.0099 64.8557 69.4585 64.4872 68.8788 64.2722C68.2991 64.0573 67.6728 63.9498 67 63.9498C66.3272 63.9498 65.7009 64.0573 65.1212 64.2722C64.5415 64.4872 63.9901 64.8557 63.4671 65.3777L49.5409 79.3039C48.7109 80.1349 48.3014 81.1069 48.3126 82.2198C48.3228 83.3328 48.7611 84.3224 49.6275 85.1888C50.4938 85.9974 51.4746 86.4162 52.5699 86.445C53.6642 86.4729 54.6445 86.0542 55.5109 85.1888L62.8125 77.8872ZM35.2183 120.041C32.3978 120.041 30.0104 119.064 28.0563 117.11C26.1021 115.156 25.125 112.769 25.125 109.948V24.0513C25.125 21.2308 26.1021 18.8434 28.0563 16.8893C30.0104 14.9351 32.3978 13.958 35.2183 13.958H75.3862C76.7318 13.958 78.0257 14.2195 79.268 14.7425C80.5093 15.2645 81.5883 15.9838 82.5049 16.9004L105.933 40.3281C106.849 41.2447 107.569 42.3237 108.091 43.565C108.614 44.8073 108.875 46.1013 108.875 47.4468V109.948C108.875 112.769 107.898 115.156 105.944 117.11C103.99 119.064 101.602 120.041 98.7817 120.041H35.2183ZM75.375 42.4107V22.333H35.2183C34.7884 22.333 34.3947 22.5121 34.0374 22.8704C33.6791 23.2277 33.5 23.6214 33.5 24.0513V109.948C33.5 110.378 33.6791 110.772 34.0374 111.129C34.3947 111.487 34.7884 111.666 35.2183 111.666H98.7817C99.2116 111.666 99.6053 111.487 99.9626 111.129C100.321 110.772 100.5 110.378 100.5 109.948V47.458H80.4223C78.9828 47.458 77.7819 46.9764 76.8197 46.0133C75.8566 45.0511 75.375 43.8502 75.375 42.4107Z" fill="#D8D8D8"/>
</svg>
