<svg width="57" height="57" viewBox="0 0 57 57" fill="none" xmlns="http://www.w3.org/2000/svg">
<rect y="0.368652" width="57" height="56.2625" rx="28.1312" fill="#E5F0FF"/>
<path d="M18.4166 37.0349C17.9252 36.7616 17.5401 36.3927 17.2612 35.9282C16.9823 35.4638 16.8429 34.9428 16.8429 34.3653V27.1345L13.5162 25.2949C13.2426 25.1388 13.0417 24.9489 12.9137 24.7253C12.7854 24.502 12.7212 24.2537 12.7212 23.9803C12.7212 23.707 12.7854 23.4588 12.9137 23.2357C13.0417 23.0124 13.2426 22.8227 13.5162 22.6666L26.2412 15.7332C26.467 15.6077 26.6997 15.5155 26.9391 15.4566C27.1786 15.398 27.4242 15.3687 27.6762 15.3687C27.9281 15.3687 28.1738 15.398 28.4133 15.4566C28.6527 15.5155 28.8856 15.6075 29.112 15.7328L43.4837 23.5545C43.7401 23.6934 43.9367 23.8812 44.0737 24.1178C44.2104 24.3548 44.2787 24.6103 44.2787 24.8845V34.7178C44.2787 35.072 44.1588 35.3689 43.9191 35.6087C43.6794 35.8481 43.3824 35.9678 43.0283 35.9678C42.6738 35.9678 42.377 35.8481 42.1379 35.6087C41.8984 35.3689 41.7787 35.072 41.7787 34.7178V25.3653L38.5095 27.1345V34.3653C38.5095 34.9428 38.3701 35.4638 38.0912 35.9282C37.8123 36.3927 37.4272 36.7616 36.9358 37.0349L29.1154 41.2628C28.8867 41.3909 28.6527 41.4843 28.4133 41.5432C28.1738 41.6018 27.9281 41.6312 27.6762 41.6312C27.4242 41.6312 27.1786 41.6018 26.9391 41.5432C26.6997 41.4843 26.4656 41.3909 26.237 41.2628L18.4166 37.0349ZM27.4837 30.0512C27.5587 30.0939 27.6255 30.1153 27.6841 30.1153C27.743 30.1153 27.8098 30.0939 27.8845 30.0512L39.077 23.9807L27.8845 17.9262C27.8098 17.8834 27.743 17.862 27.6841 17.862C27.6255 17.862 27.5587 17.8834 27.4837 17.9262L16.2754 23.9807L27.4837 30.0512ZM27.4679 39.0991C27.5426 39.1418 27.612 39.1632 27.6762 39.1632C27.7404 39.1632 27.8098 39.1418 27.8845 39.0991L35.7691 34.8395C35.8547 34.7861 35.9161 34.7248 35.9533 34.6553C35.9908 34.5859 36.0095 34.4977 36.0095 34.3907V28.4678L29.1408 32.2403C28.9122 32.3684 28.6751 32.4618 28.4295 32.5207C28.1837 32.5796 27.9326 32.6091 27.6762 32.6091C27.4198 32.6091 27.1687 32.5796 26.9229 32.5207C26.6773 32.4618 26.4402 32.3684 26.2116 32.2403L19.3429 28.4678V34.3907C19.3429 34.4763 19.3616 34.5592 19.3991 34.6395C19.4363 34.7195 19.4977 34.7861 19.5833 34.8395L27.4679 39.0991Z" fill="#3293F9"/>
</svg>
