<svg width="24" height="24" viewBox="0 0 24 24" fill="none" xmlns="http://www.w3.org/2000/svg">
<path d="M17.768 15.6918C17.768 17.3099 17.2062 18.6825 16.0827 19.8095C14.9592 20.9365 13.5916 21.5 11.98 21.5C10.3701 21.5 9.00072 20.9365 7.87172 19.8095C6.74272 18.6825 6.17822 17.3099 6.17822 15.6918V6.5795C6.17822 5.44633 6.57439 4.48317 7.36672 3.69C8.15906 2.89667 9.11922 2.5 10.2472 2.5C11.3752 2.5 12.337 2.89667 13.1325 3.69C13.928 4.48317 14.3257 5.44633 14.3257 6.5795V15.211C14.3257 15.8605 14.0989 16.4157 13.6452 16.8765C13.1917 17.3375 12.6369 17.568 11.9807 17.568C11.3329 17.568 10.7776 17.3388 10.3147 16.8805C9.85189 16.4223 9.62047 15.8658 9.62047 15.211V7.06025C9.62047 6.88225 9.68097 6.73308 9.80197 6.61275C9.92314 6.49225 10.0731 6.432 10.252 6.432C10.431 6.432 10.5799 6.49225 10.6987 6.61275C10.8176 6.73308 10.877 6.88225 10.877 7.06025V15.211C10.877 15.5148 10.9838 15.7742 11.1975 15.989C11.4111 16.204 11.6721 16.3115 11.9805 16.3115C12.2908 16.3115 12.5498 16.204 12.7575 15.989C12.9653 15.7742 13.0692 15.5148 13.0692 15.211V6.57C13.0657 5.78617 12.7924 5.12125 12.2492 4.57525C11.7059 4.02942 11.0388 3.7565 10.248 3.7565C9.46031 3.7565 8.79447 4.0305 8.25047 4.5785C7.70647 5.12667 7.43447 5.79367 7.43447 6.5795V15.6918C7.43114 16.9614 7.87264 18.0374 8.75897 18.9198C9.64531 19.8022 10.721 20.2435 11.986 20.2435C13.244 20.2435 14.3121 19.8013 15.1902 18.9167C16.0686 18.0321 16.509 16.9571 16.5115 15.6918V7.06025C16.5115 6.88225 16.572 6.73308 16.693 6.61275C16.8141 6.49225 16.9641 6.432 17.143 6.432C17.322 6.432 17.4709 6.49225 17.5897 6.61275C17.7086 6.73308 17.768 6.88225 17.768 7.06025V15.6918Z" fill="black"/>
</svg>
