<svg width="167" height="180" viewBox="0 0 167 180" fill="none" xmlns="http://www.w3.org/2000/svg">
<path d="M162.657 8.24044C162.273 5.52291 157.952 5.72175 157.114 7.93113C138.223 5.76594 119.059 4.86009 100.1 3.46819C82.4526 2.16466 62.1581 -2.03316 44.6692 1.19253C43.4474 1.41346 43.6963 3.02631 44.6692 3.35772C61.4115 9.19047 82.4752 8.10788 100.1 9.49978C119.173 11.0022 138.358 13.0569 157.499 13.7639C162.793 64.3144 159.422 114.754 145.983 163.957C107.43 160.709 68.8551 157.55 30.3024 154.369C31.1395 149.42 31.9541 144.426 32.7459 139.433C34.4654 140.847 36.0039 142.504 37.2482 144.404C38.9225 146.945 43.8773 145.332 42.5651 142.217C40.6872 137.842 37.6781 134.175 33.9903 131.435C34.5333 127.878 35.0989 124.343 35.6192 120.786C36.479 121.869 37.1351 123.172 37.4971 124.785C38.2437 128.077 42.8818 127.016 43.1533 124.034C43.6963 118.356 41.0492 114.29 36.9315 111.661C37.6328 106.558 38.3116 101.454 38.9224 96.3283C40.1442 97.1678 41.2076 98.2062 42.09 99.5981C42.995 101.012 43.1985 103.199 44.2845 104.437C44.7144 104.923 45.1895 105.939 46.004 105.806C52.882 104.812 48.2665 94.1631 45.6194 91.313C44.0131 89.5896 42.0899 88.2419 39.9858 87.2477C40.6419 81.3045 41.2302 75.3613 41.728 69.396C43.8321 70.5669 45.3705 72.4891 45.7099 75.5822C45.9588 77.7253 49.3977 79.4486 50.529 76.8636C52.7688 71.7158 50.9362 66.4354 46.4791 62.9225C45.2574 61.9504 43.8773 61.2434 42.4293 60.6689C42.7461 56.206 42.9949 51.7651 43.1986 47.3243C43.8773 48.1197 44.3298 49.1139 44.4203 50.3732C44.5787 52.5605 47.9272 53.2675 48.5154 50.9256C49.8729 45.5789 47.452 41.845 43.4927 39.5252C43.7416 31.1296 43.7868 22.756 43.5379 14.4267C46.1398 16.4814 48.2665 19.2652 49.6466 22.1374C50.71 24.3468 53.6738 22.6456 53.3571 20.6129C52.6331 15.9291 50.3027 11.8417 47.1126 8.79278C47.3841 8.17416 47.1579 7.35669 46.3434 7.09156C45.7325 6.89272 45.1443 6.78225 44.5561 6.69387C44.1488 6.40666 43.7189 6.14153 43.2664 5.8985C43.2664 5.545 43.2438 5.1915 43.2212 4.8601C43.1081 2.717 40.3704 2.54025 39.6238 4.21938C34.3522 2.45188 28.3341 2.96003 22.9494 6.84853C13.1981 13.8743 14.1257 32.7424 27.8363 34.2227C27.8363 34.2669 27.8363 34.3111 27.8363 34.3553C27.7458 35.1285 27.6553 35.9018 27.5648 36.653C25.506 36.8739 23.5829 37.3158 22.0444 37.9565C16.1846 40.4089 11.7501 45.7777 12.8814 52.2512C13.6506 56.6479 17.0669 60.9341 21.524 61.1992C16.4334 63.2318 12.2931 67.1424 11.6144 72.7984C10.7773 79.7579 15.4153 82.829 21.8181 83.2267C21.7502 83.7569 21.6824 84.2871 21.6145 84.8174C21.1394 84.8616 20.6643 84.9279 20.2118 84.972C13.266 85.9 5.7093 90.1862 7.29304 98.0957C8.37903 103.531 14.6687 108.082 19.1258 104.348C18.9674 105.652 18.7864 106.933 18.628 108.237C15.2569 108.657 12.1121 109.584 9.64596 111.021C4.44226 114.047 1.95359 120.057 4.82694 125.514C5.39256 126.575 6.1844 127.547 7.13465 128.386C2.60969 130.529 -0.965002 134.307 0.234112 139.72C1.56897 145.774 7.67764 148.668 13.4922 148.425C12.8135 153.772 12.1347 159.141 11.4333 164.51C11.3202 165.46 12.2705 166.586 13.1981 166.763C53.9453 175.004 95.3034 179.334 136.91 179.953C137.951 179.953 139.196 179.158 139.399 178.097C139.92 175.291 140.417 172.485 140.892 169.657C143.404 169.878 145.915 170.099 148.426 170.32C149.784 170.431 151.119 169.282 151.458 168.067C166.096 116.124 170.395 61.7073 162.748 8.28463L162.657 8.24044ZM30.9133 109.054C28.3793 108.347 25.6643 107.994 22.972 107.95C23.5602 103.045 24.1485 98.162 24.7594 93.2572C27.3612 93.1467 30.0988 93.2572 32.6781 93.8095C32.1351 98.8911 31.5468 103.973 30.9359 109.054H30.9133ZM35.7323 59.1224C33.4925 58.9456 31.2074 59.0782 28.9676 59.3654C29.4653 55.3443 29.9631 51.3454 30.4834 47.3243C30.5966 46.5068 30.6644 45.5789 30.7549 44.5847C32.497 44.3637 34.5785 44.2975 36.6147 44.5405C36.3432 49.4011 36.0491 54.2617 35.7323 59.1224ZM38.7415 12.3278C38.0627 20.5688 37.5424 28.8318 37.0673 37.0949C35.1894 36.6972 33.2663 36.4763 31.3658 36.4321C32.0671 27.6167 33.4925 17.2326 38.7641 12.3057L38.7415 12.3278ZM30.6871 11.9743C31.5921 11.6208 32.497 11.4219 33.3794 11.2894C32.3839 12.5266 31.5694 13.9185 30.9359 15.443C29.5105 18.8896 28.9223 22.756 28.5377 26.6224C23.6507 22.049 22.8588 14.979 30.7096 11.9522L30.6871 11.9743ZM27.8363 68.4901C28.2436 68.4238 28.6282 68.3576 28.9902 68.2913C30.8907 68.0041 33.04 67.8052 35.1215 67.8715C34.85 71.5832 34.5559 75.295 34.1939 78.9846C33.9903 81.0615 33.764 83.1162 33.5604 85.1709C31.0264 84.6848 28.402 84.5081 25.8227 84.5302C25.9359 83.6906 26.0263 82.8511 26.1395 82.0115C26.7051 77.5044 27.2707 72.9752 27.8363 68.468V68.4901ZM21.705 49.1802C22.3838 47.2359 24.3747 46.1754 26.4336 45.5347C26.049 48.7383 25.6643 51.9419 25.2797 55.1455C25.1213 55.0571 24.963 54.9687 24.782 54.9025C22.3611 54.1513 20.8679 51.5884 21.705 49.1802ZM20.7547 72.3123C21.2525 71.1414 22.248 70.346 23.4471 69.7715C23.153 72.1135 22.8589 74.4333 22.5648 76.7753C21.0715 75.7148 19.7593 74.6101 20.7547 72.3123ZM21.9313 116.566C24.601 116.434 27.3839 116.566 29.85 117.251C29.3748 120.919 28.8544 124.564 28.3341 128.232C25.9358 127.215 23.3792 126.53 20.7547 126.243C21.1394 123.017 21.524 119.792 21.9313 116.588V116.566ZM18.4018 98.4272C12.9266 96.748 17.1121 94.6933 20.3927 93.8316C20.1665 95.6212 19.9403 97.4108 19.714 99.2004C19.3294 98.8469 18.8995 98.5818 18.4244 98.4272H18.4018ZM17.361 117.406C17.0443 119.836 16.7275 122.266 16.4334 124.719C16.1619 124.498 15.8452 124.299 15.5058 124.166C9.17091 121.604 13.1076 118.775 17.3837 117.428L17.361 117.406ZM11.637 135.478C12.5419 134.838 13.809 134.506 15.1891 134.352C14.8497 137.025 14.5103 139.698 14.1709 142.372C11.1166 140.582 7.42875 138.417 11.637 135.478ZM127.951 174.717C122.182 175.115 116.028 174.341 110.258 174.054C98.4709 173.458 86.7061 172.552 74.9638 171.314C61.9772 169.967 49.0357 168.199 36.1622 166.1C32.678 165.526 21.162 165.393 18.7185 163.029C15.0081 159.472 17.4289 153.75 17.9493 149.265C18.5375 144.294 19.1484 139.323 19.7592 134.352C20.3701 134.396 20.9358 134.462 21.4109 134.528C23.4471 134.793 25.3929 135.368 27.2255 136.141C26.2526 142.814 25.2345 149.486 24.1259 156.158C23.8091 158.08 24.8951 159.561 26.9087 159.737C63.1989 162.897 99.4891 166.078 135.757 169.193C134.693 174.253 134.286 174.275 127.928 174.717H127.951Z" fill="#3293F9"/>
<path d="M144.537 28.6332C132.885 27.7494 121.21 27.7494 109.581 26.5122C98.2011 25.297 86.6172 21.9167 75.2369 21.1876C71.9111 20.9667 64.6937 23.883 70.5309 26.7552C70.9382 26.9541 71.3228 26.468 71.0061 26.1366C69.5807 24.6342 78.7664 25.0982 78.8569 25.0982C82.3864 25.4517 86.0516 26.6006 89.581 27.2192C94.7621 28.1029 99.9884 28.8099 105.215 29.3844C118.156 30.8426 131.527 32.0356 144.514 30.9751C146.075 30.8426 146.075 28.7216 144.514 28.6111L144.537 28.6332Z" fill="#3293F9"/>
<path d="M140.464 45.9545C115.644 42.309 89.7389 42.1544 64.6707 41.4695C63.562 41.4474 63.5847 43.0602 64.6707 43.1486C89.6484 45.1149 114.988 48.4511 140.056 48.8488C141.708 48.8709 142.183 46.1975 140.464 45.9545Z" fill="#3293F9"/>
<path d="M144.604 55.3884C118.54 52.3395 90.8244 53.3116 64.6023 53.5547C63.1317 53.5547 63.1543 55.6757 64.6023 55.764C90.7792 57.5757 118.404 60.2049 144.604 58.6804C146.821 58.5479 146.73 55.6315 144.604 55.3884Z" fill="#3293F9"/>
<path d="M144.873 71.7155C119.374 66.9212 91.9757 67.6503 66.1382 68.3794C64.5998 68.4236 64.5998 70.6992 66.1382 70.6992C92.3151 70.9202 118.424 73.9912 144.533 74.1901C145.959 74.1901 146.343 71.9807 144.873 71.7155Z" fill="#3293F9"/>
<path d="M138.947 87.4242C127.047 84.7288 114.377 84.4858 102.227 83.359C88.7203 82.1218 75.1907 80.6415 61.6384 79.7577C60.032 79.6473 59.6248 82.3206 61.2538 82.5415C73.4485 84.1986 85.7112 85.3474 97.9512 86.6731C111.277 88.1313 125.124 90.7162 138.54 90.429C140.26 90.3848 140.735 87.8219 138.947 87.4242Z" fill="#3293F9"/>
<path d="M137.297 102.868C112.002 96.0188 83.1554 96.2177 57.0916 96.3502C55.4174 96.3502 55.4174 98.8247 57.0916 98.8689C83.9246 99.5096 110.237 104.37 136.912 105.652C138.563 105.74 138.858 103.288 137.297 102.868Z" fill="#3293F9"/>
<path d="M143.427 113.672C130.101 110.932 115.803 111.33 102.228 110.623C87.1822 109.849 72.1367 109.054 57.0686 108.281C55.5075 108.192 55.5301 110.534 57.0686 110.645C71.4127 111.705 85.7342 112.766 100.078 113.826C114.151 114.865 128.993 117.207 143.088 116.124C144.446 116.014 144.943 113.959 143.427 113.65V113.672Z" fill="#3293F9"/>
<path d="M129.805 126.111C106.614 121.383 80.7088 121.67 57.0433 120.676C55.8894 120.631 55.9573 122.266 57.0433 122.377C80.4825 125.161 105.845 129.579 129.443 128.629C130.868 128.563 131.298 126.42 129.782 126.111H129.805Z" fill="#3293F9"/>
<path d="M127.996 135.324C103.516 132.982 78.6741 132.12 54.0809 131.502C52.2257 131.457 52.2936 134.086 54.0809 134.263C78.5836 136.517 103.38 138.572 127.996 139.08C130.53 139.124 130.417 135.545 127.996 135.302V135.324Z" fill="#3293F9"/>
</svg>
