<svg width="37" height="36" viewBox="0 0 37 36" fill="none" xmlns="http://www.w3.org/2000/svg">
<path d="M8.375 28.3268C8.05625 28.3268 7.78913 28.219 7.57363 28.0035C7.35788 27.7878 7.25 27.5204 7.25 27.2014C7.25 26.8826 7.35788 26.6155 7.57363 26.4C7.78913 26.1848 8.05625 26.0771 8.375 26.0771H9.96163V14.8845C9.96163 12.8672 10.5842 11.0836 11.8295 9.53362C13.0745 7.98362 14.673 6.99225 16.625 6.5595V5.625C16.625 5.10425 16.8071 4.6615 17.1714 4.29675C17.5356 3.93225 17.9779 3.75 18.4981 3.75C19.0186 3.75 19.4615 3.93225 19.8268 4.29675C20.1923 4.6615 20.375 5.10425 20.375 5.625V6.5595C22.327 6.99225 23.9255 7.98362 25.1705 9.53362C26.4158 11.0836 27.0384 12.8672 27.0384 14.8845V26.0771H28.625C28.9438 26.0771 29.2109 26.1849 29.4264 26.4004C29.6421 26.6161 29.75 26.8835 29.75 27.2025C29.75 27.5213 29.6421 27.7884 29.4264 28.0039C29.2109 28.2191 28.9438 28.3268 28.625 28.3268H8.375ZM18.4974 32.5384C17.7511 32.5384 17.1131 32.2729 16.5834 31.7419C16.0534 31.2109 15.7884 30.5725 15.7884 29.8268H21.2116C21.2116 30.575 20.9459 31.214 20.4144 31.7438C19.8829 32.2735 19.2439 32.5384 18.4974 32.5384ZM12.2116 26.0771H24.7884V14.8845C24.7884 13.148 24.1745 11.6659 22.9468 10.4381C21.7188 9.21012 20.2365 8.59612 18.5 8.59612C16.7635 8.59612 15.2813 9.21012 14.0533 10.4381C12.8255 11.6659 12.2116 13.148 12.2116 14.8845V26.0771Z" fill="black"/>
</svg>
