<svg width="30" height="29" viewBox="0 0 30 29" fill="none" xmlns="http://www.w3.org/2000/svg">
<path d="M4 21.6875V12.3275C4 11.864 4.17521 11.4777 4.52563 11.1688C4.87604 10.8596 5.28125 10.7258 5.74125 10.7675C7.44146 10.9781 9.03 11.4935 10.5069 12.3137C11.9835 13.134 13.3562 14.1276 14.625 15.2947C15.8938 14.1276 17.2665 13.134 18.7431 12.3137C20.22 11.4935 21.8085 10.9781 23.5088 10.7675C23.9688 10.7258 24.374 10.8596 24.7244 11.1688C25.0748 11.4777 25.25 11.864 25.25 12.3275V21.6875C25.25 22.0981 25.1121 22.4543 24.8363 22.7559C24.5602 23.0574 24.2168 23.2264 23.8059 23.2628C22.3157 23.4343 20.8984 23.7885 19.5541 24.3256C18.2097 24.8627 16.9371 25.5704 15.7362 26.4487C15.5702 26.5817 15.3943 26.6785 15.2084 26.7394C15.0226 26.8004 14.8278 26.8309 14.6241 26.8309C14.4203 26.8309 14.2258 26.8004 14.0406 26.7394C13.8554 26.6785 13.6798 26.5817 13.5138 26.4487C12.3129 25.5704 11.0423 24.8627 9.70187 24.3256C8.36167 23.7885 6.9424 23.4343 5.44406 23.2628C5.03323 23.2264 4.68979 23.0574 4.41375 22.7559C4.13792 22.4543 4 22.0981 4 21.6875ZM14.625 25.3141C16.0165 24.3034 17.4738 23.4927 18.9969 22.8819C20.5198 22.271 22.0806 21.8755 23.6794 21.6953V12.3059C22.156 12.5597 20.6305 13.1078 19.1028 13.9503C17.5753 14.7926 16.0827 15.9229 14.625 17.3413C13.0967 15.8835 11.5864 14.7399 10.0941 13.9103C8.60177 13.0805 7.09396 12.5457 5.57062 12.3059V21.6953C7.16937 21.8755 8.73021 22.271 10.2531 22.8819C11.7763 23.4927 13.2335 24.3034 14.625 25.3141ZM14.6716 10.8525C13.4426 10.8525 12.3976 10.4233 11.5366 9.565C10.6757 8.70667 10.2453 7.66177 10.2453 6.43031C10.2453 5.19865 10.6757 4.1524 11.5366 3.29156C12.3976 2.43052 13.4426 2 14.6716 2C15.9003 2 16.9452 2.43052 17.8062 3.29156C18.6673 4.1524 19.0978 5.19865 19.0978 6.43031C19.0978 7.66177 18.6673 8.70667 17.8062 9.565C16.9452 10.4233 15.9003 10.8525 14.6716 10.8525ZM14.6759 9.28188C15.4624 9.28188 16.1343 9.00188 16.6916 8.44188C17.2486 7.88167 17.5272 7.20833 17.5272 6.42188C17.5272 5.63521 17.2472 4.96333 16.6872 4.40625C16.127 3.84896 15.4535 3.57031 14.6669 3.57031C13.8804 3.57031 13.2086 3.85042 12.6516 4.41063C12.0943 4.97083 11.8156 5.64417 11.8156 6.43063C11.8156 7.21729 12.0957 7.88917 12.6559 8.44625C13.2159 9.00333 13.8893 9.28188 14.6759 9.28188Z" fill="black"/>
</svg>
