<svg width="41" height="40" viewBox="0 0 41 40" fill="none" xmlns="http://www.w3.org/2000/svg">
<path d="M9.25 31.474C8.89583 31.474 8.59903 31.3543 8.35958 31.1148C8.11986 30.8751 8 30.578 8 30.2236C8 29.8694 8.11986 29.5726 8.35958 29.3332C8.59903 29.094 8.89583 28.9744 9.25 28.9744H11.0129V16.5382C11.0129 14.2968 11.7047 12.315 13.0883 10.5928C14.4717 8.87053 16.2478 7.769 18.4167 7.28817V6.24984C18.4167 5.67123 18.619 5.17928 19.0238 4.774C19.4285 4.369 19.9199 4.1665 20.4979 4.1665C21.0763 4.1665 21.5683 4.369 21.9742 4.774C22.3803 5.17928 22.5833 5.67123 22.5833 6.24984V7.28817C24.7522 7.769 26.5283 8.87053 27.9117 10.5928C29.2953 12.315 29.9871 14.2968 29.9871 16.5382V28.9744H31.75C32.1042 28.9744 32.401 29.0941 32.6404 29.3336C32.8801 29.5733 33 29.8704 33 30.2248C33 30.579 32.8801 30.8758 32.6404 31.1153C32.401 31.3544 32.1042 31.474 31.75 31.474H9.25ZM20.4971 36.1536C19.6679 36.1536 18.959 35.8586 18.3704 35.2686C17.7815 34.6786 17.4871 33.9693 17.4871 33.1407H23.5129C23.5129 33.9721 23.2176 34.6821 22.6271 35.2707C22.0365 35.8593 21.3265 36.1536 20.4971 36.1536ZM13.5129 28.9744H27.4871V16.5382C27.4871 14.6087 26.805 12.9619 25.4408 11.5978C24.0764 10.2333 22.4294 9.55109 20.5 9.55109C18.5706 9.55109 16.9236 10.2333 15.5592 11.5978C14.195 12.9619 13.5129 14.6087 13.5129 16.5382V28.9744Z" fill="#E92828"/>
</svg>
