<svg width="57" height="59" viewBox="0 0 57 59" fill="none" xmlns="http://www.w3.org/2000/svg">
<g clip-path="url(#clip0_165_408)">
<path d="M51.7272 57.7133H51.6363C45.7731 57.9752 38.4293 55.0943 28.7498 48.8836C28.1351 48.4881 27.5098 48.0819 26.8684 47.6597C26.8684 47.6597 30.9038 40.3372 31.4008 39.1133C31.5077 39.1774 31.6039 39.2469 31.7055 39.311C32.2613 39.6798 32.7958 40.0379 33.325 40.38C33.5708 40.5297 33.8113 40.6847 34.0465 40.8343C42.2027 46.0509 46.9863 47.6329 49.616 48.0124C52.1975 48.3866 53.0955 47.7184 53.817 47.1786L55.506 49.4555L55.5167 49.4715C57.9593 52.7533 55.8053 57.5048 51.7218 57.7079L51.7272 57.7133Z" fill="black"/>
<path d="M22.63 35.1691C22.63 35.1691 21.3205 38.4454 19.6422 41.3103C19.0276 42.3579 18.3595 43.3466 17.6914 44.1056C15.0403 43.9934 13.175 44.8111 12.2129 45.3777C11.6731 45.693 11.2348 46.0404 10.8767 46.3772C10.1071 47.1094 10.401 48.3441 11.2883 48.7449C11.4219 48.8037 11.5662 48.8465 11.7319 48.8625C11.7319 48.8625 11.7479 48.8625 11.7533 48.8625C11.4272 48.8785 6.93223 48.9908 6.45654 44.4584C6.26413 42.6518 6.71309 40.1184 8.30051 36.5587C9.72223 35.8372 11.3257 35.2653 13.0788 34.9125C15.9276 34.3192 19.1612 34.3086 22.6353 35.1691H22.63Z" fill="black"/>
<path d="M40.9947 8.73439C41.0321 9.63232 40.9413 10.557 40.7061 11.4763C40.3961 12.6682 40.0647 13.9403 39.6959 15.2711C38.504 19.579 37.0128 24.5283 35.249 29.4883C33.993 33.0213 32.7156 36.2282 31.4115 39.109C30.9197 40.333 26.879 47.6554 26.879 47.6554C25.5642 49.7238 24.2227 51.4983 22.8544 52.9735C19.0756 57.0409 15.0884 58.8475 10.8499 58.4412C2.98769 57.6876 0.871137 52.904 0.325965 50.8783C-0.892655 46.362 1.35217 41.2737 6.02889 37.9225C6.72372 37.4307 7.47734 36.9711 8.28975 36.5595C2.69907 49.0985 11.2989 48.8847 11.7479 48.8633C11.7639 48.8633 11.7692 48.8633 11.7692 48.8633C12.9611 48.9809 15.0456 47.8104 17.686 44.1011C20.1873 41.2844 22.6246 35.1699 22.6246 35.1699C23.763 32.6471 24.9496 29.6968 26.1789 26.2654C29.2949 17.4946 31.5558 8.56336 32.6889 3.71026C32.9935 2.41681 33.218 1.41198 33.357 0.77595C33.4585 0.289571 33.5173 0.0116399 33.5227 -0.00439453C37.8306 0.872157 40.813 4.56543 40.9947 8.72905V8.73439Z" fill="url(#paint0_linear_165_408)"/>
</g>
<defs>
<linearGradient id="paint0_linear_165_408" x1="20.5007" y1="-0.00439453" x2="20.5007" y2="58.4971" gradientUnits="userSpaceOnUse">
<stop stop-color="#2563EB"/>
<stop offset="1" stop-color="#37A8FF"/>
</linearGradient>
<clipPath id="clip0_165_408">
<rect width="56.5536" height="58.4991" fill="white"/>
</clipPath>
</defs>
</svg>
