<svg width="20" height="20" viewBox="0 0 20 20" fill="none" xmlns="http://www.w3.org/2000/svg">
<mask id="mask0_208_4553" style="mask-type:alpha" maskUnits="userSpaceOnUse" x="0" y="0" width="20" height="20">
<rect width="20" height="20" fill="#D9D9D9"/>
</mask>
<g mask="url(#mask0_208_4553)">
<path d="M4.375 12.2918C4.19792 12.2918 4.04951 12.2319 3.92979 12.112C3.80993 11.9922 3.75 11.8437 3.75 11.6666C3.75 11.4894 3.80993 11.341 3.92979 11.2214C4.04951 11.1017 4.19792 11.0418 4.375 11.0418H10.625C10.8021 11.0418 10.9505 11.1018 11.0702 11.2216C11.1901 11.3415 11.25 11.49 11.25 11.667C11.25 11.8443 11.1901 11.9927 11.0702 12.1122C10.9505 12.232 10.8021 12.2918 10.625 12.2918H4.375ZM4.375 8.9585C4.19792 8.9585 4.04951 8.89857 3.92979 8.7787C3.80993 8.65884 3.75 8.51037 3.75 8.33329C3.75 8.15607 3.80993 8.00766 3.92979 7.88808C4.04951 7.76836 4.19792 7.7085 4.375 7.7085H15.625C15.8021 7.7085 15.9505 7.76843 16.0702 7.88829C16.1901 8.00815 16.25 8.15662 16.25 8.3337C16.25 8.51093 16.1901 8.65933 16.0702 8.77891C15.9505 8.89864 15.8021 8.9585 15.625 8.9585H4.375Z" fill="#1C1B1F"/>
</g>
</svg>
