<svg width="24" height="24" viewBox="0 0 24 24" fill="none" xmlns="http://www.w3.org/2000/svg">
<path d="M4.06425 21.5002C3.63442 21.5002 3.26625 21.347 2.95975 21.0405C2.65325 20.734 2.5 20.3658 2.5 19.936V10.0645C2.5 9.63462 2.65325 9.26646 2.95975 8.95996C3.26625 8.65346 3.63442 8.50021 4.06425 8.50021H19.9358C20.3656 8.50021 20.7337 8.65346 21.0403 8.95996C21.3468 9.26646 21.5 9.63462 21.5 10.0645V19.936C21.5 20.3658 21.3468 20.734 21.0403 21.0405C20.7337 21.347 20.3656 21.5002 19.9358 21.5002H4.06425ZM4.06425 20.2437H19.9358C20.0128 20.2437 20.0833 20.2117 20.1475 20.1477C20.2115 20.0835 20.2435 20.013 20.2435 19.936V10.0645C20.2435 9.98746 20.2115 9.91687 20.1475 9.85271C20.0833 9.78871 20.0128 9.75671 19.9358 9.75671H4.06425C3.98725 9.75671 3.91667 9.78871 3.8525 9.85271C3.7885 9.91687 3.7565 9.98746 3.7565 10.0645V19.936C3.7565 20.013 3.7885 20.0835 3.8525 20.1477C3.91667 20.2117 3.98725 20.2437 4.06425 20.2437ZM10.9378 17.9875L14.916 15.313C15.0352 15.2305 15.0947 15.1267 15.0947 15.0017C15.0947 14.8767 15.0352 14.7698 14.916 14.681L10.9378 12.0232C10.8019 11.933 10.6674 11.9243 10.5343 11.997C10.4012 12.0695 10.3348 12.183 10.3348 12.3375V17.6732C10.3348 17.8304 10.4012 17.9445 10.5343 18.0157C10.6674 18.087 10.8019 18.0776 10.9378 17.9875ZM4.74625 6.87196C4.56792 6.87196 4.41858 6.81154 4.29825 6.69071C4.17808 6.56987 4.118 6.41987 4.118 6.24071C4.118 6.06154 4.17808 5.91262 4.29825 5.79396C4.41858 5.67512 4.56792 5.61571 4.74625 5.61571H19.2538C19.4321 5.61571 19.5814 5.67612 19.7017 5.79696C19.8219 5.91779 19.882 6.06779 19.882 6.24696C19.882 6.42612 19.8219 6.57504 19.7017 6.69371C19.5814 6.81254 19.4321 6.87196 19.2538 6.87196H4.74625ZM7.87825 3.98746C7.69992 3.98746 7.55067 3.92704 7.4305 3.80621C7.31017 3.68537 7.25 3.53537 7.25 3.35621C7.25 3.17704 7.31017 3.02804 7.4305 2.90921C7.55067 2.79037 7.69992 2.73096 7.87825 2.73096H16.1217C16.3001 2.73096 16.4493 2.79137 16.5695 2.91221C16.6898 3.03304 16.75 3.18304 16.75 3.36221C16.75 3.54137 16.6898 3.69037 16.5695 3.80921C16.4493 3.92804 16.3001 3.98746 16.1217 3.98746H7.87825Z" fill="black"/>
</svg>
